<?xml version="1.0" encoding="UTF-8"?>
<svg xmlns="http://www.w3.org/2000/svg" xmlns:xlink="http://www.w3.org/1999/xlink" width="150px" height="60px" viewBox="0 0 150 60" version="1.1">
<g id="surface1">
<path style=" stroke:none;fill-rule:nonzero;fill:rgb(0%,53.72549%,80%);fill-opacity:1;" d="M 56.898438 23.5 L 56.898438 34.199219 C 56.898438 35.101562 57.101562 35.898438 57.398438 36.5 C 57.699219 37.101562 58.199219 37.601562 58.898438 37.898438 C 59.601562 38.199219 60.5 38.398438 61.5 38.398438 C 62.601562 38.398438 63.5 38.199219 64.101562 37.898438 C 64.800781 37.601562 65.300781 37.101562 65.601562 36.5 C 65.898438 35.898438 66.101562 35.101562 66.101562 34.199219 L 66.101562 23.5 L 63.300781 23.5 L 63.300781 33.800781 C 63.300781 34.300781 63.199219 34.800781 63.101562 35.101562 C 63 35.5 62.800781 35.699219 62.5 35.898438 C 62.199219 36.101562 61.898438 36.199219 61.398438 36.199219 C 60.699219 36.199219 60.300781 36 60 35.601562 C 59.699219 35.199219 59.601562 34.601562 59.601562 33.800781 L 59.601562 23.5 Z M 56.898438 23.5 "/>
<path style=" stroke:none;fill-rule:nonzero;fill:rgb(0%,53.72549%,80%);fill-opacity:1;" d="M 68.199219 23.5 L 68.199219 38.101562 L 70.800781 38.101562 L 70.800781 24.898438 L 70.898438 24.898438 L 73.601562 38.101562 L 75.601562 38.101562 L 78.398438 24.898438 L 78.398438 38.101562 L 81 38.101562 L 81 23.5 L 76.601562 23.5 L 74.601562 33 L 72.699219 23.5 Z M 68.199219 23.5 "/>
<path style=" stroke:none;fill-rule:nonzero;fill:rgb(0%,53.72549%,80%);fill-opacity:1;" d="M 85.898438 23.5 L 83.101562 23.5 L 83.101562 38.101562 L 85.898438 38.101562 Z M 85.898438 23.5 "/>
<path style=" stroke:none;fill-rule:nonzero;fill:rgb(0%,53.333333%,79.215686%);fill-opacity:1;" d="M 35.300781 38.101562 L 35.300781 28 L 31.898438 28 L 31.898438 26 L 32.300781 26 C 33.300781 26 34.199219 25.800781 34.800781 25.300781 C 35.398438 24.800781 35.800781 24.199219 36 23.5 L 38 23.5 L 38 38.199219 L 35.300781 38.199219 Z M 35.300781 38.101562 "/>
<path style=" stroke:none;fill-rule:nonzero;fill:rgb(0%,53.333333%,79.215686%);fill-opacity:1;" d="M 46.199219 28.300781 L 46.199219 28 C 46.199219 27.101562 46.101562 26.5 45.800781 26.101562 C 45.601562 25.699219 45.101562 25.601562 44.601562 25.601562 C 44 25.601562 43.601562 25.800781 43.300781 26.101562 C 43 26.5 42.898438 27.101562 42.898438 28 L 42.898438 33.699219 C 42.898438 34.601562 43 35.300781 43.300781 35.601562 C 43.601562 36 44 36.199219 44.601562 36.199219 C 45.199219 36.199219 45.601562 36 45.800781 35.601562 C 46.101562 35.199219 46.199219 34.601562 46.199219 33.699219 L 46.199219 32.898438 L 49 32.898438 L 49 33.601562 C 49 34.5 48.898438 35.398438 48.601562 36.101562 C 48.300781 36.800781 47.898438 37.398438 47.199219 37.800781 C 46.5 38.199219 45.699219 38.398438 44.601562 38.398438 C 42.898438 38.398438 41.800781 38 41.101562 37.101562 C 40.398438 36.199219 40.101562 35.101562 40.101562 33.601562 L 40.101562 28.398438 C 40.101562 26.699219 40.5 25.5 41.199219 24.699219 C 42 23.898438 43.101562 23.5 44.601562 23.5 C 45.5 23.5 46.300781 23.699219 46.898438 24 C 47.601562 24.300781 48.101562 24.800781 48.398438 25.5 C 48.699219 26.101562 48.898438 26.898438 48.898438 27.800781 L 48.898438 28.5 L 46.199219 28.5 Z M 46.199219 28.300781 "/>
<path style=" stroke:none;fill-rule:nonzero;fill:rgb(0%,53.333333%,79.215686%);fill-opacity:1;" d="M 50.199219 31.601562 L 50.199219 29.800781 L 55.398438 29.800781 L 55.398438 31.601562 Z M 50.199219 31.601562 "/>
<path style=" stroke:none;fill-rule:nonzero;fill:rgb(0%,53.333333%,79.215686%);fill-opacity:1;" d="M 28.5 21 C 21.800781 21 20.398438 23 17.300781 25.398438 C 17.300781 25.398438 17.398438 24.601562 16.601562 24.398438 C 15.800781 24.199219 15.601562 25 15.601562 25 C 15.601562 25 15.300781 24.601562 15.199219 24.199219 C 14.699219 22.300781 12.5 20.300781 10.101562 17.898438 C 7.699219 15.5 5.300781 15.699219 5.300781 15.699219 L 5.101562 16.5 C 4.5 18.199219 5.101562 18.601562 5.101562 19.101562 C 5.101562 19.601562 5.199219 20.101562 5.699219 20.898438 C 6.101562 21.699219 6.300781 24.199219 6.5 25.5 C 6.699219 26.800781 7.601562 27.601562 7.800781 27.699219 C 8 27.898438 6.601562 28.5 6.601562 28.699219 L 6.601562 29.398438 C 6.601562 29.5 6.101562 29.898438 6 30 C 5.898438 30.101562 5.800781 30.699219 6 32.699219 C 6.199219 34.800781 9.601562 36.898438 10.601562 37.101562 C 11.601562 37.300781 12.398438 35.5 12.898438 35.199219 C 13.5 35 14.898438 33.5 14.898438 33.5 C 14.898438 33.5 15.300781 37.5 15.300781 36 C 15.300781 34.5 16.199219 34.101562 16.199219 34.101562 L 16.300781 33.101562 C 16.300781 33.101562 17.300781 36.300781 18.398438 37.398438 C 19.5 38.5 21.699219 38.699219 21.898438 38.699219 C 22.101562 38.699219 23.601562 38.800781 24.800781 35.601562 C 26.101562 32.398438 24.101562 31.601562 24.5 31.601562 C 24.898438 31.601562 26.5 30.398438 26.199219 29.300781 C 26 28.199219 27 26.101562 28 25.101562 C 29 24.101562 29.199219 21.5 29.199219 21.398438 C 29.300781 21.398438 29.101562 21 28.5 21 Z M 28.5 21 "/>
</g>
</svg>
