<?xml version="1.0" encoding="UTF-8"?>
<svg width="130px" height="60px" viewBox="0 0 130 60" version="1.1" xmlns="http://www.w3.org/2000/svg" xmlns:xlink="http://www.w3.org/1999/xlink">
    <!-- Generator: Sketch 40.2 (33826) - http://www.bohemiancoding.com/sketch -->
    <title>1C Bitrix</title>
    <desc>Created with Invoicebox.</desc>
    <defs>
        <polygon id="path-1" points="119.825 12.0206818 119.825 23.6090909 0 23.6090909 0 12.0206818 0 0.432272727 119.825 0.432272727"></polygon>
    </defs>
    <g id="Page-1" stroke="none" stroke-width="1" fill="none" fill-rule="evenodd">
        <g id="Artboard">
            <g id="1c-битрикс" transform="translate(0.000000, 18.000000)">
                <mask id="mask-2" fill="white">
                    <use xlink:href="#path-1"></use>
                </mask>
                <g id="Clip-2"></g>
                <path d="M47.0309091,11.4259091 C46.0777273,11.4259091 45.3036364,12.1986364 45.3036364,13.1518182 C45.3036364,14.1068182 46.0777273,14.8790909 47.0309091,14.8790909 C47.9854545,14.8790909 48.7586364,14.1068182 48.7586364,13.1518182 C48.7586364,12.1986364 47.9854545,11.4259091 47.0309091,11.4259091 L47.0309091,11.4259091 Z M117.320909,10.1581818 C118.453182,10.1581818 119.281818,10.7913636 119.825,11.4259091 L119.825,8.36409091 C118.935455,7.76090909 117.862727,7.52 116.930909,7.52 C114.067273,7.52 111.579545,9.57 111.579545,13.0972727 C111.579545,16.4745455 113.840909,18.6759091 116.975455,18.6759091 C117.88,18.6759091 118.874545,18.5386364 119.825,17.8918182 L119.825,14.89 C119.281818,15.4490909 118.424091,16.0372727 117.320909,16.0372727 C115.633182,16.0372727 114.623182,14.7868182 114.623182,13.1877273 C114.623182,11.4540909 115.693636,10.1581818 117.320909,10.1581818 L117.320909,10.1581818 Z M111.903182,7.82227273 L108.435909,7.82227273 L105.254545,12.2531818 L105.254545,7.82227273 L102.300455,7.82227273 L102.301364,18.3745455 L105.254545,18.3745455 L105.254545,13.8359091 L108.313636,18.3745455 L112.009091,18.3745455 L107.893182,12.9318182 L111.903182,7.82227273 L111.903182,7.82227273 Z M93.5759091,14.1536364 L93.5759091,7.82227273 L90.7268182,7.82227273 L90.7268182,18.3745455 L93.6209091,18.3745455 L97.7068182,12.0418182 L97.7068182,18.3745455 L100.555455,18.3745455 L100.555455,7.82227273 L97.6609091,7.82227273 L93.5759091,14.1536364 L93.5759091,14.1536364 Z M85.0145455,12.5690909 L84.1718182,12.5690909 L84.1718182,10.1436364 L85.0145455,10.1436364 C86.2809091,10.1436364 86.4609091,10.8213636 86.4609091,11.3495455 C86.4609091,11.8013636 86.3259091,12.5690909 85.0145455,12.5690909 L85.0145455,12.5690909 Z M85.6618182,7.82227273 L81.2154545,7.82227273 L81.2154545,18.3745455 L84.1718182,18.3745455 L84.1718182,14.89 L85.6618182,14.89 C88.6477273,14.89 89.5072727,12.8118182 89.5072727,11.3495455 C89.5072727,9.90136364 88.6627273,7.82227273 85.6618182,7.82227273 L85.6618182,7.82227273 Z M72.4131818,10.3531818 L74.7336364,10.3531818 L74.7336364,18.3745455 L77.6886364,18.3745455 L77.6886364,10.3531818 L80.0095455,10.3531818 L80.0095455,7.82227273 L72.4131818,7.82227273 L72.4131818,10.3531818 L72.4131818,10.3531818 Z M64.2259091,14.1536364 L64.2259091,7.82227273 L61.3781818,7.82227273 L61.3781818,18.3745455 L64.2727273,18.3745455 L68.3563636,12.0418182 L68.3563636,18.3745455 L71.2063636,18.3745455 L71.2063636,7.82227273 L68.3127273,7.82227273 L64.2259091,14.1536364 L64.2259091,14.1536364 Z M55.4231818,16.2622727 L54.1572727,16.2622727 L54.1572727,14.0472727 L55.4231818,14.0472727 C56.3581818,14.0472727 56.9013636,14.3190909 56.9013636,15.1481818 C56.9013636,15.9918182 56.3436364,16.2622727 55.4231818,16.2622727 L55.4231818,16.2622727 Z M55.7104545,11.9363636 L54.1572727,11.9363636 L54.1572727,10.3531818 L58.9963636,10.3531818 L58.9963636,7.82227273 L51.2031818,7.82227273 L51.2027273,18.3745455 L55.7104545,18.3745455 C56.4781818,18.3745455 59.8554545,18.4036364 59.8554545,15.1031818 C59.8554545,11.9222727 56.5095455,11.9363636 55.7104545,11.9363636 L55.7104545,11.9363636 Z M34.6668182,13.0972727 C34.6668182,16.4745455 36.9272727,18.6759091 40.0627273,18.6759091 C40.9681818,18.6759091 41.9627273,18.5386364 42.9127273,17.8918182 L42.9127273,14.89 C42.3681818,15.4490909 41.5095455,16.0372727 40.4095455,16.0372727 C38.7209091,16.0372727 37.7113636,14.7868182 37.7113636,13.1877273 C37.7113636,11.4540909 38.7813636,10.1581818 40.4095455,10.1581818 C41.54,10.1581818 42.3681818,10.7913636 42.9127273,11.4259091 L42.9127273,8.36409091 C42.0213636,7.76090909 40.9518182,7.52 40.0177273,7.52 C37.1531818,7.52 34.6668182,9.57 34.6668182,13.0972727 L34.6668182,13.0972727 Z M28.4804545,10.2486364 L30.0945455,10.2486364 L30.0945455,18.3745455 L32.8231818,18.3745455 L32.8231818,7.82227273 L28.4804545,7.82227273 L28.4804545,10.2486364 L28.4804545,10.2486364 Z" id="Fill-1" fill="#1A1918" mask="url(#mask-2)"></path>
                <path d="M11.6013636,0.432272727 C10.7368182,0.432272727 9.89636364,0.53 9.08681818,0.709545455 L9.08681818,12.0427273 C9.08681818,13.4313636 10.2190909,14.5640909 11.6081818,14.5640909 C12.9963636,14.5640909 14.1281818,13.4313636 14.1281818,12.0436364 C14.1281818,10.71 13.0859091,9.61409091 11.7759091,9.52727273 L11.7759091,7.50954545 C14.1972727,7.59636364 16.1454545,9.6 16.1454545,12.0436364 C16.1454545,14.5418182 14.1072727,16.5813636 11.6081818,16.5813636 C9.10772727,16.5813636 7.06954545,14.5418182 7.06954545,12.0427273 L7.06954545,1.35136364 C6.78318182,1.47272727 6.50363636,1.60772727 6.22909091,1.75272727 L6.22909091,12.0427273 C6.22954545,15.0045455 8.64590909,17.42 11.6081818,17.42 C14.57,17.42 16.9859091,15.0045455 16.9859091,12.0436364 C16.9859091,9.13727273 14.6613636,6.75772727 11.7759091,6.66727273 L11.7759091,4.65045455 C15.7718182,4.74090909 19.0022727,8.02636364 19.0022727,12.0436364 C19.0022727,16.1168182 15.6804545,19.4377273 11.6081818,19.4377273 C7.53454545,19.4377273 4.21227273,16.1168182 4.21227273,12.0427273 L4.21227273,3.09045455 C1.64,5.21818182 0,8.43409091 0,12.0340909 C0,18.4409091 5.19409091,23.6363636 11.6018182,23.6363636 C18.0104545,23.6363636 23.2031818,18.4409091 23.2031818,12.0340909 C23.2031818,5.62681818 18.0104545,0.432272727 11.6013636,0.432272727" id="Fill-3" fill="#C92137" mask="url(#mask-2)"></path>
            </g>
        </g>
    </g>
</svg>