<?xml version="1.0" encoding="UTF-8"?>
<svg width="130px" height="60px" viewBox="0 0 130 60" version="1.1" xmlns="http://www.w3.org/2000/svg" xmlns:xlink="http://www.w3.org/1999/xlink">
    <!-- Generator: Sketch 44.1 (41455) - http://www.bohemiancoding.com/sketch -->
    <title>logo_CMS</title>
    <desc>Created with Sketch.</desc>
    <defs></defs>
    <g id="Page-1" stroke="none" stroke-width="1" fill="none" fill-rule="evenodd">
        <g id="Artboard-svg" fill="#478EC0">
            <g id="advantshop" transform="translate(1.000000, 23.000000)">
                <path d="M4.51100402,7.70971888 L8.30120482,7.70971888 L6.41526104,3.10586345 L4.51100402,7.70971888 Z M5.4724498,0.16626506 L7.46923695,0.16626506 L12.9416867,13.1448996 L10.5198394,13.1448996 L9.17012048,9.83566265 L3.642249,9.83566265 L2.29253012,13.1448996 L0,13.1448996 L5.4724498,0.16626506 L5.4724498,0.16626506 Z" id="Fill-14"></path>
                <path d="M16.6004819,2.32915663 L16.6004819,11.0189558 C17.2290763,11.0559036 17.7466667,11.0559036 18.0608835,11.0559036 C21.1853815,11.0559036 22.9974297,9.28096386 22.9974297,6.5448996 C22.9974297,3.93799197 21.1853815,2.27389558 18.0981526,2.27389558 C17.5617671,2.27389558 17.1180723,2.29236948 16.6004819,2.32915663 Z M14.3264257,0.203052209 L14.566747,0.203052209 C15.3432932,0.203052209 17.1921285,0.147791165 18.1349398,0.147791165 C23.3116466,0.147791165 25.4008032,3.12433735 25.4008032,6.5448996 C25.4008032,10.1868273 22.9233735,13.182008 17.9871486,13.182008 C17.2106024,13.182008 15.7685141,13.1448996 14.5852209,13.1448996 L14.3264257,13.1448996 L14.3264257,0.203052209 L14.3264257,0.203052209 Z" id="Fill-16"></path>
                <polyline id="Fill-17" points="32.073253 13.182008 30.3540562 13.182008 25.0293976 0.203052209 27.451245 0.203052209 31.2967068 9.79871486 34.9760643 0.203052209 37.2499598 0.203052209 32.073253 13.182008"></polyline>
                <path d="M39.282249,7.70971888 L43.0724498,7.70971888 L41.1866667,3.10586345 L39.282249,7.70971888 Z M40.2438554,0.16626506 L42.2403213,0.16626506 L47.7129317,13.1448996 L45.2910843,13.1448996 L43.9413655,9.83566265 L38.413494,9.83566265 L37.0636145,13.1448996 L34.771245,13.1448996 L40.2438554,0.16626506 L40.2438554,0.16626506 Z" id="Fill-18"></path>
                <polyline id="Fill-19" points="57.5100402 13.1448996 50.3919679 4.17831325 50.3919679 13.1448996 48.2658635 13.1448996 48.2658635 0.203052209 50.0775904 0.203052209 57.1956627 9.20722892 57.1956627 0.203052209 59.3217671 0.203052209 59.3217671 13.1448996 57.5100402 13.1448996"></polyline>
                <polyline id="Fill-20" points="61.2978313 0.203052209 71.9654618 0.203052209 71.9654618 2.32915663 67.7686747 2.32915663 67.7686747 13.1448996 65.4947791 13.1448996 65.4947791 2.32915663 61.2978313 2.32915663 61.2978313 0.203052209"></polyline>
                <path d="M73.2764659,3.56819277 C73.2764659,1.62682731 74.7924498,0 77.3068273,0 C78.8968675,0 80.2279518,0.535903614 81.0043373,1.38634538 L79.7844177,3.08738956 C79.1556627,2.47726908 78.5270683,2.12610442 77.4915663,2.12610442 C76.3640161,2.12610442 75.6798394,2.69927711 75.6798394,3.54971888 C75.6798394,6.23052209 81.5404016,5.38008032 81.5404016,9.6875502 C81.5404016,11.8693976 79.6364659,13.3484337 77.2142972,13.3484337 C75.5503614,13.3484337 73.6091566,12.6273092 72.9805622,11.3146988 L74.2746988,9.76192771 C75.0327711,10.7416867 76.253012,11.222008 77.2514056,11.222008 C78.3236948,11.222008 79.1370281,10.6862651 79.1370281,9.7060241 C79.1370281,7.15485944 73.2764659,7.78345382 73.2764659,3.56819277" id="Fill-21"></path>
                <polyline id="Fill-22" points="92.1696386 7.61686747 86.2533333 7.61686747 86.2533333 13.1448996 83.9794378 13.1448996 83.9794378 0.203052209 86.2533333 0.203052209 86.2533333 5.49076305 92.1696386 5.49076305 92.1696386 0.203052209 94.4252209 0.203052209 94.4252209 13.1448996 92.1696386 13.1448996 92.1696386 7.61686747"></polyline>
                <path d="M102.853655,11.222008 C105.571406,11.222008 107.198554,9.22554217 107.198554,6.67405622 C107.198554,3.99341365 105.294297,2.12610442 102.853655,2.12610442 C100.376225,2.12610442 98.5273896,3.99341365 98.5273896,6.67405622 C98.5273896,9.2626506 100.431807,11.222008 102.853655,11.222008 Z M102.853655,0 C106.699438,0 109.602088,2.64385542 109.602088,6.67405622 C109.602088,10.5564659 106.699438,13.3484337 102.853655,13.3484337 C99.0081928,13.3484337 96.1241767,10.704739 96.1241767,6.67405622 C96.1241767,2.92080321 98.8787149,0 102.853655,0 L102.853655,0 Z" id="Fill-23"></path>
                <path d="M113.574618,2.32915663 L113.574618,6.30441767 C114.110683,6.35983936 114.665382,6.39678715 115.182972,6.39678715 C116.532851,6.39678715 117.586667,5.74971888 117.586667,4.30763052 C117.586667,2.95807229 116.754538,2.29236948 115.201446,2.29236948 C114.739277,2.29236948 114.184739,2.31084337 113.574618,2.32915663 Z M111.300562,13.1448996 L111.300562,0.203052209 C112.021526,0.203052209 114.073896,0.16626506 114.97992,0.16626506 C118.788434,0.16626506 119.99004,2.2 119.99004,4.32610442 C119.99004,6.52626506 118.344739,8.52273092 115.257028,8.52273092 C114.868755,8.52273092 114.129317,8.52273092 113.574618,8.46730924 L113.574618,13.1448996 L111.300562,13.1448996 L111.300562,13.1448996 Z" id="Fill-24"></path>
            </g>
        </g>
    </g>
</svg>