<?xml version="1.0" encoding="UTF-8"?>
<svg width="130px" height="60px" viewBox="0 0 130 60" version="1.1" xmlns="http://www.w3.org/2000/svg" xmlns:xlink="http://www.w3.org/1999/xlink">
    <!-- Generator: Sketch 40.2 (33826) - http://www.bohemiancoding.com/sketch -->
    <title>logo_CMS</title>
    <desc>Created with Sketch.</desc>
    <defs></defs>
    <g id="Page-1" stroke="none" stroke-width="1" fill="none" fill-rule="evenodd">
        <g id="Artboard-svg">
            <g id="cs.cart" transform="translate(0.000000, 11.000000)">
                <rect id="Rectangle-2" fill="#00CCFF" x="10" y="10" width="8" height="8"></rect>
                <rect id="Rectangle-2" fill="#00CCFF" x="19" y="10" width="8" height="8"></rect>
                <rect id="Rectangle-2" fill="#00CCFF" x="10" y="19" width="8" height="8"></rect>
                <rect id="Rectangle-2" fill="#00CCFF" x="19" y="19" width="8" height="8"></rect>
                <rect id="Rectangle-2" fill="#00CCFF" x="0" y="0" width="8" height="8"></rect>
                <path d="M38.045,21.755 C37.67,21.92 37.175,22.1 36.425,22.1 C34.985,22.1 33.905,21.065 33.905,19.385 C33.905,17.885 34.805,16.64 36.47,16.64 C37.19,16.64 37.685,16.82 38,16.985 L38.3,15.98 C37.94,15.785 37.25,15.59 36.47,15.59 C34.1,15.59 32.57,17.225 32.57,19.46 C32.57,21.68 33.995,23.165 36.185,23.165 C37.16,23.165 37.925,22.91 38.27,22.745 L38.045,21.755 Z M39.60125,22.655 C40.11125,22.955 40.84625,23.165 41.64125,23.165 C43.33625,23.165 44.34125,22.265 44.34125,20.975 C44.34125,19.895 43.68125,19.265 42.43625,18.8 C41.49125,18.425 41.07125,18.155 41.07125,17.555 C41.07125,17.015 41.49125,16.565 42.27125,16.565 C42.94625,16.565 43.47125,16.82 43.75625,17 L44.07125,16.04 C43.68125,15.785 43.03625,15.59 42.30125,15.59 C40.75625,15.59 39.79625,16.55 39.79625,17.72 C39.79625,18.59 40.41125,19.295 41.73125,19.775 C42.69125,20.135 43.06625,20.465 43.06625,21.095 C43.06625,21.71 42.61625,22.175 41.67125,22.175 C41.01125,22.175 40.32125,21.905 39.91625,21.665 L39.60125,22.655 Z M46.7075,23.165 C47.2625,23.165 47.6225,22.76 47.6225,22.22 C47.6225,21.665 47.2625,21.275 46.7375,21.275 C46.2125,21.275 45.8375,21.68 45.8375,22.22 C45.8375,22.76 46.1975,23.165 46.7075,23.165 L46.7075,23.165 Z M54.48875,21.755 C54.11375,21.92 53.61875,22.1 52.86875,22.1 C51.42875,22.1 50.34875,21.065 50.34875,19.385 C50.34875,17.885 51.24875,16.64 52.91375,16.64 C53.63375,16.64 54.12875,16.82 54.44375,16.985 L54.74375,15.98 C54.38375,15.785 53.69375,15.59 52.91375,15.59 C50.54375,15.59 49.01375,17.225 49.01375,19.46 C49.01375,21.68 50.43875,23.165 52.62875,23.165 C53.60375,23.165 54.36875,22.91 54.71375,22.745 L54.48875,21.755 Z M61.64,18.545 C61.64,17.105 61.1,15.59 58.88,15.59 C57.965,15.59 57.08,15.845 56.48,16.22 L56.78,17.105 C57.29,16.76 57.995,16.565 58.685,16.565 C60.17,16.55 60.335,17.645 60.335,18.23 L60.335,18.38 C57.53,18.365 55.97,19.325 55.97,21.08 C55.97,22.13 56.72,23.165 58.19,23.165 C59.225,23.165 60.005,22.655 60.41,22.085 L60.455,22.085 L60.56,23 L61.745,23 C61.67,22.505 61.64,21.89 61.64,21.26 L61.64,18.545 Z M60.365,20.555 C60.365,20.675 60.35,20.825 60.305,20.975 C60.095,21.59 59.48,22.19 58.52,22.19 C57.86,22.19 57.29,21.8 57.29,20.93 C57.29,19.52 58.925,19.265 60.365,19.295 L60.365,20.555 Z M64.05125,23 L65.37125,23 L65.37125,19.13 C65.37125,18.92 65.38625,18.695 65.41625,18.515 C65.59625,17.525 66.25625,16.835 67.18625,16.835 C67.36625,16.835 67.50125,16.835 67.63625,16.865 L67.63625,15.62 C67.51625,15.605 67.41125,15.59 67.27625,15.59 C66.39125,15.59 65.58125,16.205 65.25125,17.18 L65.20625,17.18 L65.14625,15.74 L63.99125,15.74 C64.03625,16.415 64.05125,17.15 64.05125,18.005 L64.05125,23 Z M69.8975,14.39 L69.8975,15.74 L68.7725,15.74 L68.7725,16.745 L69.8975,16.745 L69.8975,20.705 C69.8975,21.56 70.0475,22.205 70.4075,22.61 C70.7225,22.955 71.2175,23.165 71.8325,23.165 C72.3425,23.165 72.7475,23.075 73.0025,22.985 L72.9425,21.98 C72.7475,22.04 72.5375,22.07 72.1775,22.07 C71.4425,22.07 71.1875,21.56 71.1875,20.66 L71.1875,16.745 L73.0775,16.745 L73.0775,15.74 L71.1875,15.74 L71.1875,14 L69.8975,14.39 Z" fill="#848484"></path>
            </g>
        </g>
    </g>
</svg>