<?xml version="1.0" encoding="UTF-8"?>
<svg width="130px" height="60px" viewBox="0 0 130 60" version="1.1" xmlns="http://www.w3.org/2000/svg" xmlns:xlink="http://www.w3.org/1999/xlink">
    <!-- Generator: Sketch 40.2 (33826) - http://www.bohemiancoding.com/sketch -->
    <title>logo_CMS</title>
    <desc>Created with Sketch.</desc>
    <defs>
        <polygon id="path-1" points="0.119657632 25.3249643 56.4559772 25.3249643 56.4559772 0.000513552068 0.119657632 0.000513552068 0.119657632 25.3249643"></polygon>
    </defs>
    <g id="Page-1" stroke="none" stroke-width="1" fill="none" fill-rule="evenodd">
        <g id="Artboard">
            <g id="drupal" transform="translate(0.000000, 15.000000)">
                <path d="M56.2019401,5.83532097 L51.15903,5.83532097 L51.1672468,15.2713267 C51.1672468,18.0289301 49.9850499,20.2596291 47.2274465,20.2596291 C44.4686448,20.2596291 43.2756633,18.0289301 43.2756633,15.2713267 L43.2756633,5.84456491 L38.245592,5.84456491 L38.2440514,15.2713267 C38.2440514,20.7204565 41.7468188,25.1366619 47.1968046,25.1366619 C52.6452496,25.1366619 56.2003994,20.7204565 56.2003994,15.2713267 L56.2019401,5.83532097" id="Fill-1" fill="#369ECC"></path>
                <polygon id="Fill-2" fill="#369ECC" points="101.67612 24.6499857 106.694379 24.6499857 106.694379 0.0859343795 101.67612 0.0859343795"></polygon>
                <polyline id="Fill-3" fill="#369ECC" points="110.399315 0.991669044 110.399315 0.109215407 114.310185 0.109215407 114.310185 0.991669044 112.879772 0.991669044 112.879772 4.88114123 111.830414 4.88114123 111.830414 0.991669044 110.399315 0.991669044"></polyline>
                <polyline id="Fill-4" fill="#369ECC" points="116.334779 0.109215407 117.45107 3.39029957 117.464422 3.39029957 118.519943 0.109215407 119.997775 0.109215407 119.997775 4.88114123 119.01535 4.88114123 119.01535 1.49922967 119.001655 1.49922967 117.832297 4.88114123 117.02311 4.88114123 115.853923 1.53261056 115.840571 1.53261056 115.840571 4.88114123 114.858146 4.88114123 114.858146 0.109215407 116.334779 0.109215407"></polyline>
                <g id="Group-8" transform="translate(21.398003, 5.477889)">
                    <mask id="mask-2" fill="white">
                        <use xlink:href="#path-1"></use>
                    </mask>
                    <g id="Clip-6"></g>
                    <path d="M12.7455064,0.15235378 C8.41985735,-0.845991441 5.69101284,3.45141227 5.57768902,3.68182596 C5.52205421,3.7949786 5.51982882,3.86088445 5.32827389,3.85574893 C5.16992867,3.85249643 5.15195435,3.68182596 5.15195435,3.68182596 L4.61512126,0.394579173 L0.119657632,0.394579173 L0.119657632,19.1558345 L5.15880171,19.1558345 L5.15880171,9.00068474 C5.15880171,8.17078459 7.39343795,4.19195435 11.7230243,5.21614836 C13.9128103,5.73415121 14.8414836,6.6631669 14.8414836,6.6631669 L14.8414836,0.948017118 C14.0312696,0.52553495 13.4754351,0.320798859 12.7455064,0.15235378" id="Fill-5" fill="#369ECC" mask="url(#mask-2)"></path>
                    <path d="M46.5267903,4.90630528 C49.3042511,4.90630528 51.5551498,7.15771755 51.5551498,9.93312411 C51.5551498,12.7109272 49.3042511,14.9623395 46.5267903,14.9623395 C43.7498431,14.9623395 41.4996291,12.7109272 41.4996291,9.93312411 C41.4996291,7.15771755 43.7498431,4.90630528 46.5267903,4.90630528 L46.5267903,4.90630528 Z M41.6422254,25.3352354 L41.6422254,18.5845934 C41.6427389,18.5845934 41.6435949,18.5852782 41.6439372,18.5857917 L41.644622,16.0577461 C41.644622,16.0577461 41.6526676,15.8555777 41.8349786,15.85301 C41.9976034,15.8512981 42.0338944,15.9589729 42.0734379,16.0577461 C42.4555207,17.0085021 44.5568046,20.6304137 49.2198573,19.4942653 C53.3941797,18.3184023 56.4559772,14.4852496 56.4559772,9.93312411 C56.4559772,4.44838802 52.0084451,0.000513552068 46.5226819,0.000513552068 C41.0367475,0.000513552068 36.5895578,4.44838802 36.5895578,9.93312411 L36.5895578,25.3352354 L41.6422254,25.3352354 L41.6422254,25.3352354 Z" id="Fill-7" fill="#369ECC" mask="url(#mask-2)"></path>
                </g>
                <path d="M94.7294722,15.4110128 C94.7294722,18.188816 92.4784023,20.4402282 89.7019686,20.4402282 C86.9248502,20.4402282 84.6734379,18.188816 84.6734379,15.4110128 C84.6734379,12.6356063 86.9248502,10.384194 89.7019686,10.384194 C92.4784023,10.384194 94.7294722,12.6356063 94.7294722,15.4110128 L94.7294722,15.4110128 Z M94.5863623,24.6421113 L99.63903,24.6421113 L99.63903,15.4110128 C99.63903,9.92627675 95.1923538,5.47840228 89.706077,5.47840228 C84.2196291,5.47840228 79.7726106,9.92627675 79.7726106,15.4110128 C79.7726106,19.9631384 82.834408,23.796291 87.0087304,24.9721541 C91.6722967,26.1083024 93.7727247,22.4863909 94.1551498,21.5356348 C94.1948645,21.4368616 94.2306419,21.3291869 94.3937803,21.3308987 C94.5759201,21.3334665 94.5834522,21.5356348 94.5834522,21.5356348 L94.5863623,24.6421113 Z" id="Fill-9" fill="#369ECC"></path>
                <path d="M7.10054208,4.32701854 L5.0742368,4.32701854 L5.0742368,20.3472753 L7.15514979,20.4005136 C11.4227675,20.4005136 14.1712981,20.0122682 14.1712981,12.3391155 C14.1712981,4.98094151 11.7445934,4.32701854 7.10054208,4.32701854 L7.10054208,4.32701854 Z M5.732097,24.6027389 L0,24.6027389 L0,0.0754921541 L6.15047076,0.0754921541 C13.5980029,0.0754921541 19.2465621,1.44205421 19.2465621,12.3391155 C19.2465621,23.1312411 13.2633381,24.6027389 5.732097,24.6027389 L5.732097,24.6027389 Z" id="Fill-10" fill="#369ECC"></path>
            </g>
        </g>
    </g>
</svg>