<?xml version="1.0" encoding="UTF-8"?>
<svg width="130px" height="60px" viewBox="0 0 130 60" version="1.1" xmlns="http://www.w3.org/2000/svg" xmlns:xlink="http://www.w3.org/1999/xlink">
    <!-- Generator: Sketch 40.2 (33826) - http://www.bohemiancoding.com/sketch -->
    <title>logo_CMS</title>
    <desc>Created with Sketch.</desc>
    <defs>
        <polygon id="path-1" points="0 24.4284624 119.877225 24.4284624 119.877225 0.000138728324 0 0.000138728324"></polygon>
    </defs>
    <g id="Page-1" stroke="none" stroke-width="1" fill="none" fill-rule="evenodd">
        <g id="Artboard">
            <g id="joomla" transform="translate(0.000000, 18.000000)">
                <path d="M46.702474,9.03523699 C42.5669827,9.03523699 39.202474,11.005526 39.202474,14.1959306 C39.202474,17.3866821 42.5669827,19.3562775 46.702474,19.3562775 C50.8383121,19.3562775 54.202474,17.3866821 54.202474,14.1959306 C54.202474,11.005526 50.8383121,9.03523699 46.702474,9.03523699 L46.702474,9.03523699 Z M52.4513757,14.1959306 C52.4513757,16.8230983 49.8724162,18.1316532 46.702474,18.1316532 C43.5325318,18.1316532 40.9539191,16.8230983 40.9539191,14.1959306 C40.9539191,11.5691098 43.5325318,10.2605549 46.702474,10.2605549 C49.8724162,10.2605549 52.4513757,11.5691098 52.4513757,14.1959306 L52.4513757,14.1959306 Z" id="Fill-1" fill="#030707"></path>
                <path d="M62.3724277,9.03523699 C58.2369364,9.03523699 54.8724277,11.005526 54.8724277,14.1959306 C54.8724277,17.3866821 58.2369364,19.3562775 62.3724277,19.3562775 C66.5086127,19.3562775 69.8731214,17.3866821 69.8731214,14.1959306 C69.8731214,11.005526 66.5086127,9.03523699 62.3724277,9.03523699 M68.1213295,14.1959306 C68.1213295,16.8230983 65.5427168,18.1316532 62.3724277,18.1316532 C59.2028324,18.1316532 56.6242197,16.8230983 56.6242197,14.1959306 C56.6242197,11.5691098 59.2028324,10.2605549 62.3724277,10.2605549 C65.5427168,10.2605549 68.1213295,11.5691098 68.1213295,14.1959306" id="Fill-3" fill="#030707"></path>
                <mask id="mask-2" fill="white">
                    <use xlink:href="#path-1"></use>
                </mask>
                <g id="Clip-6"></g>
                <polygon id="Fill-5" fill="#030707" mask="url(#mask-2)" points="92.3743353 19.1848786 94.1563006 19.1848786 94.1563006 4.55771098 92.3743353 4.55771098"></polygon>
                <path d="M102.965688,18.1315145 C99.7957457,18.1315145 97.2171329,16.8233064 97.2171329,14.1957919 C97.2171329,11.5689711 99.7957457,10.260763 102.965688,10.260763 C106.135283,10.260763 108.563723,11.9029595 108.563723,14.7170636 L108.563723,15.864 C107.988,16.8233064 105.493318,18.1315145 102.965688,18.1315145 L102.965688,18.1315145 Z M108.563723,9.14053179 L108.563723,10.8507052 C107.220139,9.74989595 105.226613,9.03509827 102.965688,9.03509827 C98.8301965,9.03509827 95.4656879,11.0053873 95.4656879,14.1957919 C95.4656879,17.3868902 98.8301965,19.3561387 102.965688,19.3561387 C105.226613,19.3561387 107.220139,18.7661965 108.563723,17.7111676 L108.563723,19.1848092 L110.344994,19.1848092 L110.344994,9.14053179 L108.563723,9.14053179 Z" id="Fill-7" fill="#030707" mask="url(#mask-2)"></path>
                <path d="M89.3448555,10.1105896 C88.5017341,9.50642775 87.2882081,9.03579191 85.6349133,9.03579191 C83.8643931,9.03579191 82.6241618,9.50781503 81.7751445,10.0655029 C81.4040462,10.3089711 81.1068208,10.5687399 80.8737572,10.8132486 C80.6455491,10.5444624 80.3552601,10.2746358 79.9931792,10.0280462 C79.1722543,9.4689711 77.9739884,9.03579191 76.240578,9.03579191 C74.5709827,9.03579191 73.3737572,9.49879769 72.5431214,10.0398382 L72.5431214,9.13255491 L70.7611561,9.13255491 L70.7611561,19.2031908 L72.5431214,19.2031908 L72.5431214,12.1061965 C72.8899422,11.5061965 73.8839306,10.260763 76.240578,10.260763 C79.4209249,10.260763 79.9883237,12.3680462 79.9931792,12.3909364 L79.9931792,19.2031908 L81.7751445,19.2031908 L81.7751445,12.5216879 C81.8181503,12.4335954 82.0734104,10.260763 85.6349133,10.260763 C88.9213873,10.260763 89.3396532,12.6659653 89.3448555,12.6892023 L89.3448555,19.2031908 L90.9010405,19.2031908 L90.9010405,12.389896 C90.9010405,11.8894335 90.4310983,10.8892023 89.3448555,10.1105896" id="Fill-8" fill="#030707" mask="url(#mask-2)"></path>
                <path d="M38.2753179,14.6544971 L38.2753179,14.6631676 L38.2746243,14.6298728 C38.2749711,14.6361156 38.2749711,14.6451329 38.2753179,14.6544971 L38.2753179,4.5776185 L36.5183237,4.5776185 L36.5183237,14.6631676 C36.5183237,14.6631676 36.5856069,16.096578 35.7341618,16.9143815 C34.9961272,17.6232832 34.1415607,17.9926474 32.4449133,17.9049017 C31.390578,17.8507977 29.9651445,17.6336879 28.8199422,17.459237 C28.6125434,17.4280231 28.4176301,17.3902197 28.2348555,17.3496416 L27.587341,18.6963468 C27.9598266,18.7480231 28.3666474,18.8076763 28.6836416,18.8562312 C29.8701156,19.036578 31.0434104,19.2391214 32.1917341,19.2991214 C34.3000578,19.4076763 35.840289,19.1173873 37.0284971,17.9707977 C38.2194798,16.8207399 38.2805202,14.9742659 38.2753179,14.6544971" id="Fill-9" fill="#030707" mask="url(#mask-2)"></path>
                <path d="M113.876324,17.2932486 C113.116786,17.2932486 112.501526,17.7572948 112.501526,18.329896 C112.501526,18.9028439 113.116786,19.3668902 113.876324,19.3668902 C114.635168,19.3668902 115.250775,18.9028439 115.250775,18.329896 C115.250775,17.7572948 114.635168,17.2932486 113.876324,17.2932486 L113.876324,17.2932486 Z M112.985341,15.9354451 L114.76696,15.9354451 L114.76696,4.55764162 L112.985341,4.55764162 L112.985341,15.9354451 Z" id="Fill-10" fill="#030707" mask="url(#mask-2)"></path>
                <polygon id="Fill-11" fill="#030707" mask="url(#mask-2)" points="116.522879 5.98463584 116.522879 4.60463584 115.809121 4.60463584 115.809121 4.42047399 117.527272 4.42047399 117.527272 4.60463584 116.810046 4.60463584 116.810046 5.98463584"></polygon>
                <path d="M117.810243,5.98463584 L117.810243,4.42047399 L118.240994,4.42047399 L118.753249,5.52717919 C118.800069,5.63053179 118.835098,5.70717919 118.857295,5.75885549 C118.881225,5.7023237 118.919723,5.61804624 118.972092,5.50810405 L119.49163,4.42047399 L119.877295,4.42047399 L119.877295,5.98463584 L119.600532,5.98463584 L119.600532,4.67469364 L118.970705,5.98463584 L118.711977,5.98463584 L118.087006,4.65353757 L118.087006,5.98463584 L117.810243,5.98463584 Z" id="Fill-12" fill="#030707" mask="url(#mask-2)"></path>
                <path d="M18.4575954,1.02280925 C18.0386358,1.44246243 17.7448786,1.95714451 17.5811792,2.52072832 C15.8429133,2.16593064 14.0227977,2.6653526 12.7135491,3.85980347 C12.651815,3.91633526 12.5904277,3.97356069 12.5311214,4.03286705 L7.30036994,9.2636185 L10.0367861,11.9996879 L15.1978266,6.83899422 C15.5463815,6.49009249 16.0034913,6.29795376 16.4845318,6.29795376 C16.9308902,6.29795376 17.3460347,6.46754913 17.6536647,6.77483237 C18.3129711,7.43379191 18.2845318,8.53633526 17.5895029,9.23101734 L17.5569017,9.2636185 L20.2929711,11.9996879 L20.3956301,11.8973757 C20.4549364,11.8380694 20.5121618,11.7770289 20.5686936,11.714948 C21.7631445,10.4056994 22.2622197,8.58558382 21.9081156,6.8469711 C22.4713526,6.68396532 22.9860347,6.39020809 23.4056879,5.97124855 C24.7693873,4.60685549 24.7693873,2.38720231 23.4056879,1.02280925 C22.0416416,-0.340890173 19.8219884,-0.340890173 18.4575954,1.02280925" id="Fill-13" fill="#F1985A" mask="url(#mask-2)"></path>
                <path d="M11.7150867,3.85969942 C11.6401734,3.7910289 11.563526,3.72478613 11.4851445,3.6609711 C10.1977457,2.61114451 8.48583815,2.18628902 6.84745665,2.5209711 C6.68375723,1.95738728 6.39034682,1.44235838 5.97104046,1.0227052 C4.6066474,-0.34099422 2.38699422,-0.34099422 1.02294798,1.0227052 C-0.341098266,2.38709827 -0.341098266,4.60675145 1.02294798,5.97114451 C1.44225434,6.39010405 1.95728324,6.68420809 2.52052023,6.84756069 C2.18618497,8.48559538 2.61104046,10.1975029 3.66121387,11.4849017 C3.7250289,11.5636301 3.79127168,11.6399306 3.8599422,11.7148439 C3.91612717,11.7769249 3.97369942,11.8379653 4.03300578,11.8976185 L9.26375723,17.1283699 L12.0001734,14.3919538 L6.83913295,9.23091329 C6.67578035,9.06790751 6.55092486,8.88166474 6.46179191,8.68467052 C6.17011561,8.04305202 6.27034682,7.27969942 6.7749711,6.77472832 C7.27959538,6.27010405 8.04294798,6.17021965 8.68491329,6.46154913 C8.88190751,6.5510289 9.06815029,6.67553757 9.23115607,6.83889017 L9.26410405,6.87218497 L12.0001734,4.13576879 L11.8975145,4.03276301 C11.8378613,3.97345665 11.7768208,3.91623121 11.7150867,3.85969942" id="Fill-14" fill="#62AF59" mask="url(#mask-2)"></path>
                <path d="M12.4285318,10.0367514 L17.5895723,15.1977919 C17.7529249,15.3611445 17.8777803,15.5466936 17.9672601,15.7440347 C18.2585896,16.386 18.1583584,17.1490058 17.6537341,17.6539769 C17.148763,18.1579075 16.3857572,18.2584855 15.7437919,17.9671561 C15.5467977,17.8776763 15.3609017,17.752474 15.1975491,17.5891214 L15.164948,17.5568671 L12.4285318,20.2929364 L12.7091098,20.5735145 L12.7136185,20.568659 C12.7885318,20.6369827 12.8651792,20.7035723 12.9432139,20.7670405 C14.2313064,21.8175607 15.9428671,22.2417225 17.5809017,21.9080809 C17.744948,22.4716647 18.0383584,22.9863468 18.4576647,23.4053064 C19.821711,24.7693526 22.041711,24.7693526 23.4054104,23.4053064 C24.7694566,22.0409133 24.7694566,19.8219538 23.4054104,18.4575607 C22.986104,18.0386012 22.471422,17.7448439 21.908185,17.5811445 C22.2421734,15.9424162 21.8176647,14.2312023 20.7674913,12.9431098 C20.7036763,12.8650751 20.6374335,12.7884277 20.568763,12.7131676 C20.5122312,12.6517803 20.4550058,12.5903931 20.3956994,12.5303931 L15.164948,7.30033526 L12.4285318,10.0367514 Z" id="Fill-15" fill="#DC5F57" mask="url(#mask-2)"></path>
                <path d="M9.2312948,17.5892601 C9.0679422,17.7526127 8.88204624,17.8771214 8.6847052,17.9672948 C8.04273988,18.2586243 7.2797341,18.1580462 6.77476301,17.6541156 C6.27048555,17.1487977 6.17025434,16.3857919 6.46158382,15.7441734 C6.55071676,15.5464855 6.67591908,15.3609364 6.83927168,15.1975838 L6.87187283,15.1646358 L4.34979191,12.6429017 L4.24747977,12.7452139 C4.18747977,12.8048671 4.13060116,12.8666012 4.07406936,12.9279884 C4.00539884,13.0032486 3.93915607,13.079896 3.87603468,13.1579306 C2.86609249,14.4044046 2.51198844,16.0053295 2.81198844,17.5008208 C2.81510983,17.5001272 2.81823121,17.4994335 2.82169942,17.4983931 L2.81406936,17.510185 C2.83349133,17.6059075 2.85499422,17.7016301 2.8796185,17.7963121 C2.78146821,17.8150405 2.6847052,17.8407052 2.58863584,17.8691445 L2.58655491,17.8722659 C2.58620809,17.8719191 2.58586127,17.8708786 2.58586127,17.870185 C2.09233526,18.0158497 1.62690173,18.2822081 1.23742197,18.6716879 C-0.0104393064,19.9202428 -0.0104393064,21.9435954 1.23742197,23.1911098 C2.48528324,24.4393179 4.50863584,24.4393179 5.75649711,23.1911098 C6.14597688,22.8016301 6.41233526,22.3361965 6.55834682,21.8426705 C6.65684393,21.8683353 6.75568786,21.890185 6.85453179,21.9103006 C8.49083237,22.2418613 10.1996185,21.8170058 11.4856301,20.7678728 C11.5640116,20.703711 11.6399653,20.6371214 11.7152254,20.5687977 C11.7769595,20.5126127 11.838,20.4550405 11.8973064,20.3953873 L17.1284046,15.1646358 L14.3919884,12.4282197 L9.2312948,17.5892601 Z" id="Fill-16" fill="#198AC0" mask="url(#mask-2)"></path>
                <path id="Fill-21" fill="#030707" mask="url(#mask-2)"></path>
                <path id="Fill-22" fill="#030707" mask="url(#mask-2)"></path>
            </g>
        </g>
    </g>
</svg>