<?xml version="1.0" encoding="UTF-8"?>
<svg width="130px" height="60px" viewBox="0 0 130 60" version="1.1" xmlns="http://www.w3.org/2000/svg" xmlns:xlink="http://www.w3.org/1999/xlink">
    <!-- Generator: Sketch 40.2 (33826) - http://www.bohemiancoding.com/sketch -->
    <title>logo_CMS</title>
    <desc>Created with Sketch.</desc>
    <defs>
        <linearGradient x1="85.1068827%" y1="55.7838551%" x2="19.9449531%" y2="-16.8228202%" id="linearGradient-1">
            <stop stop-color="#80C3E6" offset="0%"></stop>
            <stop stop-color="#3380C2" offset="100%"></stop>
        </linearGradient>
        <linearGradient x1="123.380343%" y1="66.0961425%" x2="40.551014%" y2="33.8322659%" id="linearGradient-2">
            <stop stop-color="#F38649" offset="0%"></stop>
            <stop stop-color="#F28147" offset="18.49%"></stop>
            <stop stop-color="#EF7242" offset="40.91%"></stop>
            <stop stop-color="#EA5A3A" offset="65.37%"></stop>
            <stop stop-color="#E4382E" offset="91.1%"></stop>
            <stop stop-color="#E12A29" offset="100%"></stop>
        </linearGradient>
        <linearGradient x1="-4.29637751%" y1="79.6943095%" x2="71.979004%" y2="21.2886484%" id="linearGradient-3">
            <stop stop-color="#42AB4A" offset="0%"></stop>
            <stop stop-color="#ADD155" offset="100%"></stop>
        </linearGradient>
        <linearGradient x1="22.7893641%" y1="124.29455%" x2="77.2108996%" y2="-24.2961247%" id="linearGradient-4">
            <stop stop-color="#42AB4A" offset="0%"></stop>
            <stop stop-color="#ADD155" offset="100%"></stop>
        </linearGradient>
    </defs>
    <g id="Page-1" stroke="none" stroke-width="1" fill="none" fill-rule="evenodd">
        <g id="Artboard">
            <g id="Modx" transform="translate(0.000000, 15.000000)">
                <g id="Group">
                    <polygon id="Shape" fill="url(#linearGradient-1)" points="23.640625 12.9471875 29.8615625 2.994375 14.8984375 2.994375 12.830625 6.31125"></polygon>
                    <polygon id="Shape" fill="#000000" opacity="0.15" points="12.831875 6.31125 13.890625 4.6084375 23.641875 12.9471875"></polygon>
                    <polygon id="Shape" fill="url(#linearGradient-2)" points="26.9309375 30.991875 26.9309375 16.029375 23.703125 14.011875 16.9153125 24.7334375"></polygon>
                    <polygon id="Shape" fill="#000000" opacity="0.15" points="16.9153125 24.733125 18.5921875 25.78 23.7034375 14.011875"></polygon>
                    <polygon id="Shape" fill="url(#linearGradient-3)" points="2.830625 0 2.830625 14.9628125 6.293125 16.98 23.638125 12.9453125"></polygon>
                    <polygon id="Shape" fill="url(#linearGradient-4)" points="6.2203125 18.1209375 0 27.9059375 14.9628125 27.9059375 23.705 14.011875"></polygon>
                </g>
                <g id="Group" transform="translate(32.500000, 8.125000)" fill="#000000">
                    <path d="M0.22375,14.421875 L2.1615625,14.421875 L3.1525,2.206875 L1.170625,2.206875 L1.170625,0.5 L5.574375,0.5 L9.5596875,10.0325 C9.801875,10.675625 9.9121875,11.163125 9.9121875,11.163125 L9.95625,11.163125 C9.95625,11.163125 10.0665625,10.6753125 10.30875,10.0325 L14.29375,0.5 L18.6971875,0.5 L18.6971875,2.2071875 L16.715625,2.2071875 L17.7065625,14.4221875 L19.6440625,14.4221875 L19.6440625,16.15125 L13.655,16.15125 L13.655,14.421875 L15.5265625,14.421875 L14.821875,5.06625 C14.8,4.5784375 14.888125,3.7809375 14.888125,3.7809375 L14.821875,3.7809375 C14.821875,3.7809375 14.6459375,4.5346875 14.4696875,4.9778125 L10.903125,13.2025 L8.965625,13.2025 L5.398125,4.978125 C5.2221875,4.535 5.0459375,3.78125 5.0459375,3.78125 L4.9796875,3.78125 C4.9796875,3.78125 5.0678125,4.5790625 5.0459375,5.0665625 L4.34125,14.4221875 L6.2125,14.4221875 L6.2125,16.15125 L0.2234375,16.15125 L0.2234375,14.421875 L0.22375,14.421875 Z" id="Shape"></path>
                    <path d="M28.849375,0.2340625 C33.3415625,0.2340625 36.841875,3.714375 36.841875,8.214375 C36.841875,12.825625 33.3415625,16.4171875 28.849375,16.4171875 C24.3359375,16.4171875 20.856875,12.825625 20.856875,8.214375 C20.856875,3.714375 24.3359375,0.2340625 28.849375,0.2340625 L28.849375,0.2340625 Z M28.849375,14.444375 C31.998125,14.444375 34.5521875,11.739375 34.5521875,8.214375 C34.5521875,4.800625 31.998125,2.1846875 28.849375,2.1846875 C25.67875,2.1846875 23.125,4.800625 23.125,8.214375 C23.125,11.7390625 25.6790625,14.444375 28.849375,14.444375 L28.849375,14.444375 Z" id="Shape"></path>
                    <path d="M38.308125,14.421875 L40.2459375,14.421875 L40.2459375,2.206875 L38.308125,2.206875 L38.308125,0.5 L44.9359375,0.5 C46.2346875,0.5 47.20375,0.5665625 48.2384375,0.876875 C51.21125,1.8078125 53.14875,4.5128125 53.14875,8.325625 C53.14875,12.1165625 51.2771875,14.7546875 48.2384375,15.73 C47.225625,16.0621875 46.190625,16.15125 44.9578125,16.15125 L38.308125,16.15125 L38.308125,14.421875 L38.308125,14.421875 Z M44.825625,14.333125 C45.8384375,14.333125 46.6753125,14.244375 47.4678125,13.934375 C49.559375,13.2025 50.85875,11.1853125 50.85875,8.325625 C50.85875,5.4434375 49.5596875,3.42625 47.4903125,2.6725 C46.6315625,2.3621875 45.83875,2.3178125 44.8259375,2.3178125 L42.4478125,2.3178125 L42.4478125,14.333125 L44.825625,14.333125 L44.825625,14.333125 Z" id="Shape"></path>
                    <path d="M53.924375,14.421875 L55.3771875,14.421875 L59.3846875,8.2365625 L55.4434375,2.206875 L54.011875,2.206875 L54.011875,0.5 L58.934375,0.5 L58.934375,2.2071875 L57.7771875,2.2071875 L60.3534375,6.3084375 C60.595625,6.6409375 60.7496875,6.9290625 60.7496875,6.9290625 L60.794375,6.9290625 C60.794375,6.9290625 60.9265625,6.6409375 61.168125,6.3084375 L63.6565625,2.2071875 L62.543125,2.2071875 L62.543125,0.5 L67.311875,0.5 L67.311875,2.2071875 L65.85875,2.2071875 L61.8290625,8.436875 L65.7928125,14.4221875 L67.268125,14.4221875 L67.268125,16.15125 L62.345625,16.15125 L62.345625,14.421875 L63.480625,14.421875 L60.8825,10.3425 C60.6403125,9.9878125 60.48625,9.6996875 60.48625,9.6996875 L60.4421875,9.6996875 C60.42,9.6996875 60.31,9.9878125 60.09,10.3425 L57.579375,14.421875 L58.715,14.421875 L58.715,16.1509375 L53.925,16.1509375 L53.925,14.421875 L53.924375,14.421875 Z" id="Shape"></path>
                </g>
            </g>
        </g>
    </g>
</svg>