<?xml version="1.0" encoding="UTF-8"?>
<svg width="130px" height="60px" viewBox="0 0 130 60" version="1.1" xmlns="http://www.w3.org/2000/svg" xmlns:xlink="http://www.w3.org/1999/xlink">
    <!-- Generator: Sketch 40.2 (33826) - http://www.bohemiancoding.com/sketch -->
    <title>logo_CMS</title>
    <desc>Created with Sketch.</desc>
    <defs>
        <linearGradient x1="50%" y1="79.1043536%" x2="50%" y2="0%" id="linearGradient-1">
            <stop stop-color="#04B6F0" offset="0%"></stop>
            <stop stop-color="#3ECAF0" offset="100%"></stop>
        </linearGradient>
    </defs>
    <g id="Page-1" stroke="none" stroke-width="1" fill="none" fill-rule="evenodd">
        <g id="Artboard" fill="url(#linearGradient-1)">
            <path d="M11.8947656,31.1614844 C11.8947656,32.9539844 11.3617969,34.4638281 10.2921094,35.6860937 C9.17578125,36.9667187 7.72523438,37.6096094 5.94960938,37.6096094 C4.16929688,37.6096094 2.7234375,36.9667187 1.60710938,35.6860937 C0.536953125,34.4638281 0,32.9539844 0,31.1614844 C0,29.3640625 0.536953125,27.8546875 1.60710938,26.636875 C2.73585938,25.3682031 4.18640625,24.7342188 5.94960938,24.7342188 C7.72523438,24.7342188 9.17578125,25.3682031 10.2921094,26.636875 C11.3617969,27.8546875 11.8947656,29.3640625 11.8947656,31.1614844 L11.8947656,31.1614844 L11.8947656,31.1614844 Z M8.35945312,31.1614844 C8.35945312,30.3496094 8.16515625,29.6642969 7.77609375,29.1102344 C7.34085937,28.4804688 6.73171875,28.1675781 5.94960937,28.1675781 C5.16726562,28.1675781 4.55835938,28.4804688 4.12265625,29.1102344 C3.72960937,29.6642969 3.53507813,30.3496094 3.53507813,31.1614844 C3.53507813,31.9689062 3.72960937,32.6624219 4.12265625,33.233125 C4.55835938,33.8628906 5.16726562,34.17625 5.94960937,34.17625 C6.73171875,34.17625 7.34085937,33.8628906 7.77609375,33.233125 C8.16515625,32.6624219 8.35945312,31.9689062 8.35945312,31.1614844 L8.35945312,31.1614844 Z M24.6773438,31.1614844 C24.6773438,32.8358594 24.1952344,34.2988281 23.2267969,35.5503906 C22.1908594,36.9203125 20.8546875,37.6096094 19.2309375,37.6096094 C18.0848438,37.6096094 17.1126563,37.275625 16.3176563,36.6160938 C16.3176563,36.7679688 16.3345313,37.1359375 16.3685156,37.7242188 C16.4022656,38.3155469 16.4189063,38.7976563 16.4189063,39.1782813 C16.4189063,41.2803906 15.793125,42.32875 14.5417969,42.32875 C14.0299219,42.32875 13.6115625,42.146875 13.2773438,41.7873438 C12.9475781,41.4240625 12.7825781,40.9876563 12.7825781,40.4725 L12.7825781,26.801875 C12.7825781,26.3028906 12.9517969,25.8714062 13.29,25.508125 C13.6282031,25.1485937 14.0470313,24.9671875 14.5460156,24.9671875 C15.2983594,24.9671875 15.8482031,25.3426563 16.1950781,26.0917188 C16.935,25.1867969 17.945625,24.7342188 19.2267188,24.7342188 C20.8546875,24.7342188 22.1866406,25.4103906 23.2267969,26.768125 C24.1910156,28.0241406 24.6773438,29.4871094 24.6773438,31.1614844 L24.6773438,31.1614844 Z M21.1420312,31.1614844 C21.1420312,30.3496094 20.94375,29.6642969 20.5546875,29.1102344 C20.11875,28.4804688 19.5100781,28.1675781 18.7277344,28.1675781 C17.945625,28.1675781 17.3367187,28.4804688 16.9010156,29.1102344 C16.5119531,29.6642969 16.3176562,30.3496094 16.3176562,31.1614844 C16.3176562,31.9689062 16.5119531,32.6624219 16.9010156,33.233125 C17.3367187,33.8628906 17.945625,34.17625 18.7277344,34.17625 C19.5100781,34.17625 20.11875,33.8628906 20.5546875,33.233125 C20.94375,32.6624219 21.1420312,31.9689062 21.1420312,31.1614844 L21.1420312,31.1614844 Z M37.5400781,30.7813281 C37.5400781,31.3726562 37.4003906,31.7785937 37.12125,32.0073438 C36.8423438,32.2311719 36.406875,32.3453125 35.8190625,32.3453125 L29.4382031,32.3453125 C29.4382031,33.0219531 29.7555469,33.5417969 30.3897656,33.9050781 C30.9014063,34.1889063 31.5271875,34.3330469 32.2671094,34.3330469 C32.8425,34.3330469 33.5315625,34.1420312 34.3392188,33.7663281 C35.146875,33.3854688 35.6667188,33.1991406 35.89125,33.1991406 C36.3011719,33.1991406 36.6478125,33.3472656 36.9353906,33.6517188 C37.2185156,33.9521875 37.3626563,34.3157031 37.3626563,34.7345313 C37.3626563,35.7022656 36.6396094,36.4557813 35.1930469,36.9967187 C34.0896094,37.4024219 32.9690625,37.6096094 31.8234375,37.6096094 C29.9798438,37.6096094 28.4913281,36.9967187 27.3539063,35.7749219 C26.21625,34.5526562 25.6457813,33.0177344 25.6457813,31.1614844 C25.6457813,29.3935938 26.2375781,27.8842187 27.4214063,26.6246875 C28.6010156,25.3639844 30.0686719,24.7342188 31.8189844,24.7342188 C33.4469531,24.7342188 34.8084375,25.3304688 35.8996875,26.5227344 C36.9902344,27.7154687 37.5400781,29.1360156 37.5400781,30.7813281 L37.5400781,30.7813281 Z M34.0052344,29.8928125 C33.988125,29.3514063 33.73875,28.8610938 33.2566406,28.4167188 C32.7745313,27.9730469 32.263125,27.7534375 31.7217188,27.7534375 C31.1636719,27.7534375 30.6433594,27.9730469 30.1614844,28.4167188 C29.6796094,28.8610938 29.4382031,29.3514063 29.4382031,29.8928125 L34.0052344,29.8928125 L34.0052344,29.8928125 Z M49.4177344,35.5203906 C49.4177344,36.0367187 49.2527344,36.4719531 48.9232031,36.8357031 C48.5889844,37.1954688 48.1703906,37.3773438 47.65875,37.3773438 C46.4240625,37.3773438 45.8064844,36.39625 45.8064844,34.4385156 C45.8064844,34.0621094 45.8320313,33.4703125 45.8826563,32.6542187 C45.9377344,31.8421094 45.9632813,31.2460938 45.9632813,30.8696875 C45.9632813,28.793125 45.2908594,27.7534375 43.9504688,27.7534375 C42.6098438,27.7534375 41.941875,28.793125 41.941875,30.8696875 C41.941875,31.2460938 41.9629688,31.8421094 42.0009375,32.6542187 C42.0433594,33.4703125 42.0644531,34.0621094 42.0644531,34.4385156 C42.0644531,36.39625 41.4555469,37.3773438 40.2379688,37.3773438 C39.7260938,37.3773438 39.3077344,37.1954688 38.9777344,36.8357031 C38.64375,36.4719531 38.47875,36.0367187 38.47875,35.5203906 L38.47875,26.798125 C38.47875,26.2855469 38.64375,25.8507813 38.9777344,25.4996875 C39.3077344,25.144375 39.7305469,24.9671875 40.2421875,24.9671875 C41.0878125,24.9671875 41.6753906,25.3426563 42.0051563,26.0917188 C42.5760938,25.1867969 43.5864844,24.7342188 45.0328125,24.7342188 C46.3732031,24.7342188 47.4389063,25.0890625 48.2210156,25.7952344 C49.0202344,26.5527344 49.4177344,27.5924219 49.4177344,28.9161719 L49.4177344,35.5203906 L49.4177344,35.5203906 Z M60.5083594,35.1446875 C60.5083594,35.9436719 59.9894531,36.5776563 58.9485938,37.0433594 C58.1200781,37.4192969 57.2449219,37.6096094 56.3228906,37.6096094 C54.5423438,37.6096094 53.0964844,36.9667187 51.9801563,35.6860937 C50.9104687,34.4638281 50.3735156,32.9539844 50.3735156,31.1614844 C50.3735156,29.3640625 50.9189063,27.8464844 52.0139063,26.603125 C53.1091406,25.3560156 54.5423438,24.7342188 56.3228906,24.7342188 C57.3503906,24.7342188 58.2342188,24.8863281 58.9701563,25.1867969 C59.9969531,25.5927344 60.5083594,26.2267187 60.5083594,27.0894531 C60.5083594,27.5246875 60.3738281,27.9095313 60.1026563,28.24375 C59.8324219,28.5735156 59.4853125,28.7427344 59.0627344,28.7427344 C58.7746875,28.7427344 58.3605469,28.6454687 57.819375,28.455625 C57.2784375,28.260625 56.8474219,28.1675781 56.5303125,28.1675781 C55.6886719,28.1675781 55.033125,28.4678125 54.5639063,29.0680469 C54.1279688,29.6094531 53.9083594,30.3029687 53.9083594,31.1614844 C53.9083594,31.9689062 54.1028906,32.6542187 54.4964063,33.2080469 C54.9314063,33.8551563 55.5447656,34.17625 56.326875,34.17625 C56.6739844,34.17625 57.1471875,34.0747656 57.7516406,33.8671094 C58.3567969,33.6648438 58.7925,33.5591406 59.0627344,33.5591406 C59.4564844,33.5591406 59.7939844,33.7278906 60.0820313,34.0578906 C60.3653906,34.391875 60.5083594,34.7509375 60.5083594,35.1446875 L60.5083594,35.1446875 Z M73.3589063,35.5203906 C73.3589063,36.0367187 73.194375,36.4719531 72.8641406,36.8357031 C72.5303906,37.1954687 72.1078125,37.3773437 71.5952344,37.3773437 C70.8257813,37.3773437 70.2766406,37.0007031 69.9466406,36.2523437 C69.2069531,37.1575 68.1960938,37.6096094 66.915,37.6096094 C65.2748438,37.6096094 63.93,36.9203125 62.8891406,35.5503906 C61.9420312,34.2988281 61.4650781,32.8358594 61.4650781,31.1614844 C61.4650781,29.4871094 61.9420312,28.0241406 62.8891406,26.768125 C63.946875,25.4103906 65.2870312,24.7342188 66.915,24.7342188 C68.1960938,24.7342188 69.2069531,25.1867969 69.9466406,26.0917187 C70.2766406,25.3426563 70.8257813,24.9671875 71.5952344,24.9671875 C72.0946875,24.9671875 72.5135156,25.1485937 72.8521875,25.508125 C73.1896875,25.8714062 73.3589063,26.2986719 73.3589063,26.798125 L73.3589063,35.5203906 L73.3589063,35.5203906 Z M69.8240625,31.1614844 C69.8240625,30.3496094 69.6297656,29.6642969 69.2407031,29.1102344 C68.788125,28.4804688 68.1792188,28.1675781 67.4142188,28.1675781 C66.6316406,28.1675781 66.0229687,28.4804688 65.5870312,29.1102344 C65.1944531,29.6642969 64.9999219,30.3496094 64.9999219,31.1614844 C64.9999219,31.9689062 65.1895312,32.6624219 65.5657031,33.233125 C66.0145312,33.8628906 66.6316406,34.17625 67.4142188,34.17625 C68.1960938,34.17625 68.8047656,33.8628906 69.2407031,33.233125 C69.6297656,32.6624219 69.8240625,31.9689062 69.8240625,31.1614844 L69.8240625,31.1614844 Z M82.3783594,26.5649219 C82.3783594,27.3217188 82.010625,27.8417969 81.2746875,28.1249219 C80.5940625,28.3536719 79.9169531,28.5866406 79.2410156,28.826875 C78.5003906,29.2501562 78.1326562,30.0364844 78.1326562,31.1783594 L78.1326562,35.5203906 C78.1326562,36.0367187 77.9634375,36.4719531 77.634375,36.8357031 C77.2996875,37.1954688 76.876875,37.3773438 76.3654688,37.3773438 C75.8500781,37.3773438 75.4265625,37.1954688 75.0972656,36.8357031 C74.7625781,36.4719531 74.5980469,36.0367187 74.5980469,35.5203906 L74.5980469,26.798125 C74.5980469,26.2855469 74.7625781,25.8507813 75.0925781,25.4996875 C75.4265625,25.144375 75.8500781,24.9671875 76.3617188,24.9671875 C77.206875,24.9671875 77.7942188,25.3426563 78.1244531,26.0917188 C78.8817188,25.1867969 79.6935938,24.7342188 80.56875,24.7342188 C81.0672656,24.7342188 81.4945312,24.915625 81.8498438,25.2751563 C82.2004687,25.6389062 82.3783594,26.0701563 82.3783594,26.5649219 L82.3783594,26.5649219 Z M91.6005469,26.7257031 C91.6005469,27.5120312 91.291875,28.0067969 90.6794531,28.2186719 C90.3782813,28.3241406 89.7480469,28.3789844 88.7885156,28.3789844 L88.7885156,35.5203906 C88.7885156,36.0367187 88.6192969,36.4719531 88.2902344,36.8357031 C87.9553125,37.1954688 87.5327344,37.3773438 87.0210938,37.3773438 C86.5228125,37.3773438 86.0990625,37.1954688 85.760625,36.8357031 C85.423125,36.4719531 85.2536719,36.0367187 85.2536719,35.5203906 L85.2536719,28.3789844 C84.5261719,28.3789844 83.9978906,28.2859375 83.6641406,28.1045313 C83.2078125,27.8507031 82.9823438,27.3896875 82.9823438,26.7257031 C82.9823438,26.0621875 83.2153125,25.6096094 83.6845313,25.3682031 C84.0016406,25.1905469 84.5261719,25.0979687 85.2536719,25.0979687 L85.2536719,23.5841406 C85.2536719,21.8040625 85.8410156,20.91625 87.0210938,20.91625 C88.1967188,20.91625 88.7885156,21.8040625 88.7885156,23.5841406 L88.7885156,25.0979687 C89.7480469,25.0979687 90.3782813,25.1528125 90.6794531,25.2582812 C91.291875,25.4696875 91.6005469,25.9607031 91.6005469,26.7257031 L91.6005469,26.7257031 Z M120,24.5784972 C119.990359,23.4931386 117.984835,23.0005469 112.793203,23.0005469 C100.611328,23.0005469 97.5208594,22.4802344 94.2133594,19 C95.6046094,21.0896875 96.3658594,25.0091406 109.241719,24.8141406 C122.675625,24.6071875 114.480234,28.2779687 112.095703,32.4252344 C116.395723,28.5871699 119.987084,26.0573642 120,24.5942826 L120,24.5784966 L120,24.5784972 L120,24.5784972 Z M102.881953,35.7238281 C102.881953,36.7389062 102.058125,37.5629687 101.042578,37.5629687 C100.023281,37.5629687 99.1992188,36.7389062 99.1992188,35.7238281 C99.1992188,34.7045313 100.023281,33.8802344 101.042578,33.8802344 C102.058125,33.8802344 102.881953,34.7045313 102.881953,35.7238281 L102.881953,35.7238281 Z M111.270937,35.7238281 C111.270937,36.7389062 110.447109,37.5629687 109.431562,37.5629687 C108.413203,37.5629687 107.588437,36.7389062 107.588437,35.7238281 C107.588437,34.7045313 108.413203,33.8802344 109.431562,33.8802344 C110.447109,33.8802344 111.270937,34.7045313 111.270937,35.7238281 L111.270937,35.7238281 Z" id="Opencart"></path>
        </g>
    </g>
</svg>