<?xml version="1.0" encoding="UTF-8"?>
<svg width="130px" height="60px" viewBox="0 0 130 60" version="1.1" xmlns="http://www.w3.org/2000/svg" xmlns:xlink="http://www.w3.org/1999/xlink">
    <!-- Generator: Sketch 40.2 (33826) - http://www.bohemiancoding.com/sketch -->
    <title>logo_CMS</title>
    <desc>Created with Sketch.</desc>
    <defs>
        <polygon id="path-1" points="0 19.8 104.778 19.8 104.778 0.5514 0 0.5514"></polygon>
    </defs>
    <g id="Page-1" stroke="none" stroke-width="1" fill="none" fill-rule="evenodd">
        <g id="Artboard">
            <g id="oscommerce" transform="translate(0.000000, 20.000000)">
                <path d="M6.6294,0.59976 C4.6992,0.59976 3.1344,2.16516 3.1344,4.09476 L3.1344,4.09476 C3.1344,6.02616 4.6992,7.59036 6.6294,7.59036 L6.6294,7.59036 C8.5602,7.59036 10.125,6.02616 10.125,4.09476 L10.125,4.09476 C10.125,2.16516 8.5602,0.59976 6.6294,0.59976 L6.6294,0.59976 Z" id="Fill-1" fill="#EE001D"></path>
                <g id="Group-11" transform="translate(6.600000, 1.248360)" fill="#FEFEFE">
                    <path d="M2.80284,2.4885 C2.43084,2.8611 1.62324,2.6565 0.99864,2.0325 C0.37584,1.4091 0.17124,0.6015 0.54384,0.2289 C0.91524,-0.1425 1.72344,0.0615 2.34684,0.6849 C2.97084,1.3095 3.17484,2.1165 2.80284,2.4885" id="Fill-3"></path>
                    <path d="M2.49348,2.09412 C2.23728,2.35092 1.68108,2.20992 1.25148,1.78032 C0.82188,1.35132 0.68148,0.79512 0.93828,0.53832 C1.19388,0.28272 1.75008,0.42312 2.17968,0.85212 C2.60928,1.28232 2.74968,1.83792 2.49348,2.09412" id="Fill-5"></path>
                    <path d="M2.18436,1.7001 C2.04396,1.8405 1.73916,1.7631 1.50336,1.5279 C1.26876,1.2927 1.19196,0.9885 1.33236,0.8481 C1.47216,0.7083 1.77696,0.7851 2.01156,1.0197 C2.24736,1.2555 2.32416,1.5597 2.18436,1.7001" id="Fill-7"></path>
                    <path d="M1.875,1.30578 C1.8504,1.33098 1.797,1.31718 1.7562,1.27578 C1.7148,1.23498 1.7016,1.18218 1.7262,1.15698 C1.7502,1.13298 1.8036,1.14618 1.8444,1.18758 C1.8858,1.22838 1.899,1.28118 1.875,1.30578" id="Fill-9"></path>
                </g>
                <path d="M5.2236,7.38996 C5.2236,9.85356 7.2204,11.85036 9.6834,11.85036 L9.6834,11.85036 C12.147,11.85036 14.1432,9.85356 14.1432,7.38996 L14.1432,7.38996 C14.1432,4.92696 12.147,2.93016 9.6834,2.93016 L9.6834,2.93016 C7.2204,2.93016 5.2236,4.92696 5.2236,7.38996" id="Fill-12" fill="#4990E2"></path>
                <g id="Group-24" transform="translate(9.600000, 3.648360)" fill="#FEFEFE">
                    <path d="M3.62196,3.28386 C3.14676,3.75906 2.11656,3.49926 1.31976,2.70246 C0.52476,1.90746 0.26436,0.87666 0.73956,0.40206 C1.21416,-0.07254 2.24496,0.18726 3.03996,0.98286 C3.83616,1.77966 4.09716,2.80926 3.62196,3.28386" id="Fill-14"></path>
                    <path d="M3.3258,2.90682 C2.9622,3.27102 2.172,3.07182 1.5618,2.46102 C0.9522,1.85142 0.7524,1.06182 1.1166,0.69762 C1.4802,0.33402 2.2704,0.53322 2.88,1.14342 C3.4896,1.75422 3.6894,2.54322 3.3258,2.90682" id="Fill-16"></path>
                    <path d="M3.02988,2.52948 C2.77668,2.78328 2.22768,2.64408 1.80348,2.21988 C1.37928,1.79568 1.24068,1.24728 1.49388,0.99348 C1.74648,0.74148 2.29608,0.87948 2.71968,1.30368 C3.14388,1.72788 3.28248,2.27688 3.02988,2.52948" id="Fill-18"></path>
                    <path d="M2.73402,2.15244 C2.59182,2.29524 2.28342,2.21664 2.04522,1.97844 C1.80702,1.74024 1.72902,1.43244 1.87122,1.29024 C2.01282,1.14804 2.32182,1.22604 2.55942,1.46364 C2.79762,1.70244 2.87562,2.01084 2.73402,2.15244" id="Fill-20"></path>
                    <path d="M2.4378,1.7754 C2.4066,1.8072 2.3388,1.7892 2.2866,1.7376 C2.2344,1.6848 2.217,1.6176 2.2488,1.5858 C2.2794,1.5552 2.3472,1.572 2.3994,1.6242 C2.4516,1.6764 2.4684,1.7442 2.4378,1.7754" id="Fill-22"></path>
                </g>
                <path d="M0,11.56896 C0,14.65416 2.5002,17.15376 5.5854,17.15376 L5.5854,17.15376 C8.6694,17.15376 11.1702,14.65416 11.1702,11.56896 L11.1702,11.56896 C11.1702,8.48436 8.6694,5.98416 5.5854,5.98416 L5.5854,5.98416 C2.5002,5.98416 0,8.48436 0,11.56896" id="Fill-25" fill="#7ED321"></path>
                <g id="Group-92" transform="translate(0.000000, 0.048360)">
                    <g id="Group-39" transform="translate(6.000000, 6.600000)" fill="#FEFEFE">
                        <path d="M4.01604,4.34766 C3.42144,4.94226 2.13084,4.61646 1.13364,3.61926 C0.13764,2.62326 -0.18816,1.33326 0.40644,0.73806 C1.00104,0.14346 2.29104,0.46986 3.28704,1.46586 C4.28484,2.46306 4.61064,3.75366 4.01604,4.34766" id="Fill-27"></path>
                        <path d="M3.71952,3.96972 C3.23592,4.45332 2.18652,4.18812 1.37532,3.37752 C0.56592,2.56752 0.30072,1.51872 0.78432,1.03452 C1.26792,0.55152 2.31732,0.81672 3.12672,1.62612 C3.93792,2.43732 4.20252,3.48672 3.71952,3.96972" id="Fill-29"></path>
                        <path d="M3.42306,3.59178 C3.05046,3.96438 2.24226,3.76038 1.61766,3.13578 C0.99426,2.51178 0.78966,1.70418 1.16226,1.33098 C1.53426,0.95898 2.34306,1.16298 2.96646,1.78698 C3.59106,2.41158 3.79506,3.21978 3.42306,3.59178" id="Fill-31"></path>
                        <path d="M3.1263,3.21384 C2.8647,3.47544 2.2983,3.33204 1.8597,2.89404 C1.4223,2.45664 1.2789,1.88904 1.5399,1.62744 C1.8015,1.36644 2.3685,1.50984 2.8059,1.94784 C3.2445,2.38584 3.3873,2.95284 3.1263,3.21384" id="Fill-33"></path>
                        <path d="M2.82978,2.83596 C2.67978,2.98656 2.35398,2.90436 2.10198,2.65236 C1.85058,2.40096 1.76778,2.07456 1.91778,1.92396 C2.06778,1.77396 2.39418,1.85676 2.64558,2.10816 C2.89758,2.36016 2.97978,2.68656 2.82978,2.83596" id="Fill-35"></path>
                        <path d="M2.53332,2.45802 C2.49432,2.49762 2.40912,2.47602 2.34372,2.41062 C2.27832,2.34522 2.25672,2.26002 2.29572,2.22042 C2.33472,2.18202 2.41992,2.20362 2.48472,2.26902 C2.55072,2.33442 2.57172,2.41962 2.53332,2.45802" id="Fill-37"></path>
                    </g>
                    <path d="M22.60314,9.92724 C22.60314,8.42964 21.38454,7.21164 19.88754,7.21164 C18.39054,7.21164 17.17194,8.42964 17.17194,9.92724 L17.17194,12.30864 C17.17194,13.80624 18.39054,15.02484 19.88754,15.02484 C21.38454,15.02484 22.60314,13.80624 22.60314,12.30864 L22.60314,9.92724 Z M21.87954,12.30864 C21.87954,13.40784 20.98614,14.30184 19.88754,14.30184 C18.78894,14.30184 17.89554,13.40784 17.89554,12.30864 L17.89554,9.92724 C17.89554,8.82864 18.78894,7.93524 19.88754,7.93524 C20.98614,7.93524 21.87954,8.82864 21.87954,9.92724 L21.87954,12.30864 Z" id="Fill-40" fill="#A3A9B2"></path>
                    <path d="M44.26524,8.79612 C44.26524,6.98892 42.73044,5.51832 40.84404,5.51832 C38.95824,5.51832 37.42344,6.98892 37.42344,8.79612 L37.42344,11.74692 C37.42344,13.55412 38.95824,15.02472 40.84404,15.02472 C42.73044,15.02472 44.26524,13.55412 44.26524,11.74692 L44.26524,8.79612 Z M43.54164,11.74692 C43.54164,13.15512 42.33204,14.30172 40.84404,14.30172 C39.35664,14.30172 38.14644,13.15512 38.14644,11.74692 L38.14644,8.79612 C38.14644,7.38732 39.35664,6.24132 40.84404,6.24132 C42.33204,6.24132 43.54164,7.38732 43.54164,8.79612 L43.54164,11.74692 Z" id="Fill-42" fill="#201300"></path>
                    <path d="M35.1888,13.7238 C34.7448,14.0862 34.2006,14.3016 33.612,14.3016 C32.124,14.3016 30.9138,12.9396 30.9138,11.2662 L30.9138,7.8306 C30.9138,6.1572 32.124,4.7964 33.612,4.7964 C34.224,4.7964 34.788,5.0292 35.241,5.4174 C35.481,5.2968 35.739,5.2074 36.0108,5.1552 C35.3928,4.4868 34.5456,4.0728 33.612,4.0728 C31.7256,4.0728 30.1908,5.7588 30.1908,7.8306 L30.1908,11.2662 C30.1908,13.338 31.7256,15.0246 33.612,15.0246 C34.5174,15.0246 35.3388,14.6334 35.952,13.9998 C35.682,13.9434 35.4258,13.8486 35.1888,13.7238" id="Fill-44" fill="#201300"></path>
                    <path d="M55.64238,5.51838 C54.30318,5.51838 53.14398,6.26118 52.58238,7.33818 C52.02138,6.26118 50.86278,5.51838 49.52298,5.51838 C48.42678,5.51838 47.45238,6.01698 46.82538,6.78798 L46.82538,5.51838 L46.10238,5.51838 L46.10238,8.79618 L46.10238,15.02478 L46.82538,15.02478 L46.82538,8.79618 C46.82538,7.38738 48.03558,6.24138 49.52298,6.24138 C51.01098,6.24138 52.22118,7.38738 52.22118,8.79618 L52.22118,15.02478 L52.94418,15.02478 L52.94418,8.79618 C52.94418,7.38738 54.15438,6.24138 55.64238,6.24138 C57.12978,6.24138 58.33998,7.38738 58.33998,8.79618 L58.33998,15.02478 L59.06358,15.02478 L59.06358,8.79618 C59.06358,6.98898 57.52878,5.51838 55.64238,5.51838" id="Fill-46" fill="#201300"></path>
                    <path d="M70.10742,5.51838 C68.76822,5.51838 67.60962,6.26118 67.04742,7.33818 C66.48702,6.26118 65.32782,5.51838 63.98862,5.51838 C62.89182,5.51838 61.91682,6.01698 61.29042,6.78798 L61.29042,5.51838 L60.56802,5.51838 L60.56802,8.79618 L60.56802,15.02478 L61.29042,15.02478 L61.29042,8.79618 C61.29042,7.38738 62.50062,6.24138 63.98862,6.24138 C65.47602,6.24138 66.68622,7.38738 66.68622,8.79618 L66.68622,15.02478 L67.40982,15.02478 L67.40982,8.79618 C67.40982,7.38738 68.61942,6.24138 70.10742,6.24138 C71.59482,6.24138 72.80502,7.38738 72.80502,8.79618 L72.80502,15.02478 L73.52862,15.02478 L73.52862,8.79618 C73.52862,6.98898 71.99442,5.51838 70.10742,5.51838" id="Fill-48" fill="#201300"></path>
                    <path d="M80.04378,10.16454 L76.23738,10.16454 L76.23738,8.79594 C76.23738,7.38774 77.44818,6.24114 78.93558,6.24114 C80.40018,6.24114 81.59178,7.35234 81.63018,8.72934 C81.60138,9.95094 81.35118,10.16454 80.04378,10.16454 M82.35198,8.70294 C82.35438,8.61474 82.35678,8.52594 82.35678,8.43114 C82.35678,8.40174 82.33938,8.35854 82.31478,8.30874 C82.08078,6.81474 80.79378,5.64894 79.20138,5.53134 C79.15998,5.51754 79.11678,5.50074 79.07958,5.49234 L79.07958,5.52534 C79.03158,5.52294 78.98418,5.51814 78.93558,5.51814 C77.04978,5.51814 75.51498,6.98874 75.51498,8.79594 L75.51498,11.74674 C75.51498,13.55394 77.04978,15.02454 78.93558,15.02454 C79.75278,15.02454 80.60898,14.60694 81.10818,14.33334 C80.93418,14.16414 80.78958,13.96614 80.67438,13.74594 C80.29878,13.93434 79.65558,14.30154 78.93558,14.30154 C77.44818,14.30154 76.23738,13.15494 76.23738,11.74674 L76.23738,10.88874 L80.04378,10.88874 C81.72798,10.88874 82.28118,10.39074 82.34898,8.79594 L82.35678,8.79594 C82.35678,8.76474 82.35258,8.73414 82.35198,8.70294" id="Fill-50" fill="#201300"></path>
                    <path d="M102.46464,10.16454 L98.65824,10.16454 L98.65824,8.79594 C98.65824,7.38774 99.86904,6.24114 101.35644,6.24114 C102.82104,6.24114 104.01264,7.35234 104.05104,8.72934 C104.02224,9.95094 103.77204,10.16454 102.46464,10.16454 M104.77284,8.70294 C104.77524,8.61474 104.77764,8.52594 104.77764,8.43114 C104.77764,8.40174 104.75964,8.35854 104.73564,8.30874 C104.50104,6.81474 103.21464,5.64894 101.62164,5.53134 C101.58084,5.51754 101.53764,5.50074 101.50044,5.49234 L101.50044,5.52534 C101.45244,5.52294 101.40504,5.51814 101.35644,5.51814 C99.47004,5.51814 97.93584,6.98874 97.93584,8.79594 L97.93584,11.74674 C97.93584,13.55394 99.47004,15.02454 101.35644,15.02454 C102.17364,15.02454 103.02984,14.60694 103.52904,14.33334 C103.35504,14.16414 103.21044,13.96614 103.09524,13.74594 C102.71964,13.93434 102.07644,14.30154 101.35644,14.30154 C99.86904,14.30154 98.65824,13.15494 98.65824,11.74674 L98.65824,10.88874 L102.46464,10.88874 C104.14884,10.88874 104.70204,10.39074 104.76984,8.79594 L104.77764,8.79594 C104.77764,8.76474 104.77344,8.73414 104.77284,8.70294" id="Fill-52" fill="#201300"></path>
                    <path d="M95.43456,13.83282 C94.99596,14.12682 94.46076,14.30142 93.88296,14.30142 C92.39556,14.30142 91.18476,13.15482 91.18476,11.74662 L91.18476,8.79582 C91.18476,7.38762 92.39556,6.24162 93.88296,6.24162 C94.51596,6.24162 95.09736,6.45042 95.55816,6.79662 C95.74896,6.63702 95.95596,6.49542 96.17256,6.36762 C95.56596,5.84202 94.76436,5.51862 93.88296,5.51862 C91.99716,5.51862 90.46236,6.98862 90.46236,8.79582 L90.46236,11.74662 C90.46236,13.55382 91.99716,15.02442 93.88296,15.02442 C94.69896,15.02442 95.44716,14.74902 96.03576,14.29062 C95.82216,14.15442 95.62236,14.00082 95.43456,13.83282" id="Fill-54" fill="#201300"></path>
                    <path d="M87.61524,5.51838 C86.51904,5.51838 85.54404,6.01698 84.91704,6.78798 L84.91704,5.51838 L84.19344,5.51838 L84.19344,8.79618 L84.19344,15.02478 L84.91704,15.02478 L84.91704,8.79618 C84.91704,7.38738 86.12724,6.24138 87.61524,6.24138 C88.24824,6.24138 88.82904,6.45018 89.28984,6.79698 C89.48124,6.63678 89.68824,6.49578 89.90424,6.36798 C89.29764,5.84178 88.49604,5.51838 87.61524,5.51838" id="Fill-56" fill="#201300"></path>
                    <path d="M28.69716,12.77814 C28.69716,12.40734 28.51476,12.15654 28.37976,11.89314 C28.24356,11.62914 27.81636,11.25954 27.23856,11.06274 C26.63676,10.85814 27.02676,10.98954 26.11956,10.71714 C25.09356,10.38774 24.99036,10.25874 24.93096,10.21614 C24.65916,10.01574 24.53436,9.56574 24.53436,9.21774 C24.53436,8.88414 24.66576,8.60754 24.91476,8.38914 C25.26096,8.11614 25.70016,7.93494 26.15556,7.93494 C26.77716,7.93494 27.32556,8.22714 27.69156,8.67414 L28.56216,8.67414 C28.14036,7.86774 27.32616,7.30434 26.37456,7.22754 C26.37216,7.22754 26.36916,7.22694 26.36676,7.22694 C26.29656,7.22094 26.22756,7.21194 26.15556,7.21194 C26.13996,7.21194 26.12496,7.21494 26.10996,7.21554 C26.08476,7.21494 26.06196,7.21194 26.03676,7.21194 C25.31196,7.21194 24.80736,7.47114 24.40656,7.85394 C24.15636,8.09274 23.84616,8.66754 23.84256,8.67414 L23.84736,8.67414 C23.82816,8.72934 23.74356,9.12174 23.74356,9.27894 C23.74356,9.63354 23.81676,9.95274 23.96076,10.22754 C24.10536,10.50114 24.31056,10.72194 24.57216,10.88634 C24.84576,11.05794 25.41336,11.27394 26.25816,11.52894 C26.88036,11.71314 27.26856,11.86554 27.44376,11.99694 C27.71856,12.20514 27.96576,12.49854 27.96576,12.86814 C27.96576,13.05534 27.90696,13.22634 27.82056,13.38474 C27.52836,13.83714 27.06156,14.16294 26.51316,14.26494 C26.40516,14.27814 26.29116,14.28774 26.17116,14.28774 C25.93056,14.28774 25.71276,14.25234 25.51356,14.18934 C25.46736,14.17314 25.42116,14.15694 25.37676,14.13834 C25.34736,14.12514 25.31796,14.11074 25.28916,14.09694 C25.22496,14.06574 25.16136,14.03154 25.10136,13.99374 C25.03116,13.94754 24.96096,13.90014 24.89796,13.84374 C24.88836,13.83474 24.87996,13.83114 24.87036,13.82214 C24.66456,13.64574 24.49416,13.42734 24.37296,13.18074 L23.58636,13.18074 C23.84496,13.94034 24.43356,14.54394 25.17816,14.83434 C25.20216,14.84454 25.22616,14.85594 25.25136,14.86554 C25.33956,14.89734 25.43076,14.91894 25.52256,14.94054 C25.56456,14.95074 25.60176,14.96454 25.64616,14.97114 C25.81176,15.00294 25.98096,15.02454 26.15556,15.02454 C26.39616,15.02454 26.62536,14.98554 26.84736,14.92674 C27.29556,14.83074 27.67716,14.64774 27.97296,14.36574 C28.30836,14.04354 28.62636,13.58874 28.69236,13.27134 C28.72176,13.06134 28.69716,12.95094 28.69716,12.77814" id="Fill-58" fill="#A3A9B2"></path>
                    <path d="M39.17784,17.49846 C39.17784,17.86386 39.27624,18.15246 39.47244,18.36186 C39.66864,18.57246 39.91524,18.67746 40.21164,18.67746 C40.51344,18.67746 40.76244,18.57186 40.95684,18.35946 C41.15184,18.14706 41.24964,17.84586 41.24964,17.45526 C41.24964,17.20926 41.20824,16.99326 41.12484,16.80906 C41.04084,16.62546 40.91904,16.48266 40.75824,16.38066 C40.59804,16.27986 40.41744,16.22886 40.21764,16.22886 C39.93384,16.22886 39.68964,16.32666 39.48504,16.52166 C39.27984,16.71666 39.17784,17.04186 39.17784,17.49846 M38.76384,17.48946 C38.76384,16.98726 38.89884,16.59366 39.16884,16.30926 C39.43944,16.02426 39.78804,15.88266 40.21584,15.88266 C40.49604,15.88266 40.74804,15.94926 40.97304,16.08306 C41.19804,16.21626 41.36904,16.40286 41.48724,16.64166 C41.60484,16.88046 41.66424,17.15166 41.66424,17.45466 C41.66424,17.76186 41.60184,18.03666 41.47764,18.27906 C41.35344,18.52146 41.17764,18.70506 40.95024,18.82986 C40.72284,18.95526 40.47744,19.01646 40.21404,19.01646 C39.92784,19.01646 39.67284,18.94746 39.44844,18.81066 C39.22344,18.67266 39.05304,18.48426 38.93724,18.24606 C38.82144,18.00786 38.76384,17.75586 38.76384,17.48946" id="Fill-60" fill="#A3A9B2"></path>
                    <path d="M42.45762,17.87928 C42.45762,18.15888 42.51462,18.36588 42.62982,18.49908 C42.74442,18.63348 42.88242,18.70008 43.04562,18.70008 C43.21122,18.70008 43.35282,18.63048 43.47102,18.49248 C43.58862,18.35388 43.64802,18.13908 43.64802,17.84868 C43.64802,17.57208 43.59042,17.36448 43.47522,17.22708 C43.36002,17.08848 43.22202,17.02008 43.06242,17.02008 C42.90342,17.02008 42.76302,17.09268 42.64062,17.24088 C42.51882,17.38728 42.45762,17.59968 42.45762,17.87928 L42.45762,17.87928 Z M42.12582,19.79988 L42.12582,16.77108 L42.46542,16.77108 L42.46542,17.06328 C42.54522,16.95108 42.63522,16.86648 42.73602,16.81068 C42.83682,16.75488 42.95862,16.72608 43.10202,16.72608 C43.28922,16.72608 43.45482,16.77468 43.59822,16.87068 C43.74102,16.96668 43.84962,17.10168 43.92222,17.27628 C43.99542,17.45148 44.03262,17.64228 44.03262,17.85048 C44.03262,18.07428 43.99182,18.27588 43.91082,18.45528 C43.83042,18.63408 43.71282,18.77028 43.55922,18.86628 C43.40502,18.96168 43.24362,19.00908 43.07262,19.00908 C42.94842,19.00908 42.83742,18.98268 42.73842,18.92928 C42.64002,18.87708 42.55902,18.81048 42.49542,18.72948 L42.49542,19.79988 L42.12582,19.79988 Z" id="Fill-62" fill="#A3A9B2"></path>
                    <path d="M44.77062,17.65254 L45.99102,17.65254 C45.97422,17.47194 45.92802,17.33694 45.85122,17.24514 C45.73302,17.10534 45.58002,17.03514 45.39222,17.03514 C45.22182,17.03514 45.07902,17.09034 44.96262,17.20314 C44.84682,17.31534 44.78322,17.46534 44.77062,17.65254 M45.98682,18.24834 L46.37082,18.30054 C46.30962,18.52494 46.19802,18.69954 46.03422,18.82254 C45.87042,18.94674 45.66102,19.00914 45.40722,19.00914 C45.08682,19.00914 44.83302,18.91074 44.64522,18.71454 C44.45742,18.51654 44.36382,18.24054 44.36382,17.88594 C44.36382,17.51874 44.45862,17.23314 44.64822,17.03034 C44.83782,16.82754 45.08382,16.72614 45.38622,16.72614 C45.68022,16.72614 45.91902,16.82574 46.10442,17.02374 C46.28982,17.22294 46.38282,17.50314 46.38282,17.86314 C46.38282,17.88474 46.38282,17.91714 46.38042,17.96154 L44.74782,17.96154 C44.76162,18.20094 44.83002,18.38334 44.95182,18.50994 C45.07422,18.63654 45.22722,18.70014 45.40962,18.70014 C45.54582,18.70014 45.66222,18.66474 45.75822,18.59214 C45.85422,18.52014 45.93042,18.40614 45.98682,18.24834" id="Fill-64" fill="#A3A9B2"></path>
                    <path d="M46.83456,18.96384 L46.83456,16.77144 L47.16636,16.77144 L47.16636,17.08344 C47.32716,16.84524 47.55936,16.72644 47.86356,16.72644 C47.99616,16.72644 48.11676,16.74984 48.22836,16.79724 C48.33876,16.84524 48.42216,16.90704 48.47676,16.98384 C48.53136,17.06004 48.57036,17.15124 48.59196,17.25804 C48.60576,17.32644 48.61236,17.44704 48.61236,17.61864 L48.61236,18.96384 L48.24396,18.96384 L48.24396,17.63424 C48.24396,17.48364 48.22896,17.37084 48.20016,17.29644 C48.17136,17.22084 48.11976,17.16204 48.04656,17.11704 C47.97216,17.07264 47.88636,17.05044 47.78676,17.05044 C47.62836,17.05044 47.49156,17.10024 47.37636,17.20044 C47.26116,17.30064 47.20416,17.49084 47.20416,17.77044 L47.20416,18.96384 L46.83456,18.96384 Z" id="Fill-66" fill="#A3A9B2"></path>
                    <path d="M50.2764,17.99178 L50.6532,17.96118 C50.6712,18.11418 50.7126,18.23838 50.7774,18.33558 C50.8422,18.43278 50.943,18.51198 51.0798,18.57198 C51.2166,18.63258 51.3708,18.66198 51.5412,18.66198 C51.693,18.66198 51.8274,18.63978 51.9432,18.59418 C52.0602,18.54858 52.146,18.48558 52.203,18.40638 C52.26,18.32778 52.2882,18.24018 52.2882,18.14658 C52.2882,18.05178 52.2606,17.96718 52.2048,17.89698 C52.1496,17.82618 52.059,17.76558 51.933,17.71818 C51.8526,17.68578 51.6744,17.63658 51.3978,17.56998 C51.1212,17.50338 50.928,17.43978 50.817,17.37978 C50.673,17.30358 50.5662,17.20998 50.4954,17.09718 C50.4246,16.98498 50.3892,16.85838 50.3892,16.71858 C50.3892,16.56618 50.433,16.42278 50.5188,16.28958 C50.6052,16.15518 50.7312,16.05438 50.8974,15.98598 C51.063,15.91698 51.2472,15.88218 51.45,15.88218 C51.6732,15.88218 51.87,15.91878 52.0404,15.99018 C52.2114,16.06338 52.3422,16.16898 52.434,16.30938 C52.5264,16.45038 52.5756,16.60938 52.5822,16.78698 L52.1976,16.81638 C52.1772,16.62558 52.1082,16.48098 51.9894,16.38318 C51.8712,16.28598 51.6966,16.23618 51.465,16.23618 C51.225,16.23618 51.0492,16.28058 50.9388,16.37058 C50.8284,16.45878 50.7738,16.56678 50.7738,16.69218 C50.7738,16.80138 50.8128,16.89138 50.8908,16.96158 C50.9676,17.03178 51.1674,17.10438 51.4914,17.17878 C51.8142,17.25258 52.0368,17.31618 52.158,17.37198 C52.3332,17.45358 52.4634,17.55498 52.5468,17.68038 C52.6308,17.80458 52.6722,17.94798 52.6722,18.11058 C52.6722,18.27138 52.6266,18.42378 52.5348,18.56538 C52.4436,18.70758 52.3116,18.81858 52.1394,18.89778 C51.9678,18.97698 51.7746,19.01658 51.5604,19.01658 C51.2874,19.01658 51.0594,18.97698 50.8752,18.89658 C50.6904,18.81678 50.5464,18.69738 50.442,18.53658 C50.3376,18.37638 50.2824,18.19458 50.2764,17.99178" id="Fill-68" fill="#A3A9B2"></path>
                    <path d="M53.42694,17.86638 C53.42694,18.14478 53.48814,18.35358 53.60994,18.49158 C53.73114,18.63018 53.88474,18.70038 54.06894,18.70038 C54.25134,18.70038 54.40434,18.62958 54.52554,18.49098 C54.64674,18.35178 54.70734,18.13998 54.70734,17.85438 C54.70734,17.58558 54.64674,17.38098 54.52434,17.24298 C54.40254,17.10378 54.25014,17.03478 54.06894,17.03478 C53.88474,17.03478 53.73114,17.10378 53.60994,17.24178 C53.48814,17.37978 53.42694,17.58798 53.42694,17.86638 M53.04294,17.86758 C53.04294,17.46258 53.15514,17.16378 53.38074,16.96878 C53.56854,16.80738 53.79774,16.72638 54.06894,16.72638 C54.36954,16.72638 54.61494,16.82478 54.80634,17.02158 C54.99654,17.21838 55.09134,17.48958 55.09134,17.83578 C55.09134,18.11778 55.05054,18.33858 54.96534,18.49998 C54.88134,18.66078 54.75894,18.78618 54.59694,18.87558 C54.43614,18.96438 54.25974,19.00878 54.06894,19.00878 C53.76294,19.00878 53.51454,18.91098 53.32614,18.71478 C53.13774,18.51918 53.04294,18.23598 53.04294,17.86758" id="Fill-70" fill="#A3A9B2"></path>
                    <path d="M56.96778,18.96384 L56.96778,18.64104 C56.79738,18.88584 56.56458,19.00884 56.27118,19.00884 C56.14218,19.00884 56.02098,18.98364 55.90878,18.93444 C55.79658,18.88524 55.71318,18.82284 55.65858,18.74844 C55.60458,18.67344 55.56558,18.58104 55.54398,18.47364 C55.52898,18.40044 55.52178,18.28464 55.52178,18.12624 L55.52178,16.77144 L55.89078,16.77144 L55.89078,17.98704 C55.89078,18.18084 55.89798,18.31164 55.91298,18.37884 C55.93638,18.47664 55.98618,18.55344 56.06298,18.60864 C56.13858,18.66504 56.23278,18.69204 56.34558,18.69204 C56.45718,18.69204 56.56158,18.66444 56.65998,18.60684 C56.75838,18.54984 56.82798,18.47244 56.86938,18.37404 C56.90958,18.27564 56.93058,18.13284 56.93058,17.94564 L56.93058,16.77144 L57.30018,16.77144 L57.30018,18.96384 L56.96778,18.96384 Z" id="Fill-72" fill="#A3A9B2"></path>
                    <path d="M57.87186,18.96384 L57.87186,16.77144 L58.20366,16.77144 L58.20366,17.10744 C58.28946,16.95264 58.36806,16.85004 58.44006,16.80024 C58.51326,16.75104 58.59246,16.72644 58.68006,16.72644 C58.80546,16.72644 58.93266,16.76484 59.06226,16.84284 L58.93026,17.18364 C58.84026,17.13444 58.74966,17.11044 58.65906,17.11044 C58.57866,17.11044 58.50606,17.13444 58.44126,17.18304 C58.37766,17.23224 58.33146,17.30004 58.30446,17.38644 C58.26126,17.51844 58.24086,17.66244 58.24086,17.81844 L58.24086,18.96384 L57.87186,18.96384 Z" id="Fill-74" fill="#A3A9B2"></path>
                    <path d="M60.726,18.15762 L61.0878,18.21102 C61.0476,18.46002 60.945,18.65562 60.7806,18.79662 C60.6156,18.93882 60.4128,19.00902 60.1728,19.00902 C59.8722,19.00902 59.631,18.91182 59.448,18.71682 C59.265,18.52062 59.1744,18.24042 59.1744,17.87562 C59.1744,17.64042 59.2134,17.43402 59.2914,17.25702 C59.3706,17.08002 59.4894,16.94682 59.6502,16.85862 C59.811,16.77042 59.9856,16.72602 60.174,16.72602 C60.4128,16.72602 60.6072,16.78722 60.7584,16.90662 C60.9102,17.02662 61.0074,17.19762 61.0494,17.41962 L60.6888,17.47182 C60.654,17.32662 60.5928,17.21862 60.5058,17.14542 C60.4182,17.07162 60.3132,17.03502 60.189,17.03502 C60.0024,17.03502 59.85,17.10162 59.7336,17.23422 C59.6166,17.36742 59.5584,17.57802 59.5584,17.86542 C59.5584,18.15702 59.6148,18.37002 59.7282,18.50202 C59.8416,18.63402 59.9892,18.70002 60.1722,18.70002 C60.3186,18.70002 60.441,18.65562 60.5388,18.56742 C60.6378,18.47802 60.6996,18.34242 60.726,18.15762" id="Fill-76" fill="#A3A9B2"></path>
                    <path d="M61.6869,17.65254 L62.9067,17.65254 C62.8905,17.47194 62.8437,17.33694 62.7675,17.24514 C62.6493,17.10534 62.4963,17.03514 62.3079,17.03514 C62.1381,17.03514 61.9953,17.09034 61.8789,17.20314 C61.7631,17.31534 61.6995,17.46534 61.6869,17.65254 M62.9025,18.24834 L63.2865,18.30054 C63.2253,18.52494 63.1137,18.69954 62.9499,18.82254 C62.7867,18.94674 62.5773,19.00914 62.3235,19.00914 C62.0025,19.00914 61.7493,18.91074 61.5615,18.71454 C61.3731,18.51654 61.2795,18.24054 61.2795,17.88594 C61.2795,17.51874 61.3743,17.23314 61.5639,17.03034 C61.7535,16.82754 61.9995,16.72614 62.3025,16.72614 C62.5959,16.72614 62.8353,16.82574 63.0207,17.02374 C63.2061,17.22294 63.2991,17.50314 63.2991,17.86314 C63.2991,17.88474 63.2991,17.91714 63.2967,17.96154 L61.6635,17.96154 C61.6773,18.20094 61.7451,18.38334 61.8681,18.50994 C61.9905,18.63654 62.1429,18.70014 62.3253,18.70014 C62.4615,18.70014 62.5779,18.66474 62.6745,18.59214 C62.7705,18.52014 62.8467,18.40614 62.9025,18.24834" id="Fill-78" fill="#A3A9B2"></path>
                    <polygon id="Fill-80" fill="#A3A9B2" points="64.98576 18.96384 64.98576 15.93504 67.17036 15.93504 67.17036 16.28964 65.38476 16.28964 65.38476 17.22324 67.05756 17.22324 67.05756 17.57664 65.38476 17.57664 65.38476 18.60924 67.23816 18.60924 67.23816 18.96384"></polygon>
                    <mask id="mask-2" fill="white">
                        <use xlink:href="#path-1"></use>
                    </mask>
                    <g id="Clip-83"></g>
                    <polygon id="Fill-82" fill="#A3A9B2" mask="url(#mask-2)" points="67.6008 18.0528 68.754 18.0528 68.754 17.6754 67.6008 17.6754"></polygon>
                    <path d="M71.35956,17.90448 L71.75796,18.00528 C71.67396,18.33408 71.52336,18.58548 71.30496,18.75768 C71.08776,18.93048 70.82136,19.01688 70.50576,19.01688 C70.17936,19.01688 69.91416,18.94968 69.71016,18.81708 C69.50556,18.68388 69.35016,18.49188 69.24396,18.23928 C69.13716,17.98728 69.08376,17.71608 69.08376,17.42688 C69.08376,17.11128 69.14436,16.83648 69.26436,16.60068 C69.38496,16.36668 69.55596,16.18728 69.77796,16.06548 C69.99996,15.94248 70.24476,15.88248 70.51116,15.88248 C70.81416,15.88248 71.06856,15.95868 71.27436,16.11348 C71.48016,16.26708 71.62416,16.48428 71.70576,16.76268 L71.31396,16.85628 C71.24436,16.63488 71.14176,16.47348 71.00796,16.37328 C70.87476,16.27188 70.70736,16.22148 70.50516,16.22148 C70.27296,16.22148 70.07856,16.27728 69.92196,16.38948 C69.76596,16.50168 69.65676,16.65168 69.59316,16.84068 C69.53016,17.02968 69.49836,17.22408 69.49836,17.42448 C69.49836,17.68308 69.53556,17.90928 69.61116,18.10128 C69.68556,18.29448 69.80136,18.43908 69.95976,18.53448 C70.11876,18.62988 70.29036,18.67728 70.47396,18.67728 C70.69836,18.67728 70.88796,18.61248 71.04336,18.48228 C71.19816,18.35268 71.30376,18.15948 71.35956,17.90448" id="Fill-84" fill="#A3A9B2" mask="url(#mask-2)"></path>
                    <path d="M72.45234,17.86638 C72.45234,18.14478 72.51354,18.35358 72.63534,18.49158 C72.75594,18.63018 72.91014,18.70038 73.09374,18.70038 C73.27674,18.70038 73.42914,18.62958 73.55094,18.49098 C73.67274,18.35178 73.73394,18.13998 73.73394,17.85438 C73.73394,17.58558 73.67214,17.38098 73.54974,17.24298 C73.42794,17.10378 73.27554,17.03478 73.09374,17.03478 C72.91014,17.03478 72.75594,17.10378 72.63534,17.24178 C72.51354,17.37978 72.45234,17.58798 72.45234,17.86638 M72.06834,17.86758 C72.06834,17.46258 72.18114,17.16378 72.40554,16.96878 C72.59394,16.80738 72.82314,16.72638 73.09374,16.72638 C73.39494,16.72638 73.64034,16.82478 73.83174,17.02158 C74.02134,17.21838 74.11734,17.48958 74.11734,17.83578 C74.11734,18.11778 74.07534,18.33858 73.99014,18.49998 C73.90614,18.66078 73.78374,18.78618 73.62234,18.87558 C73.46094,18.96438 73.28454,19.00878 73.09374,19.00878 C72.78774,19.00878 72.53994,18.91098 72.35094,18.71478 C72.16254,18.51918 72.06834,18.23598 72.06834,17.86758" id="Fill-85" fill="#A3A9B2" mask="url(#mask-2)"></path>
                    <path d="M74.55414,18.96384 L74.55414,16.77144 L74.88594,16.77144 L74.88594,17.08464 C74.95434,16.97664 75.04554,16.89024 75.16014,16.82484 C75.27414,16.75884 75.40434,16.72644 75.55014,16.72644 C75.71274,16.72644 75.84474,16.76004 75.94914,16.82784 C76.05354,16.89564 76.12614,16.99044 76.16874,17.11164 C76.34334,16.85484 76.56954,16.72644 76.84914,16.72644 C77.06814,16.72644 77.23614,16.78704 77.35314,16.90644 C77.47134,17.02644 77.52954,17.21184 77.52954,17.46144 L77.52954,18.96384 L77.16054,18.96384 L77.16054,17.58684 C77.16054,17.43924 77.14854,17.33184 77.12394,17.26704 C77.09994,17.20224 77.05614,17.14944 76.99194,17.11044 C76.92834,17.07024 76.85274,17.05044 76.76694,17.05044 C76.61154,17.05044 76.48374,17.10144 76.38054,17.20284 C76.27794,17.30544 76.22694,17.46924 76.22694,17.69424 L76.22694,18.96384 L75.85734,18.96384 L75.85734,17.54424 C75.85734,17.37864 75.82674,17.25624 75.76614,17.17344 C75.70494,17.09064 75.60594,17.05044 75.46794,17.05044 C75.36294,17.05044 75.26634,17.07684 75.17694,17.13204 C75.08814,17.18664 75.02274,17.26764 74.98314,17.37324 C74.94234,17.47824 74.92314,17.63124 74.92314,17.82984 L74.92314,18.96384 L74.55414,18.96384 Z" id="Fill-86" fill="#A3A9B2" mask="url(#mask-2)"></path>
                    <path d="M78.075,18.96384 L78.075,16.77144 L78.4062,16.77144 L78.4062,17.08464 C78.4752,16.97664 78.5658,16.89024 78.6804,16.82484 C78.7944,16.75884 78.9246,16.72644 79.0704,16.72644 C79.2324,16.72644 79.3656,16.76004 79.4694,16.82784 C79.5738,16.89564 79.647,16.99044 79.6896,17.11164 C79.8642,16.85484 80.0904,16.72644 80.37,16.72644 C80.5884,16.72644 80.7564,16.78704 80.874,16.90644 C80.9916,17.02644 81.0504,17.21184 81.0504,17.46144 L81.0504,18.96384 L80.6814,18.96384 L80.6814,17.58684 C80.6814,17.43924 80.6688,17.33184 80.6448,17.26704 C80.6202,17.20224 80.577,17.14944 80.5128,17.11044 C80.4492,17.07024 80.3742,17.05044 80.2884,17.05044 C80.133,17.05044 80.004,17.10144 79.9014,17.20284 C79.7982,17.30544 79.7472,17.46924 79.7472,17.69424 L79.7472,18.96384 L79.3776,18.96384 L79.3776,17.54424 C79.3776,17.37864 79.3476,17.25624 79.287,17.17344 C79.2258,17.09064 79.1268,17.05044 78.9882,17.05044 C78.8838,17.05044 78.7872,17.07684 78.6972,17.13204 C78.6084,17.18664 78.5436,17.26764 78.5034,17.37324 C78.4632,17.47824 78.444,17.63124 78.444,17.82984 L78.444,18.96384 L78.075,18.96384 Z" id="Fill-87" fill="#A3A9B2" mask="url(#mask-2)"></path>
                    <path d="M81.88128,17.65254 L83.10228,17.65254 C83.08608,17.47194 83.03928,17.33694 82.96248,17.24514 C82.84428,17.10534 82.69128,17.03514 82.50348,17.03514 C82.33248,17.03514 82.19028,17.09034 82.07328,17.20314 C81.95808,17.31534 81.89388,17.46534 81.88128,17.65254 M83.09748,18.24834 L83.48148,18.30054 C83.42028,18.52494 83.30868,18.69954 83.14488,18.82254 C82.98168,18.94674 82.77228,19.00914 82.51848,19.00914 C82.19808,19.00914 81.94368,18.91074 81.75588,18.71454 C81.56868,18.51654 81.47448,18.24054 81.47448,17.88594 C81.47448,17.51874 81.56928,17.23314 81.75948,17.03034 C81.94848,16.82754 82.19508,16.72614 82.49748,16.72614 C82.79028,16.72614 83.02968,16.82574 83.21628,17.02374 C83.40108,17.22294 83.49408,17.50314 83.49408,17.86314 C83.49408,17.88474 83.49348,17.91714 83.49228,17.96154 L81.85908,17.96154 C81.87288,18.20094 81.94128,18.38334 82.06308,18.50994 C82.18548,18.63654 82.33788,18.70014 82.52088,18.70014 C82.65648,18.70014 82.77288,18.66474 82.86888,18.59214 C82.96548,18.52014 83.04228,18.40614 83.09748,18.24834" id="Fill-88" fill="#A3A9B2" mask="url(#mask-2)"></path>
                    <path d="M83.9385,18.96384 L83.9385,16.77144 L84.2703,16.77144 L84.2703,17.10744 C84.3555,16.95264 84.4341,16.85004 84.5061,16.80024 C84.5793,16.75104 84.6591,16.72644 84.7461,16.72644 C84.8721,16.72644 84.9993,16.76484 85.1283,16.84284 L84.9969,17.18364 C84.9063,17.13444 84.8163,17.11044 84.7257,17.11044 C84.6447,17.11044 84.5727,17.13444 84.5085,17.18304 C84.4443,17.23224 84.3981,17.30004 84.3705,17.38644 C84.3279,17.51844 84.3075,17.66244 84.3075,17.81844 L84.3075,18.96384 L83.9385,18.96384 Z" id="Fill-89" fill="#A3A9B2" mask="url(#mask-2)"></path>
                    <path d="M86.79258,18.15762 L87.15438,18.21102 C87.11418,18.46002 87.01098,18.65562 86.84658,18.79662 C86.68158,18.93882 86.47938,19.00902 86.23998,19.00902 C85.93878,19.00902 85.69698,18.91182 85.51458,18.71682 C85.33098,18.52062 85.24038,18.24042 85.24038,17.87562 C85.24038,17.64042 85.27938,17.43402 85.35798,17.25702 C85.43658,17.08002 85.55598,16.94682 85.71618,16.85862 C85.87698,16.77042 86.05218,16.72602 86.24058,16.72602 C86.47878,16.72602 86.67318,16.78722 86.82498,16.90662 C86.97678,17.02662 87.07338,17.19762 87.11658,17.41962 L86.75478,17.47182 C86.71998,17.32662 86.65938,17.21862 86.57178,17.14542 C86.48478,17.07162 86.37978,17.03502 86.25558,17.03502 C86.06838,17.03502 85.91658,17.10162 85.79958,17.23422 C85.68258,17.36742 85.62498,17.57802 85.62498,17.86542 C85.62498,18.15702 85.68078,18.37002 85.79478,18.50202 C85.90758,18.63402 86.05578,18.70002 86.23878,18.70002 C86.38518,18.70002 86.50698,18.65562 86.60538,18.56742 C86.70378,18.47802 86.76558,18.34242 86.79258,18.15762" id="Fill-90" fill="#A3A9B2" mask="url(#mask-2)"></path>
                    <path d="M87.75294,17.65254 L88.97334,17.65254 C88.95714,17.47194 88.91094,17.33694 88.83354,17.24514 C88.71534,17.10534 88.56234,17.03514 88.37454,17.03514 C88.20474,17.03514 88.06134,17.09034 87.94554,17.20314 C87.82914,17.31534 87.76554,17.46534 87.75294,17.65254 M88.96854,18.24834 L89.35314,18.30054 C89.29194,18.52494 89.17974,18.69954 89.01654,18.82254 C88.85274,18.94674 88.64334,19.00914 88.39014,19.00914 C88.06914,19.00914 87.81534,18.91074 87.62754,18.71454 C87.44034,18.51654 87.34614,18.24054 87.34614,17.88594 C87.34614,17.51874 87.44034,17.23314 87.63054,17.03034 C87.82014,16.82754 88.06674,16.72614 88.36914,16.72614 C88.66194,16.72614 88.90134,16.82574 89.08734,17.02374 C89.27214,17.22294 89.36574,17.50314 89.36574,17.86314 C89.36574,17.88474 89.36514,17.91714 89.36334,17.96154 L87.73074,17.96154 C87.74394,18.20094 87.81234,18.38334 87.93414,18.50994 C88.05654,18.63654 88.20894,18.70014 88.39194,18.70014 C88.52814,18.70014 88.64394,18.66474 88.74054,18.59214 C88.83654,18.52014 88.91274,18.40614 88.96854,18.24834" id="Fill-91" fill="#A3A9B2" mask="url(#mask-2)"></path>
                </g>
            </g>
        </g>
    </g>
</svg>