<?xml version="1.0" encoding="UTF-8"?>
<svg width="130px" height="60px" viewBox="0 0 130 60" version="1.1" xmlns="http://www.w3.org/2000/svg" xmlns:xlink="http://www.w3.org/1999/xlink">
    <!-- Generator: Sketch 40.2 (33826) - http://www.bohemiancoding.com/sketch -->
    <title>logo_CMS</title>
    <desc>Created with Sketch.</desc>
    <defs></defs>
    <g id="Page-1" stroke="none" stroke-width="1" fill="none" fill-rule="evenodd">
        <g id="Artboard">
            <g id="prestashop" transform="translate(0.000000, 20.000000)">
                <path d="M51.1898734,10.2919831 C51.1777215,9.12658228 50.7392405,8.18025316 49.8740928,7.45316456 C49.0087764,6.72624473 47.9210127,6.36270042 46.6114768,6.36270042 C45.7824473,6.36270042 44.9952743,6.54599156 44.2504641,6.91223629 C43.5051477,7.27898734 42.8805063,7.84978903 42.375865,8.62481013 C41.8712236,9.39983122 41.6185654,10.2982278 41.6185654,11.3194937 C41.6185654,12.7974684 42.1054852,13.9870042 43.0786498,14.88827 C44.0521519,15.7895359 45.217384,16.2401688 46.5755274,16.2401688 C48.1257384,16.2401688 49.4712236,15.6516456 50.6131646,14.4737553 L49.4232911,13.1578059 C48.7264135,13.9991561 47.8401688,14.4197468 46.7647257,14.4197468 C45.6892827,14.4197468 44.8391561,14.0352743 44.214346,13.2659916 L51.2079325,10.3279325 L51.1898734,10.2919831 L51.1898734,10.2919831 Z M43.5834599,11.6978903 C43.571308,11.6259916 43.5654008,11.51173 43.5654008,11.355443 C43.5654008,10.3702954 43.8926582,9.60118143 44.5476793,9.04827004 C45.2027004,8.4956962 45.9267511,8.21924051 46.7196624,8.21924051 C47.7650633,8.21924051 48.4921519,8.6156962 48.9007595,9.40894515 L43.5834599,11.6978903 L43.5834599,11.6978903 Z" id="Fill-13" fill="#14082E"></path>
                <path d="M39.3032911,6.95746835 C38.7443038,7.34227848 38.302616,7.83476793 37.9783966,8.43544304 L37.9783966,6.50700422 L35.9596624,6.50700422 L35.9596624,16.0960338 L37.9783966,16.0960338 L37.9783966,11.9863291 C37.9783966,10.892827 38.2307173,10.0216034 38.7355274,9.37265823 C39.24,8.72388186 39.9908861,8.39949367 40.9885232,8.39949367 L41.0965401,8.39949367 L41.078481,6.36253165 C40.4535021,6.37468354 39.8619409,6.57299578 39.3032911,6.95746835" id="Fill-14" fill="#14082E"></path>
                <path d="M58.4251477,11.211308 C58.1005907,10.9949367 57.7971308,10.8268354 57.5149367,10.7066667 C57.2322363,10.5864979 56.9409283,10.478481 56.6406751,10.3821097 C56.3400844,10.2862447 55.9945992,10.190211 55.6042194,10.0938397 C55.2136709,9.99763713 54.910211,9.89552743 54.6940084,9.787173 C54.3814346,9.64320675 54.2254852,9.4150211 54.2254852,9.10244726 C54.2254852,8.75392405 54.3755274,8.49265823 54.6759494,8.31831224 C54.9762025,8.14447257 55.3667511,8.05704641 55.8475949,8.05704641 C56.7605063,8.05704641 57.6079325,8.31544304 58.3891983,8.83206751 L59.1459916,7.33603376 C58.1608439,6.68725738 57.1152743,6.36253165 56.009789,6.36253165 C54.904135,6.36253165 54.0059072,6.63021097 53.3151055,7.16489451 C52.6237975,7.69957806 52.2786498,8.41164557 52.2786498,9.30075949 C52.2786498,10.5625316 53.2761181,11.4634599 55.2708861,12.0042194 C55.3186498,12.0163713 55.3907173,12.0405063 55.4870886,12.0764557 C56.7605063,12.461097 57.3976371,12.8936709 57.3976371,13.374346 C57.3976371,13.6987342 57.2651477,13.9660759 57.0010127,14.1763713 C56.7367089,14.3866667 56.3762025,14.4918143 55.9196624,14.4918143 C54.8742616,14.4918143 53.7929114,14.0713924 52.6752743,13.2300422 L51.7019409,14.7981435 C52.2786498,15.2548523 52.9424473,15.6092827 53.6936709,15.8616034 C54.444557,16.1139241 55.1684388,16.2401688 55.8654852,16.2401688 C56.8990717,16.2401688 57.7461603,15.9669198 58.4072574,15.4200844 C59.0678481,14.8732489 59.3983122,14.1434599 59.3983122,13.2300422 C59.3983122,12.316962 59.0739241,11.6438819 58.4251477,11.211308" id="Fill-15" fill="#14082E"></path>
                <path d="M33.2185654,4.59628692 C32.3412658,3.86345992 30.9473418,3.49670886 29.0367932,3.49670886 L24.7110549,3.49670886 L24.7110549,16.0960338 L26.8379747,16.0960338 L26.8379747,12.4008439 L29.0727426,12.4008439 C30.9233755,12.4008439 32.2962025,12.0465823 33.1915612,11.337384 C34.0864135,10.628692 34.534346,9.51105485 34.534346,7.98481013 C34.534346,6.45907173 34.0955274,5.32945148 33.2185654,4.59628692 M31.7135865,9.7964557 C31.2867511,10.2469198 30.4847257,10.4724051 29.307173,10.4724051 L26.8379747,10.4724051 L26.8379747,5.42531646 L29.0008439,5.42531646 C30.1544304,5.42531646 31.001519,5.60556962 31.5422785,5.96624473 C32.083038,6.32658228 32.3534177,6.94244726 32.3534177,7.81383966 C32.3534177,8.68523207 32.1400844,9.34565401 31.7135865,9.7964557" id="Fill-16" fill="#14082E"></path>
                <path d="M64.1221941,14.4916456 C63.6896203,14.4916456 63.3530802,14.3564557 63.1129114,14.0860759 C62.8724051,13.8156962 62.7522363,13.4526582 62.7522363,12.9956118 L62.7522363,8.12894515 L65.2759494,8.12894515 L65.2759494,6.50700422 L62.7522363,6.50700422 L62.7522363,3.49670886 L60.7336709,3.49670886 L60.7336709,12.9416034 C60.7336709,13.9510549 61.036962,14.7530802 61.6438819,15.3478481 C62.2504641,15.9427848 62.9834599,16.2401688 63.8427004,16.2401688 C64.7017722,16.2401688 65.4859072,15.9218565 66.1949367,15.2848945 L65.3659072,13.8607595 C64.9696203,14.2816878 64.5549367,14.4916456 64.1221941,14.4916456" id="Fill-17" fill="#14082E"></path>
                <path d="M74.1547679,8.16523207 C73.3375527,6.96371308 72.2980591,6.36253165 71.0366245,6.36253165 C69.7748523,6.36253165 68.6811814,6.80742616 67.7561181,7.69654008 C66.8305485,8.58582278 66.3681013,9.7756962 66.3681013,11.2653165 C66.3681013,12.755443 66.818903,13.9572996 67.72,14.8703797 C68.6212658,15.7834599 69.6786498,16.2401688 70.8924895,16.2401688 C71.4931646,16.2401688 72.0911392,16.0931646 72.6857384,15.798481 C73.2805063,15.5043038 73.7701266,15.0808439 74.1547679,14.5279325 L74.1547679,16.0960338 L76.1735021,16.0960338 L76.1735021,6.50683544 L74.1547679,6.50683544 L74.1547679,8.16523207 L74.1547679,8.16523207 Z M73.3616878,13.5816034 C72.8087764,14.1643882 72.1362025,14.4556962 71.3429536,14.4556962 C70.5500422,14.4556962 69.8587342,14.1672574 69.2700422,13.5907173 C68.6811814,13.0136709 68.3870042,12.265654 68.3870042,11.3464979 C68.3870042,10.4273418 68.675443,9.66109705 69.2521519,9.04827004 C69.8290295,8.43544304 70.5196624,8.12911392 71.3250633,8.12911392 C72.1299578,8.12911392 72.8087764,8.43544304 73.3616878,9.04827004 C73.9142616,9.66109705 74.1907173,10.4244726 74.1907173,11.3375527 C74.1907173,12.2508017 73.9142616,12.9988186 73.3616878,13.5816034 L73.3616878,13.5816034 Z" id="Fill-18" fill="#14082E"></path>
                <path d="M103.925738,6.36253165 C102.483713,6.36253165 101.282194,6.84050633 100.321013,7.79561181 C99.3593249,8.75105485 98.8789873,9.91966245 98.8789873,11.3016034 C98.8789873,12.6833755 99.3593249,13.8519831 100.321013,14.8072574 C101.282194,15.7625316 102.483713,16.2401688 103.925738,16.2401688 C105.367764,16.2401688 106.569114,15.7625316 107.530802,14.8072574 C108.491983,13.8519831 108.972489,12.6833755 108.972489,11.3016034 C108.972489,9.91966245 108.491983,8.75105485 107.530802,7.79561181 C106.569114,6.84050633 105.367764,6.36253165 103.925738,6.36253165 M106.097553,13.5635443 C105.52692,14.1464979 104.8027,14.4378059 103.925738,14.4378059 C103.048439,14.4378059 102.324388,14.1464979 101.753924,13.5635443 C101.182954,12.9809283 100.897722,12.2268354 100.897722,11.3016034 C100.897722,10.3762025 101.182954,9.62244726 101.753924,9.03949367 C102.324388,8.45670886 103.048439,8.16523207 103.925738,8.16523207 C104.8027,8.16523207 105.52692,8.45670886 106.097553,9.03949367 C106.668186,9.62244726 106.953755,10.3762025 106.953755,11.3016034 C106.953755,12.2268354 106.668186,12.9809283 106.097553,13.5635443" id="Fill-19" fill="#D11564"></path>
                <path d="M118.595105,7.69654008 C117.681688,6.80725738 116.58211,6.36253165 115.296371,6.36253165 C114.010464,6.36253165 112.971308,6.96962025 112.178228,8.18329114 L112.178228,6.50700422 L110.159494,6.50700422 L110.159494,19.5927426 L112.178228,19.5927426 L112.178228,14.6540084 C113.139578,15.7115612 114.223966,16.2401688 115.43173,16.2401688 C116.639325,16.2401688 117.696709,15.7777215 118.603882,14.8523207 C119.511055,13.9272574 119.964895,12.7252321 119.964895,11.2472574 C119.964895,9.7692827 119.508017,8.58582278 118.595105,7.69654008 M117.062954,13.5723207 C116.473924,14.1491983 115.783291,14.4376371 114.990042,14.4376371 C114.196793,14.4376371 113.524051,14.1464979 112.971308,13.5635443 C112.418565,12.9809283 112.142278,12.2327426 112.142278,11.3194937 C112.142278,10.4064135 112.418565,9.64624473 112.971308,9.03949367 C113.524051,8.43257384 114.202869,8.12911392 115.008101,8.12911392 C115.812996,8.12911392 116.504304,8.43257384 117.081013,9.03949367 C117.65789,9.64624473 117.945992,10.4092827 117.945992,11.3284388 C117.945992,12.2475949 117.651477,12.9957806 117.062954,13.5723207" id="Fill-20" fill="#D11564"></path>
                <path d="M94.1790717,6.36253165 C93.5059916,6.36253165 92.8781435,6.53113924 92.2953586,6.86734177 C91.7124051,7.20388186 91.276962,7.66666667 90.988692,8.25535865 L90.988692,2.73974684 L88.969789,2.73974684 L88.969789,16.0960338 L90.988692,16.0960338 L90.988692,10.9049789 C90.988692,10.0156962 91.2469198,9.33974684 91.7637131,8.8771308 C92.2801688,8.41468354 92.8872574,8.18329114 93.584135,8.18329114 C95.0499578,8.18329114 95.7831224,9.06632911 95.7831224,10.8327426 L95.7831224,16.0960338 L97.8020253,16.0960338 L97.8020253,10.2199156 C97.8020253,8.97029536 97.4685232,8.0150211 96.801519,7.35409283 C96.1346835,6.69333333 95.2604219,6.36253165 94.1790717,6.36253165" id="Fill-21" fill="#D11564"></path>
                <path d="M86.5559494,10.0398312 C85.9007595,9.47510549 84.9275949,9.03662447 83.6359494,8.72388186 C82.344135,8.41164557 81.5000844,8.12016878 81.1034599,7.84962025 C80.7070042,7.57940928 80.508692,7.18886076 80.508692,6.67814346 C80.508692,6.16742616 80.7070042,5.78599156 81.1034599,5.53367089 C81.5000844,5.28118143 82.0075949,5.15510549 82.6266667,5.15510549 C83.2454008,5.15510549 83.8729114,5.26312236 84.510211,5.47949367 C85.1468354,5.6956962 85.6514768,5.9721519 86.0243038,6.30869198 L87.1594937,4.70447257 C86.5829536,4.22413502 85.8978903,3.85113924 85.1049789,3.58700422 C84.3118987,3.32270042 83.5125738,3.19037975 82.7076793,3.19037975 C81.4577215,3.19037975 80.4092827,3.50599156 79.5621941,4.13670886 C78.7151055,4.76759494 78.2916456,5.66582278 78.2916456,6.83139241 C78.2916456,7.99696203 78.6639662,8.8621097 79.4091139,9.42700422 C79.7812658,9.72725738 80.2081013,9.97063291 80.6887764,10.1567932 C81.1694515,10.3432911 81.8722363,10.5475105 82.7979747,10.7696203 C83.723038,10.9922363 84.3748523,11.2383122 84.7534177,11.508692 C85.1319831,11.7790717 85.3213502,12.1574684 85.3213502,12.6442194 C85.3213502,13.1309705 85.12,13.521519 84.7172996,13.815865 C84.3145992,14.1105485 83.7709705,14.2575527 83.0860759,14.2575527 C81.7162869,14.2575527 80.3942616,13.7048101 79.1206751,12.5991561 L77.7870042,14.2032068 C79.3129114,15.561519 81.0614346,16.2401688 83.0320675,16.2401688 C84.3777215,16.2401688 85.4653165,15.8977215 86.2945148,15.2126582 C87.1235443,14.5279325 87.5382278,13.6357806 87.5382278,12.5360338 C87.5382278,11.4364557 87.2108017,10.6047257 86.5559494,10.0398312" id="Fill-22" fill="#D11564"></path>
                <path d="M6.35054852,15.0324051 C6.50700422,14.9628692 6.66548523,14.8987342 6.82548523,14.8386498 C7.00607595,14.7708017 7.18818565,14.7070042 7.37265823,14.651308 C7.60236287,14.5821097 7.83409283,14.5196624 8.06869198,14.4697046 C8.38514768,14.4025316 8.70531646,14.3527426 9.02801688,14.321519 C8.84708861,14.8904641 8.64708861,15.4560338 8.43037975,16.0180591 C8.43966245,16.1269198 8.44472574,16.2364557 8.44759494,16.3463291 C8.88388186,16.2602532 9.33468354,16.2141772 9.79628692,16.2141772 C10.2578903,16.2141772 10.7085232,16.2602532 11.1449789,16.3463291 C11.1478481,16.2364557 11.1527426,16.1269198 11.1620253,16.0180591 C10.9453165,15.4560338 10.7454852,14.8904641 10.5643882,14.321519 C10.8870886,14.3527426 11.2074262,14.4025316 11.5237131,14.4697046 C11.758481,14.5196624 11.9900422,14.5821097 12.2197468,14.651308 C12.4042194,14.7070042 12.5863291,14.7708017 12.7669198,14.8386498 C12.9269198,14.8987342 13.0855696,14.9628692 13.2420253,15.0325738 C14.3520675,15.5267511 15.3640506,16.2600844 16.1939241,17.2114768 C18.2740928,15.4151899 19.5925738,12.7605063 19.5925738,9.79628692 C19.5925738,4.38599156 15.2065823,0 9.79628692,0 C4.38582278,0 0,4.38599156 0,9.79628692 C0,12.7605063 1.31831224,15.4151899 3.39848101,17.2114768 C4.22852321,16.2600844 5.24050633,15.5267511 6.35054852,15.0324051" id="Fill-23" fill="#9FD6DC"></path>
                <path d="M6.99628692,16.8047257 C7.45603376,16.601519 7.94160338,16.4460759 8.44759494,16.3463291 C8.44472574,16.2364557 8.43966245,16.1269198 8.43037975,16.0180591 C8.64708861,15.4560338 8.84708861,14.8904641 9.02801688,14.321519 C8.70531646,14.3527426 8.38514768,14.4025316 8.06869198,14.4697046 C7.83409283,14.5196624 7.60236287,14.5821097 7.37265823,14.651308 C7.18818565,14.7070042 7.00607595,14.7708017 6.82548523,14.8386498 L7.53957806,15.0116456 L6.99628692,16.8047257" id="Fill-24" fill="#4B4D4A"></path>
                <path d="M5.31274262,17.8609283 C5.33063291,17.678481 5.34160338,17.4941772 5.34160338,17.3081857 C5.34160338,17.1961181 5.43240506,17.1053165 5.5443038,17.1053165 L5.72236287,17.1053165 L6.35054852,15.0324051 C5.24050633,15.5267511 4.22852321,16.2600844 3.39848101,17.2114768 C3.85603376,17.6065823 4.35004219,17.9598312 4.87561181,18.2658228 C5.01552743,18.1248945 5.16135021,17.9895359 5.31274262,17.8609283" id="Fill-25" fill="#4B4D4A"></path>
                <path d="M13.2420253,15.0325738 L13.870211,17.1053165 L14.0481013,17.1053165 C14.1601688,17.1053165 14.2508017,17.1961181 14.2508017,17.3081857 C14.2508017,17.4941772 14.2617722,17.678481 14.2796624,17.8609283 C14.4312236,17.9895359 14.5768776,18.1248945 14.7167932,18.2658228 C15.2423629,17.9598312 15.7363713,17.6065823 16.1939241,17.2114768 C15.3640506,16.2600844 14.3520675,15.5267511 13.2420253,15.0325738" id="Fill-26" fill="#4B4D4A"></path>
                <path d="M12.0529958,15.0116456 L12.7669198,14.8386498 C12.5863291,14.7708017 12.4042194,14.7070042 12.2197468,14.651308 C11.9900422,14.5821097 11.758481,14.5196624 11.5237131,14.4697046 C11.2074262,14.4025316 10.8870886,14.3527426 10.5643882,14.321519 C10.7454852,14.8904641 10.9453165,15.4560338 11.1620253,16.0180591 C11.1527426,16.1269198 11.1478481,16.2364557 11.1449789,16.3463291 C11.6508017,16.4460759 12.1365401,16.601519 12.5964557,16.8048945 L12.0529958,15.0116456" id="Fill-27" fill="#4B4D4A"></path>
                <path d="M9.79628692,17.1053165 L11.1767089,17.1053165 C11.1483544,16.8509705 11.1382278,16.5976371 11.1449789,16.3463291 C10.7085232,16.2602532 10.2578903,16.2141772 9.79628692,16.2141772 C9.33468354,16.2141772 8.88388186,16.2602532 8.44759494,16.3463291 C8.45417722,16.5976371 8.44405063,16.8509705 8.4156962,17.1053165 L9.79628692,17.1053165" id="Fill-28" fill="#1A1918"></path>
                <path id="Fill-29" fill="#1A1918"></path>
                <path d="M6.90514768,17.1053165 L8.4156962,17.1053165 C8.44405063,16.8509705 8.45417722,16.5976371 8.44759494,16.3463291 C7.94160338,16.4460759 7.45603376,16.601519 6.99628692,16.8047257 L6.90514768,17.1053165" id="Fill-30" fill="#1A1918"></path>
                <path id="Fill-31" fill="#1A1918"></path>
                <path d="M12.6874262,17.1053165 L12.5964557,16.8048945 C12.1365401,16.601519 11.6508017,16.4460759 11.1449789,16.3463291 C11.1382278,16.5976371 11.1483544,16.8509705 11.1767089,17.1053165 L12.6874262,17.1053165" id="Fill-32" fill="#1A1918"></path>
                <path d="M6.90514768,17.1053165 L7.53957806,15.0116456 L6.82548523,14.8386498 C6.66548523,14.8987342 6.50700422,14.9628692 6.35054852,15.0324051 L5.72236287,17.1053165 L6.90514768,17.1053165" id="Fill-33" fill="#9E8D6F"></path>
                <path d="M12.5964557,16.8048945 L12.6874262,17.1053165 L13.870211,17.1053165 L13.2420253,15.0325738 C13.0855696,14.9628692 12.9269198,14.8987342 12.7669198,14.8386498 L12.0529958,15.0116456 L12.5964557,16.8048945" id="Fill-34" fill="#9E8D6F"></path>
                <path id="Fill-35" fill="#B8AA8F"></path>
                <path d="M9.79628692,17.5108861 L5.76151899,17.5108861 C5.75544304,17.5152743 5.74919831,17.5196624 5.74295359,17.5240506 C5.72945148,17.9068354 5.67814346,18.2821941 5.59510549,18.6474262 C6.86835443,19.252827 8.29248945,19.5925738 9.79628692,19.5925738 L9.79628692,17.5108861" id="Fill-36" fill="#B8AA8F"></path>
                <path id="Fill-37" fill="#9E8D6F"></path>
                <path d="M13.8308861,17.5108861 L9.79628692,17.5108861 L9.79628692,19.5925738 C11.2999156,19.5925738 12.7240506,19.252827 13.9974684,18.6474262 C13.9142616,18.2821941 13.8629536,17.9068354 13.8494515,17.5240506 C13.8433755,17.5196624 13.8371308,17.5152743 13.8308861,17.5108861" id="Fill-38" fill="#9E8D6F"></path>
                <polyline id="Fill-39" fill="#6C5C4B" points="9.79628692 17.8080169 9.79628692 17.3080169 9.79628692 17.8080169"></polyline>
                <path d="M14.2796624,17.8609283 C14.2617722,17.678481 14.2508017,17.4941772 14.2508017,17.3081857 C14.2508017,17.1961181 14.1601688,17.1053165 14.0481013,17.1053165 L5.5443038,17.1053165 C5.43240506,17.1053165 5.34160338,17.1961181 5.34160338,17.3081857 C5.34160338,17.4941772 5.33063291,17.678481 5.31274262,17.8609283 C5.29299578,18.0629536 5.26194093,18.2622785 5.22092827,18.4585654 C5.3443038,18.5238819 5.46869198,18.5873418 5.59510549,18.6474262 C5.67814346,18.2821941 5.72945148,17.9068354 5.74295359,17.5240506 C5.74312236,17.5196624 5.74362869,17.5152743 5.74379747,17.5108861 L13.8487764,17.5108861 C13.8487764,17.5152743 13.8492827,17.5196624 13.8494515,17.5240506 C13.8629536,17.9068354 13.9142616,18.2821941 13.9974684,18.6474262 C14.1237131,18.5873418 14.2481013,18.5238819 14.3714768,18.4585654 C14.3306329,18.2622785 14.2994093,18.0629536 14.2796624,17.8609283" id="Fill-40" fill="#806D58"></path>
                <path id="Fill-41" fill="#4B4D4A"></path>
                <path id="Fill-42" fill="#9E8D6F"></path>
                <polyline id="Fill-43" fill="#FFFFFF" points="15.8199156 7.06767932 15.8199156 7.06917932 15.8199156 7.06767932"></polyline>
                <path id="Fill-44" fill="#FFFFFF"></path>
                <path d="M16.3188186,7.61620253 L16.3188186,7.61620253 C16.3171308,7.61400844 16.3156118,7.6121519 16.3139241,7.60995781 L16.3140928,7.60995781 C16.2327426,7.49687764 16.148692,7.39375527 16.062616,7.30008439 C16.0622785,7.29991561 16.0621097,7.29957806 16.0617722,7.29924051 C16.0621097,7.29957806 16.0622785,7.29991561 16.062616,7.30008439 C16.0617722,7.29924051 16.061097,7.29839662 16.0602532,7.29755274 C16.021097,7.2550211 15.9816034,7.21451477 15.9416034,7.17620253 C15.9264135,7.16168776 15.9108861,7.14902954 15.8956962,7.13518987 C15.8703797,7.11240506 15.8454008,7.08877637 15.8199156,7.06767932 L15.8199156,7.97924051 L16.1687764,9.57704641 C16.1726582,9.58936709 16.1772152,9.60101266 16.1805907,9.61383966 L16.4222785,9.88472574 L16.4246414,9.88202532 L16.6776371,9.88202532 C16.6779747,9.8585654 16.6793249,9.83544304 16.6793249,9.81198312 L16.6793249,9.81164557 C16.6793249,9.0578903 16.555443,8.33383966 16.3311392,7.65535865 L16.3311392,7.65552743 C16.3269198,7.64253165 16.3232068,7.62919831 16.3188186,7.61620253" id="Fill-45" fill="#B6B7B4"></path>
                <path id="Fill-46" fill="#B6B7B4"></path>
                <path id="Fill-47" fill="#5F6360"></path>
                <path d="M15.8340928,9.79544304 C15.7524051,9.79544304 15.6862447,9.68202532 15.6862447,9.5421097 C15.6862447,9.40202532 15.7524051,9.28860759 15.8340928,9.28860759 C15.9157806,9.28860759 15.9819409,9.40202532 15.9819409,9.5421097 C15.9819409,9.68202532 15.9157806,9.79544304 15.8340928,9.79544304 L15.8340928,9.79544304 Z M16.2028692,10.0394937 C16.2035443,10.0344304 16.2048945,10.0298734 16.2055696,10.0248101 C16.2099578,9.98801688 16.2118143,9.94970464 16.2126582,9.91105485 C16.212827,9.90227848 16.2141772,9.89417722 16.2141772,9.88540084 C16.2141772,9.8771308 16.212827,9.86953586 16.2126582,9.8614346 C16.2119831,9.82194093 16.2101266,9.78295359 16.2054008,9.74548523 C16.2048945,9.74109705 16.2037131,9.73704641 16.2032068,9.73265823 C16.1976371,9.69181435 16.1903797,9.6521519 16.1805907,9.61451477 C16.1772152,9.60135021 16.1726582,9.58953586 16.1687764,9.57687764 C16.1454852,9.50008439 16.1139241,9.43240506 16.0764557,9.37620253 C16.0713924,9.36860759 16.0663291,9.36135021 16.061097,9.3542616 C16.0508017,9.34042194 16.0403376,9.32691983 16.0293671,9.31493671 C16.0131646,9.29738397 15.9964557,9.28118143 15.9787342,9.2678481 C15.9721519,9.26261603 15.9648945,9.25924051 15.9579747,9.25468354 C15.9427848,9.24489451 15.9270886,9.23628692 15.9110549,9.22970464 C15.904135,9.22683544 15.8972152,9.22413502 15.8901266,9.22194093 C15.867173,9.21485232 15.8440506,9.20978903 15.8199156,9.20978903 C15.7957806,9.20978903 15.7726582,9.21485232 15.7497046,9.22194093 C15.742616,9.22413502 15.7356962,9.22683544 15.7287764,9.22970464 C15.7127426,9.23628692 15.6970464,9.24489451 15.6816878,9.25468354 C15.6749367,9.25924051 15.6678481,9.26261603 15.661097,9.2678481 C15.6433755,9.28118143 15.6266667,9.29738397 15.6104641,9.31493671 C15.5994937,9.32691983 15.5890295,9.34042194 15.578903,9.3542616 C15.5736709,9.36135021 15.5684388,9.36860759 15.5633755,9.37620253 C15.5259072,9.43257384 15.4941772,9.50025316 15.4710549,9.57687764 C15.4700422,9.58008439 15.4690295,9.58295359 15.4681857,9.58616034 C15.4578903,9.62126582 15.4499578,9.65839662 15.4432068,9.69637131 C15.4411814,9.70801688 15.4386498,9.71915612 15.436962,9.73113924 C15.4308861,9.77367089 15.4278481,9.81805907 15.4270042,9.86345992 C15.4268354,9.86987342 15.4258228,9.87578059 15.4258228,9.88202532 L15.4275105,9.88202532 C15.4275105,10.2551899 15.6040506,10.5576371 15.8217722,10.5576371 C15.8592405,10.5576371 15.8953586,10.5478481 15.9296203,10.5311392 C15.9351899,10.52827 15.9405907,10.5255696 15.9459916,10.5223629 C15.9603376,10.5142616 15.9741772,10.5053165 15.9876793,10.4945148 C15.9951055,10.4884388 16.0020253,10.4813502 16.0091139,10.4745992 C16.0264979,10.4582278 16.043038,10.4398312 16.0587342,10.4194093 C16.0697046,10.4052321 16.0803376,10.3908861 16.0902954,10.3748523 C16.0965401,10.3647257 16.1024473,10.3537553 16.1083544,10.3427848 C16.1193249,10.3225316 16.129789,10.3012658 16.1392405,10.2788186 C16.1427848,10.2707173 16.1463291,10.2627848 16.1495359,10.2545148 C16.161519,10.2231224 16.1721519,10.1900422 16.1809283,10.155443 C16.1903797,10.118481 16.1974684,10.0796624 16.2028692,10.0394937 L16.2028692,10.0394937 Z" id="Fill-48" fill="#1A1918"></path>
                <path id="Fill-49" fill="#FFFFFF"></path>
                <path d="M15.4710549,9.57687764 L15.4710549,9.57687764 C15.4941772,9.50025316 15.5259072,9.43257384 15.5633755,9.37620253 C15.5684388,9.36860759 15.5736709,9.36135021 15.578903,9.3542616 C15.5890295,9.34042194 15.5994937,9.32691983 15.6104641,9.31493671 C15.6264979,9.29721519 15.6433755,9.28135021 15.661097,9.2678481 C15.6678481,9.26261603 15.6749367,9.25924051 15.6816878,9.25468354 C15.6970464,9.24472574 15.7127426,9.23628692 15.7287764,9.22970464 C15.7356962,9.22683544 15.742616,9.22413502 15.7497046,9.22194093 C15.7724895,9.21468354 15.7957806,9.20978903 15.8199156,9.20978903 C15.8440506,9.20978903 15.8673418,9.21468354 15.8901266,9.22194093 C15.8972152,9.22413502 15.904135,9.22683544 15.9110549,9.22970464 C15.9270886,9.23628692 15.9427848,9.24472574 15.9579747,9.25468354 C15.9648945,9.25924051 15.9721519,9.26261603 15.9787342,9.2678481 C15.9964557,9.28135021 16.0133333,9.29721519 16.0293671,9.31493671 C16.0403376,9.32691983 16.0508017,9.34042194 16.061097,9.3542616 C16.0663291,9.36135021 16.0713924,9.36860759 16.0764557,9.37620253 C16.1139241,9.43240506 16.1454852,9.50008439 16.1687764,9.57687764 L16.1687764,9.57704641 L15.8199156,7.97924051 L15.4710549,9.57687764" id="Fill-50" fill="#8A8D88"></path>
                <path d="M10.2744304,9.76219409 C10.083038,9.76219409 9.92776371,9.60691983 9.92776371,9.41552743 C9.92776371,9.22396624 10.083038,9.06886076 10.2744304,9.06886076 C10.4659916,9.06886076 10.6212658,9.22396624 10.6212658,9.41552743 C10.6212658,9.60691983 10.4659916,9.76219409 10.2744304,9.76219409 L10.2744304,9.76219409 Z M11.1967932,9.87037975 C11.1962869,9.83831224 11.1942616,9.80658228 11.1905485,9.77535865 C11.1905485,9.77485232 11.1903797,9.77434599 11.1903797,9.77400844 C11.1866667,9.74312236 11.1816034,9.71291139 11.1750211,9.68303797 C11.1748523,9.68236287 11.1745148,9.68151899 11.174346,9.68084388 C11.1677637,9.65130802 11.1598312,9.62227848 11.1503797,9.59392405 C11.150211,9.59341772 11.1498734,9.59274262 11.1497046,9.59206751 C11.1402532,9.56371308 11.1294515,9.53586498 11.1174684,9.50886076 C11.1171308,9.50818565 11.1167932,9.50767932 11.1166245,9.507173 C11.1044726,9.48 11.0909705,9.45333333 11.0762869,9.42767932 C11.0313924,9.34902954 10.9753586,9.27780591 10.9103797,9.21586498 C10.8278481,9.13721519 10.7308017,9.0735865 10.6236287,9.02953586 C10.6227848,9.02919831 10.6217722,9.02886076 10.6209283,9.02852321 C10.5681013,9.00708861 10.5129114,8.99021097 10.455865,8.97873418 C10.454346,8.9785654 10.4529958,8.97839662 10.4514768,8.97805907 C10.3942616,8.96691983 10.3350211,8.96067511 10.2744304,8.96067511 C10.2148523,8.96067511 10.1567932,8.96675105 10.1005907,8.97772152 C10.0985654,8.97805907 10.0965401,8.97822785 10.0945148,8.9785654 C10.038481,8.98970464 9.9843038,9.00607595 9.93248945,9.02700422 C9.93113924,9.02751055 9.92962025,9.0278481 9.92827004,9.02852321 C9.87561181,9.04995781 9.82531646,9.07611814 9.77805907,9.10649789 C9.7778903,9.10649789 9.77772152,9.10666667 9.77755274,9.10666667 C9.72978903,9.13738397 9.68523207,9.17232068 9.64388186,9.21097046 L9.6428692,9.21417722 L9.63949367,9.2150211 C9.57367089,9.27746835 9.5171308,9.34953586 9.47189873,9.42886076 C9.47139241,9.42970464 9.47088608,9.4307173 9.47037975,9.43156118 C9.45654008,9.45603376 9.44405063,9.48118143 9.43257384,9.50683544 C9.43139241,9.50953586 9.42987342,9.51223629 9.42869198,9.51493671 C9.41805907,9.53890295 9.40911392,9.56337553 9.40067511,9.58818565 C9.39915612,9.59308017 9.39696203,9.59763713 9.39544304,9.60253165 C9.38801688,9.62565401 9.3821097,9.64945148 9.37654008,9.67341772 C9.3750211,9.68016878 9.372827,9.68675105 9.37130802,9.69367089 C9.3664135,9.7171308 9.36303797,9.74126582 9.35983122,9.76556962 C9.35898734,9.772827 9.35729958,9.78008439 9.35662447,9.78751055 C9.35324895,9.81907173 9.35156118,9.85113924 9.35156118,9.88371308 C9.35156118,9.94481013 9.35780591,10.0043882 9.36911392,10.0621097 C9.3692827,10.0632911 9.36945148,10.0644726 9.36962025,10.065654 C9.38126582,10.1233755 9.39831224,10.178903 9.42008439,10.2320675 C9.42042194,10.2329114 9.42059072,10.2335865 9.42092827,10.2342616 C9.46531646,10.3419409 9.52962025,10.4393249 9.60894515,10.5221941 C9.67172996,10.5875105 9.74396624,10.6437131 9.82329114,10.6884388 C9.82379747,10.6887764 9.82413502,10.6889451 9.82447257,10.6891139 C9.8492827,10.7031224 9.87493671,10.7156118 9.90109705,10.7272574 C9.90312236,10.72827 9.90531646,10.7294515 9.90734177,10.7302954 C9.93164557,10.7409283 9.95662447,10.7500422 9.98177215,10.758481 C9.98616034,10.76 9.99021097,10.7618565 9.99459916,10.7632068 C10.0178903,10.7706329 10.0418565,10.7765401 10.0658228,10.7821097 C10.0724051,10.7836287 10.0786498,10.785654 10.0852321,10.7870042 C10.108692,10.7920675 10.1326582,10.7952743 10.1567932,10.7983122 C10.1640506,10.7993249 10.1711392,10.8008439 10.1785654,10.8016878 C10.2101266,10.8048945 10.2420253,10.8067511 10.2744304,10.8067511 C10.4018565,10.8067511 10.5233755,10.7809283 10.6337553,10.7341772 C10.6889451,10.7107173 10.7414346,10.6821941 10.7905485,10.6491139 C10.8887764,10.5827848 10.9735021,10.4978903 11.0398312,10.3996624 C11.0730802,10.3507173 11.1016034,10.2982278 11.1248945,10.243038 C11.1716456,10.1324895 11.1974684,10.0111392 11.1974684,9.88371308 C11.1974684,9.88151899 11.1971308,9.87949367 11.1971308,9.87729958 C11.1971308,9.87493671 11.1967932,9.87274262 11.1967932,9.87037975 L11.1967932,9.87037975 Z" id="Fill-51" fill="#1A1918"></path>
                <path d="M10.2744304,9.06886076 C10.083038,9.06886076 9.92776371,9.22396624 9.92776371,9.41552743 C9.92776371,9.60691983 10.083038,9.76219409 10.2744304,9.76219409 C10.4659916,9.76219409 10.6212658,9.60691983 10.6212658,9.41552743 C10.6212658,9.22396624 10.4659916,9.06886076 10.2744304,9.06886076" id="Fill-52" fill="#FFFFFF"></path>
                <path d="M9.63949367,9.2150211 L9.63949367,9.2150211 L9.6428692,9.21417722 L9.64388186,9.21097046 L10.2796624,7.26700422 L10.2796624,7.03696203 L10.2796624,6.94261603 L10.2796624,6.9135865 L10.2796624,6.8735865 L10.2796624,6.8492827 L10.2796624,6.82514768 L10.2796624,6.81198312 C10.2796624,6.80860759 10.2794937,6.80675105 10.2794937,6.80675105 C9.92556962,6.73434599 9.56151899,6.69434599 9.18902954,6.69434599 C9.06447257,6.69434599 8.94126582,6.69957806 8.8185654,6.70801688 C8.80067511,6.70919831 8.78278481,6.71021097 8.76489451,6.71156118 C8.12691983,6.76 7.4985654,6.9264135 6.91679325,7.19206751 C6.4178903,7.41974684 5.9542616,7.71983122 5.53755274,8.07578059 C5.53738397,8.07594937 5.53704641,8.07611814 5.53687764,8.0764557 C5.4249789,8.17147679 5.31780591,8.27189873 5.21299578,8.37451477 C5.19341772,8.39375527 5.17350211,8.41265823 5.1542616,8.43223629 C5.05552743,8.53147679 4.96033755,8.6342616 4.86818565,8.73991561 C4.84810127,8.7628692 4.82852321,8.78632911 4.80877637,8.80962025 C4.71628692,8.91881857 4.62616034,9.03004219 4.54075949,9.14514768 C4.53367089,9.15476793 4.52691983,9.16472574 4.51983122,9.17451477 C4.43831224,9.28540084 4.36084388,9.39915612 4.28607595,9.51476793 C4.27139241,9.53738397 4.25637131,9.55966245 4.24202532,9.58244726 C4.18160338,9.67831224 4.12540084,9.77687764 4.06953586,9.87561181 L6.96540084,9.87561181 L9.63949367,9.2150211" id="Fill-53" fill="#B6B7B4"></path>
                <path d="M12.0842194,8.99628692 C12.0901266,8.92033755 12.0948523,8.84455696 12.098903,8.76860759 C12.104135,8.66599156 12.1076793,8.56320675 12.1097046,8.46025316 C12.1112236,8.38059072 12.1110549,8.30059072 12.1107173,8.22075949 C12.1105485,8.19780591 12.1112236,8.17468354 12.1108861,8.15172996 C12.1088608,7.94582278 12.1007595,7.73991561 12.0881013,7.53367089 C12.0875949,7.53333333 12.0870886,7.53299578 12.0864135,7.53265823 C12.0862447,7.5321519 12.0859072,7.53164557 12.0857384,7.53113924 C12.0848945,7.53063291 12.0818565,7.52894515 12.0791561,7.52742616 C12.0767932,7.52590717 12.0745992,7.52472574 12.0700422,7.52219409 C12.0322363,7.50042194 11.9392405,7.44725738 11.855865,7.39983122 C11.8540084,7.39881857 11.8521519,7.39780591 11.8504641,7.39679325 C11.8293671,7.38481013 11.8089451,7.37333333 11.7905485,7.3628692 C11.790211,7.36270042 11.7897046,7.36236287 11.7895359,7.36219409 C11.7735021,7.35324895 11.7601688,7.34582278 11.7478481,7.33907173 C11.7454852,7.33755274 11.7421097,7.3356962 11.7397468,7.33434599 C11.7262447,7.32691983 11.7156118,7.32118143 11.7095359,7.31797468 C11.5763713,7.24894515 11.4406751,7.1849789 11.3024473,7.12658228 C10.9731646,6.98767932 10.5294515,6.86582278 10.2796624,6.80675105 L10.2796624,7.03696203 L10.2796624,7.26700422 L10.9097046,9.21417722 L10.9103797,9.21586498 C10.9753586,9.27780591 11.0313924,9.34902954 11.0762869,9.42751055 L11.0762869,9.42767932 C11.0909705,9.45333333 11.1044726,9.48 11.1166245,9.507173 C11.116962,9.50767932 11.1171308,9.50818565 11.1174684,9.50886076 C11.1294515,9.53586498 11.1402532,9.56371308 11.1497046,9.59206751 C11.1498734,9.59274262 11.150211,9.59341772 11.1503797,9.59392405 C11.1598312,9.62227848 11.1677637,9.65130802 11.174346,9.68084388 C11.1745148,9.68151899 11.1748523,9.68236287 11.1750211,9.68303797 C11.1816034,9.71291139 11.1866667,9.74312236 11.1903797,9.77400844 C11.1903797,9.77434599 11.1905485,9.77485232 11.1905485,9.77535865 C11.1942616,9.80658228 11.1962869,9.83831224 11.1967932,9.87037975 L11.1991561,9.87561181 L11.9706329,9.87561181 C12.0227848,9.59324895 12.0590717,9.307173 12.0820253,9.01991561 C12.0827004,9.01198312 12.0835443,9.00405063 12.0842194,8.99628692" id="Fill-54" fill="#E0DAD3"></path>
                <path id="Fill-55" fill="#F1AA48"></path>
                <path d="M11.2033755,12.6502954 C11.3783966,12.4761181 11.5436287,12.3093671 11.7012658,12.1458228 C11.7949367,12.0487764 11.8865823,11.9525738 11.9738397,11.8577215 C12.6187342,11.1578059 13.0921519,10.5027848 13.3768776,9.66025316 C13.3836287,9.64033755 13.390211,9.61383966 13.3967932,9.5843038 C13.3978059,9.57974684 13.3988186,9.57535865 13.3998312,9.57063291 C13.4064135,9.53924051 13.4129958,9.50413502 13.4194093,9.46481013 C13.4221097,9.43763713 13.4246414,9.41130802 13.427173,9.38582278 C13.3556118,9.01890295 13.2165401,8.66227848 13.0940084,8.31021097 C13.0945148,8.31139241 13.0950211,8.31257384 13.0953586,8.31375527 C13.0946835,8.31324895 13.0923207,8.31088608 13.0918143,8.31037975 C13.0683544,8.28810127 13.0437131,8.26734177 13.0199156,8.24540084 C12.9473418,8.1785654 12.8735865,8.11324895 12.798481,8.04995781 C12.5731646,7.85991561 12.3365401,7.68675105 12.0881013,7.53367089 C12.1007595,7.73991561 12.1088608,7.94582278 12.1108861,8.15172996 C12.1112236,8.17468354 12.1105485,8.19780591 12.1107173,8.22075949 C12.1110549,8.30059072 12.1112236,8.38059072 12.1097046,8.46025316 C12.1076793,8.56320675 12.104135,8.66599156 12.098903,8.76860759 C12.0948523,8.84455696 12.0901266,8.92033755 12.0842194,8.99628692 C12.0835443,9.00405063 12.0827004,9.01198312 12.0820253,9.01991561 C12.0590717,9.307173 12.0227848,9.59324895 11.9706329,9.87561181 L11.88,10.304135 C11.6908017,11.0713924 11.3063291,11.7674262 10.990211,12.4860759 C10.9063291,12.6767932 10.8270042,12.8693671 10.7571308,13.065654 C10.7508861,13.0837131 10.744135,13.1024473 10.737384,13.1211814 C10.8361181,13.017384 10.9235443,12.9275949 10.9900422,12.8619409 C11.0624473,12.790211 11.1336709,12.7196624 11.2033755,12.6502954" id="Fill-56" fill="#F1AA48"></path>
                <path d="M9.64388186,9.21097046 L9.64388186,9.21097046 C9.68523207,9.17232068 9.72978903,9.13738397 9.77755274,9.10666667 C9.77772152,9.10666667 9.7778903,9.10649789 9.77805907,9.10649789 C9.82531646,9.07611814 9.87561181,9.04995781 9.92827004,9.02852321 C9.92962025,9.0278481 9.93113924,9.02751055 9.93248945,9.02700422 C9.9843038,9.00607595 10.038481,8.98970464 10.0945148,8.9785654 C10.0965401,8.97822785 10.0985654,8.97805907 10.1005907,8.97772152 C10.1567932,8.96675105 10.2148523,8.96067511 10.2744304,8.96067511 C10.3350211,8.96067511 10.3942616,8.96691983 10.4514768,8.97805907 C10.4529958,8.97839662 10.454346,8.97839662 10.455865,8.97873418 C10.5129114,8.99021097 10.5681013,9.00708861 10.6209283,9.02852321 C10.6217722,9.02886076 10.6227848,9.02919831 10.6236287,9.02953586 C10.7308017,9.0735865 10.8278481,9.13721519 10.9103797,9.21586498 L10.9097046,9.21417722 L10.2796624,7.26700422 L9.64388186,9.21097046" id="Fill-57" fill="#8A8D88"></path>
                <path d="M9.42008439,10.2320675 C9.39831224,10.178903 9.38126582,10.1233755 9.36962025,10.065654 C9.36945148,10.0644726 9.3692827,10.0632911 9.36911392,10.0621097 C9.35780591,10.0043882 9.35156118,9.94481013 9.35156118,9.88371308 C9.35156118,9.85113924 9.35324895,9.81907173 9.35662447,9.78751055 C9.35729958,9.78008439 9.35898734,9.772827 9.35983122,9.76556962 C9.36303797,9.74126582 9.3664135,9.7171308 9.37130802,9.69367089 C9.372827,9.68675105 9.3750211,9.68016878 9.37654008,9.67341772 C9.3821097,9.64945148 9.38801688,9.62565401 9.39544304,9.60253165 C9.39696203,9.59763713 9.39898734,9.59308017 9.40067511,9.58818565 C9.40911392,9.56337553 9.41805907,9.53890295 9.42869198,9.51493671 C9.42987342,9.51223629 9.43139241,9.50953586 9.43257384,9.50683544 C9.44405063,9.48118143 9.45654008,9.45603376 9.47037975,9.43156118 C9.47088608,9.4307173 9.47156118,9.42970464 9.47189873,9.42886076 C9.5171308,9.34953586 9.57367089,9.27746835 9.63949367,9.2150211 L6.96540084,9.87561181 L6.96016878,9.87561181 L9.60894515,10.5221941 C9.52962025,10.4393249 9.46531646,10.3419409 9.42092827,10.2342616 C9.42059072,10.2335865 9.42042194,10.2329114 9.42008439,10.2320675" id="Fill-58" fill="#5F6360"></path>
                <path d="M15.436962,9.73113924 C15.4386498,9.71915612 15.4411814,9.70801688 15.4432068,9.69637131 C15.4499578,9.65839662 15.4578903,9.62126582 15.4681857,9.58616034 C15.4693671,9.5821097 15.4697046,9.57755274 15.4708861,9.57367089 L15.8199156,7.97603376 L15.8199156,7.0649789 C15.5348523,6.82953586 15.2295359,6.70075949 14.9115612,6.70075949 C14.5100422,6.70075949 14.1355274,6.92253165 13.8553586,7.1964557 C13.5490295,7.49620253 13.3122363,7.87341772 13.1206751,8.25400844 C13.1118987,8.27156118 13.1029536,8.28843882 13.0941772,8.30599156 C13.1532489,8.3571308 13.2116456,8.40894515 13.2691983,8.46160338 C13.3996624,8.58092827 13.5272574,8.70345992 13.6529958,8.82751055 C13.71173,8.88540084 13.7692827,8.94464135 13.8270042,9.00337553 C13.8881013,9.06565401 13.9495359,9.12793249 14.009789,9.19122363 C14.0872574,9.27274262 14.1642194,9.35510549 14.2403376,9.43814346 C14.2722363,9.47308017 14.3043038,9.50801688 14.3360338,9.54329114 C14.4276793,9.64472574 14.5189873,9.74683544 14.6087764,9.85012658 L14.6089451,9.85029536 C14.6239662,9.86616034 14.6345992,9.87746835 14.6386498,9.88202532 L15.425654,9.88202532 C15.425654,9.87561181 15.4268354,9.86987342 15.4270042,9.86345992 C15.4278481,9.81805907 15.4308861,9.77367089 15.436962,9.73113924" id="Fill-59" fill="#E0DAD3"></path>
                <path id="Fill-60" fill="#E0DAD3"></path>
                <path d="M3.59510549,10.8810127 C3.59729958,10.8751055 3.59983122,10.8693671 3.60202532,10.8634599 C3.652827,10.7309705 3.70835443,10.6001688 3.76658228,10.4707173 C3.78278481,10.4345992 3.79966245,10.3989873 3.81637131,10.363038 C3.86413502,10.2614346 3.91459916,10.1611814 3.96708861,10.0619409 C3.98835443,10.0214346 4.00911392,9.98092827 4.03122363,9.94092827 C4.04337553,9.91881857 4.05704641,9.89755274 4.06953586,9.87561181 C4.12540084,9.77687764 4.18160338,9.67831224 4.24202532,9.58244726 C4.25637131,9.55966245 4.27139241,9.53738397 4.28607595,9.51476793 C4.36084388,9.39915612 4.43831224,9.28540084 4.51983122,9.17451477 C4.52691983,9.16472574 4.53367089,9.15476793 4.54075949,9.14514768 C4.62616034,9.03004219 4.71628692,8.91881857 4.80877637,8.80962025 C4.82852321,8.78632911 4.84810127,8.7628692 4.86818565,8.73991561 C4.96033755,8.6342616 5.05552743,8.53147679 5.1542616,8.43223629 C5.17350211,8.41265823 5.19341772,8.39375527 5.21299578,8.37451477 C5.31780591,8.27189873 5.4249789,8.17147679 5.53687764,8.0764557 C5.53704641,8.07611814 5.53738397,8.07594937 5.53755274,8.07578059 C5.97755274,6.60135021 7.32421941,5.52810127 8.91763713,5.52810127 C9.55915612,5.52810127 10.196962,5.71274262 10.7436287,6.04725738 C11.3043038,6.39021097 11.7611814,6.89248945 12.0578903,7.47831224 C12.0594093,7.48118143 12.0609283,7.48421941 12.0624473,7.48708861 C12.0698734,7.50194093 12.0783122,7.51611814 12.0857384,7.53113924 C12.0859072,7.53164557 12.0862447,7.5321519 12.0864135,7.53265823 C12.0870886,7.53299578 12.0875949,7.53333333 12.0881013,7.53367089 C12.3365401,7.68675105 12.5733333,7.85991561 12.798481,8.04995781 C12.8735865,8.11324895 12.9473418,8.1785654 13.0199156,8.24540084 C13.0437131,8.26734177 13.0683544,8.28810127 13.0918143,8.31037975 C13.0923207,8.30953586 13.0926582,8.30869198 13.0931646,8.30767932 C13.0935021,8.307173 13.0938397,8.30649789 13.0940084,8.30599156 C13.1021097,8.2892827 13.110211,8.27240506 13.1183122,8.25603376 C13.3429536,6.83881857 13.9681013,5.8178903 14.7054852,5.8178903 C15.261097,5.8178903 15.7535865,6.39746835 16.0585654,7.28962025 L16.0617722,7.29907173 C16.0619409,7.29940928 16.0622785,7.29974684 16.062616,7.30008439 C16.148692,7.39375527 16.2327426,7.49687764 16.3140928,7.60995781 L16.3139241,7.60995781 C16.3156118,7.6121519 16.3171308,7.61400844 16.3188186,7.61620253 C16.3232068,7.62919831 16.3269198,7.64253165 16.3311392,7.65552743 L16.3311392,7.65535865 L16.3196624,7.60894515 C15.4023629,4.89333333 12.8339241,2.93822785 9.80877637,2.93822785 C6.01417722,2.93822785 2.93805907,6.01434599 2.93805907,9.80877637 C2.93805907,10.5567932 3.05772152,11.276962 3.27966245,11.947173 C3.27983122,11.9458228 3.28016878,11.9446414 3.28050633,11.9432911 C3.32421941,11.7412658 3.37654008,11.5402532 3.43729958,11.3414346 C3.48472574,11.1864979 3.53755274,11.0329114 3.59510549,10.8810127" id="Fill-61" fill="#4B4D4A"></path>
                <path d="M16.4222785,9.88472574 L16.182616,10.1527426 C16.1824473,10.1534177 16.1822785,10.1539241 16.1821097,10.1545992 C16.1729958,10.1897046 16.1618565,10.2227848 16.1495359,10.2545148 C16.1463291,10.2627848 16.1427848,10.2707173 16.1392405,10.2788186 C16.1296203,10.3012658 16.1194937,10.3225316 16.1083544,10.3427848 C16.1024473,10.3537553 16.0965401,10.3647257 16.0902954,10.3748523 C16.0803376,10.3908861 16.0697046,10.4054008 16.0587342,10.4194093 C16.043038,10.4398312 16.0264979,10.4582278 16.0091139,10.4745992 C16.0020253,10.4811814 15.9951055,10.4886076 15.9876793,10.4945148 C15.9741772,10.5053165 15.9603376,10.5142616 15.9459916,10.5223629 C15.9405907,10.5255696 15.9351899,10.5284388 15.9296203,10.5311392 C15.8953586,10.5478481 15.8592405,10.5576371 15.8217722,10.5576371 C15.6040506,10.5576371 15.4275105,10.2551899 15.4275105,9.88202532 L14.6362869,9.88202532 C14.6364557,9.88219409 14.6366245,9.88253165 14.6367932,9.88270042 C14.7836287,10.0523207 14.9281013,10.224135 15.0703797,10.3978059 C15.0722363,10.3998312 15.0739241,10.4018565 15.0756118,10.4040506 C15.2140084,10.5729958 15.3505485,10.7436287 15.4854008,10.9151055 C15.4919831,10.9235443 15.4987342,10.9319831 15.5053165,10.9404219 C15.6332489,11.1034599 15.7596624,11.2676793 15.8852321,11.4324051 C15.897384,11.4484388 15.9097046,11.4643038 15.9216878,11.4801688 C16.054346,11.6546835 16.1858228,11.8297046 16.3162869,12.0048945 C16.3171308,12.0060759 16.3181435,12.0072574 16.3189873,12.0086076 C16.5451477,11.3397468 16.6715612,10.6253165 16.6793249,9.88202532 L16.4246414,9.88202532 L16.4222785,9.88472574" id="Fill-62" fill="#FFFFFF"></path>
                <path d="M8.76489451,6.71156118 C8.78278481,6.71021097 8.80067511,6.70919831 8.8185654,6.70801688 C8.94126582,6.69957806 9.06447257,6.69434599 9.18902954,6.69434599 C9.56151899,6.69434599 9.92556962,6.73434599 10.2794937,6.80675105 C10.2794937,6.80675105 10.2796624,6.80877637 10.2796624,6.81198312 L10.2796624,6.82514768 L10.2796624,6.8492827 L10.2796624,6.8735865 L10.2796624,6.9135865 L10.2796624,6.94261603 L10.2796624,6.98194093 L10.2796624,6.80675105 C10.5294515,6.86582278 10.9731646,6.98767932 11.3024473,7.12658228 C11.4406751,7.1849789 11.5763713,7.24894515 11.7095359,7.31797468 C11.7156118,7.32118143 11.7262447,7.32691983 11.7397468,7.33434599 C11.7421097,7.3356962 11.7454852,7.33755274 11.7478481,7.33907173 C11.7601688,7.34582278 11.7736709,7.35341772 11.7895359,7.36219409 C11.7897046,7.36236287 11.790211,7.36270042 11.7905485,7.3628692 C11.8091139,7.37333333 11.8291983,7.38481013 11.8504641,7.39679325 C11.8521519,7.39780591 11.8540084,7.39881857 11.855865,7.39983122 C11.9404219,7.44793249 12.0342616,7.50160338 12.0700422,7.52219409 C12.0745992,7.52472574 12.0767932,7.52590717 12.0791561,7.52742616 C12.0810127,7.52843882 12.0850633,7.53080169 12.0857384,7.53113924 C12.0783122,7.51611814 12.0698734,7.50194093 12.0624473,7.48708861 C12.0609283,7.48421941 12.0594093,7.48118143 12.0578903,7.47831224 C11.7611814,6.89248945 11.3043038,6.39021097 10.7436287,6.04725738 C10.196962,5.71274262 9.55915612,5.52810127 8.91763713,5.52810127 C7.32421941,5.52810127 5.97755274,6.60135021 5.53755274,8.07578059 C5.9542616,7.71983122 6.4178903,7.41974684 6.91679325,7.19206751 C7.4985654,6.9264135 8.12691983,6.76 8.76489451,6.71156118" id="Fill-63" fill="#1A1918"></path>
                <path id="Stroke-64" stroke-linecap="round" stroke-linejoin="round"></path>
                <path d="M13.8553586,7.1964557 C14.1355274,6.92253165 14.5100422,6.70075949 14.9115612,6.70075949 C15.2295359,6.70075949 15.5348523,6.82953586 15.8199156,7.0649789 L15.8199156,7.06767932 L15.8199156,7.06818565 L15.8199156,7.06767932 C15.8454008,7.08877637 15.8703797,7.11240506 15.8956962,7.13518987 C15.9108861,7.14902954 15.9264135,7.16168776 15.9416034,7.17620253 C15.9816034,7.21451477 16.021097,7.2550211 16.0602532,7.29755274 C16.061097,7.29839662 16.0617722,7.29924051 16.062616,7.30008439 C16.0622785,7.29991561 16.0621097,7.29957806 16.0617722,7.29924051 L16.0617722,7.29924051 L16.0585654,7.28962025 C15.7535865,6.39746835 15.261097,5.8178903 14.7054852,5.8178903 C13.9681013,5.8178903 13.3429536,6.83881857 13.1183122,8.25603376 L13.1206751,8.25400844 C13.3122363,7.87341772 13.5490295,7.49620253 13.8553586,7.1964557" id="Fill-65" fill="#1A1918"></path>
                <path d="M7.34869198,16.2178903 C7.41147679,16.2418565 7.47527426,16.2636287 7.53890295,16.2859072 C8.24962025,16.5350211 9.012827,16.6720675 9.80877637,16.6720675 C10.7162869,16.6720675 11.5817722,16.4945148 12.3748523,16.1748523 C12.4167089,16.1579747 12.4578903,16.1395781 12.4994093,16.1218565 C12.5667511,16.0931646 12.6335865,16.0636287 12.6997468,16.0329114 C12.7589873,16.0054008 12.8182278,15.9780591 12.8766245,15.9490295 C12.8624473,15.9507173 12.8484388,15.9534177 12.8342616,15.9549367 C12.5878481,15.9827848 12.3431224,15.9843038 12.104135,15.9500422 C10.6904641,15.7468354 10.3772152,15.0651477 10.4221097,14.3552743 C10.3203376,14.2967089 10.2167089,14.2305485 10.1113924,14.1540928 C9.02413502,13.3654008 8.37890295,12.5250633 8.37890295,12.5250633 C8.37890295,12.5250633 9.21755274,13.1724895 10.4703797,13.6570464 C10.4972152,13.6675105 10.5223629,13.6764557 10.548692,13.6864135 C10.6072574,13.4840506 10.6764557,13.2916456 10.737384,13.1211814 C10.744135,13.1024473 10.7508861,13.0837131 10.7571308,13.065654 C10.8270042,12.8693671 10.9063291,12.6767932 10.990211,12.4860759 C11.3063291,11.7674262 11.6908017,11.0713924 11.88,10.304135 L11.9706329,9.87561181 L11.1974684,9.87561181 L11.1974684,9.8771308 L11.1971308,9.87729958 C11.1971308,9.87949367 11.1974684,9.88151899 11.1974684,9.88371308 C11.1974684,10.0111392 11.1716456,10.1324895 11.1248945,10.243038 C11.1016034,10.2982278 11.0730802,10.3507173 11.0398312,10.3996624 C10.9735021,10.4978903 10.8887764,10.5827848 10.7905485,10.6491139 C10.7414346,10.6821941 10.6889451,10.7107173 10.6337553,10.7341772 C10.5233755,10.7809283 10.4018565,10.8067511 10.2744304,10.8067511 C10.2420253,10.8067511 10.2101266,10.8048945 10.1785654,10.8016878 C10.1711392,10.8008439 10.1640506,10.7993249 10.1567932,10.7983122 C10.1326582,10.7952743 10.108692,10.7920675 10.0852321,10.7870042 C10.0786498,10.785654 10.0724051,10.7836287 10.0658228,10.7821097 C10.0418565,10.7765401 10.0178903,10.7706329 9.99459916,10.7632068 C9.99021097,10.7618565 9.98616034,10.76 9.98177215,10.758481 C9.95662447,10.7500422 9.93164557,10.7409283 9.90734177,10.7302954 C9.90531646,10.7294515 9.90312236,10.72827 9.90109705,10.7272574 C9.87493671,10.7156118 9.8492827,10.7031224 9.82447257,10.6891139 C9.82413502,10.6889451 9.82379747,10.6887764 9.82329114,10.6884388 C9.74396624,10.6437131 9.67172996,10.5875105 9.60894515,10.5221941 L6.96016878,9.87561181 L4.06953586,9.87561181 C4.05704641,9.89755274 4.04337553,9.91881857 4.03122363,9.94092827 C4.00911392,9.98092827 3.98835443,10.0216034 3.96708861,10.0619409 C3.91459916,10.1611814 3.86413502,10.2614346 3.81637131,10.363038 C3.79949367,10.3988186 3.78278481,10.4347679 3.76658228,10.4707173 C3.70835443,10.6001688 3.652827,10.7309705 3.60202532,10.8634599 C3.59983122,10.8693671 3.59729958,10.8751055 3.59510549,10.8810127 C3.53755274,11.0329114 3.48472574,11.1864979 3.43729958,11.3414346 C3.37654008,11.5402532 3.32421941,11.7412658 3.28050633,11.9432911 C3.7356962,13.331308 4.62092827,14.5238819 5.77839662,15.364557 C5.8121519,15.3890295 5.84759494,15.4108017 5.88185654,15.4345992 C6.07746835,15.5714768 6.27983122,15.6995781 6.48962025,15.8156962 C6.76523207,15.96827 7.05164557,16.1037975 7.34869198,16.2178903" id="Fill-66" fill="#FFFFFF"></path>
                <path d="M12.0923207,14.0837131 C12.0818565,14.1574684 12.0745992,14.2297046 12.0725738,14.2995781 C12.0685232,14.4266667 12.0772996,14.5473418 12.0956962,14.6614346 C12.1080169,14.7375527 12.124557,14.8106329 12.1444726,14.8806751 C12.174346,14.985654 12.2118143,15.0835443 12.2538397,15.1741772 C12.2956962,15.2649789 12.3419409,15.3481857 12.3895359,15.4236287 C12.4054008,15.4487764 12.4214346,15.4730802 12.4374684,15.4965401 C12.4616034,15.5316456 12.4857384,15.5647257 12.5095359,15.5957806 C12.541097,15.6371308 12.5716456,15.6734177 12.6011814,15.7075105 C12.7270886,15.8524895 12.8264979,15.9311392 12.8264979,15.9311392 C12.8264979,15.9311392 12.827173,15.9335021 12.8285232,15.9375527 C12.8298734,15.9417722 12.8318987,15.9476793 12.8342616,15.9549367 C12.8484388,15.9534177 12.8624473,15.9507173 12.8766245,15.9490295 C13.1829536,15.9105485 13.4914768,15.8276793 13.7961181,15.7181435 C13.9513924,15.6622785 14.1059916,15.6016878 14.2580591,15.5323207 C14.3044726,15.5110549 14.3498734,15.4875949 14.3959494,15.4653165 C15.9696203,14.7043038 17.2875949,13.3583122 17.2875949,13.3583122 C15.310211,14.3299578 13.3775527,14.2911392 12.0923207,14.0837131" id="Fill-67" fill="#8B234A"></path>
                <path d="M15.8852321,11.4324051 C15.7596624,11.2676793 15.6332489,11.1034599 15.5053165,10.9404219 C15.4987342,10.9319831 15.4919831,10.9235443 15.4854008,10.9151055 C15.3505485,10.7436287 15.2140084,10.5729958 15.0756118,10.4040506 C15.0739241,10.4018565 15.0722363,10.3998312 15.0703797,10.3978059 C14.9281013,10.224135 14.7836287,10.0523207 14.6367932,9.88270042 C14.6275105,9.87189873 14.6182278,9.86092827 14.6087764,9.85012658 C14.5189873,9.74683544 14.4276793,9.64472574 14.3360338,9.54329114 C14.304135,9.50801688 14.2724051,9.47291139 14.2403376,9.43814346 C14.1642194,9.35510549 14.0872574,9.27274262 14.009789,9.19122363 C13.9493671,9.12810127 13.88827,9.06565401 13.8270042,9.00337553 C13.7692827,8.94464135 13.71173,8.88540084 13.6529958,8.82751055 C13.5270886,8.70345992 13.3996624,8.58092827 13.2691983,8.46160338 C13.2114768,8.40894515 13.1530802,8.35696203 13.0940084,8.30599156 C13.0938397,8.30649789 13.0935021,8.307173 13.0931646,8.30767932 C13.217384,8.66447257 13.3589873,9.02582278 13.4298734,9.39780591 C13.4484388,9.49468354 13.4636287,9.58886076 13.4761181,9.68084388 C13.6489451,10.9686076 13.2364557,11.8096203 12.5809283,12.9157806 C12.5340084,12.9949367 12.4857384,13.0756118 12.4364557,13.1578059 C12.2865823,13.4077637 12.1905485,13.6443882 12.1350211,13.8664979 C12.1164557,13.9405907 12.1024473,14.0129958 12.0923207,14.0837131 C13.3775527,14.2911392 15.310211,14.3299578 17.2875949,13.3583122 C17.2875949,13.3583122 16.8997468,12.7883544 16.3162869,12.0048945 C16.1858228,11.8297046 16.054346,11.6546835 15.9216878,11.4801688 C15.9097046,11.4643038 15.897384,11.4484388 15.8852321,11.4324051" id="Fill-68" fill="#D11564"></path>
                <path d="M12.8264979,15.9311392 C12.8264979,15.9311392 12.7270886,15.8524895 12.6011814,15.7075105 C12.5716456,15.6734177 12.541097,15.6371308 12.5095359,15.5957806 C12.4857384,15.5647257 12.4616034,15.5316456 12.4374684,15.4965401 C12.4214346,15.4730802 12.4054008,15.4487764 12.3895359,15.4236287 C12.3419409,15.3481857 12.2956962,15.2649789 12.2538397,15.1741772 C12.2118143,15.0835443 12.174346,14.985654 12.1444726,14.8806751 C12.124557,14.8106329 12.1080169,14.7375527 12.0956962,14.6614346 C12.0772996,14.5473418 12.0685232,14.4266667 12.0725738,14.2995781 C12.0745992,14.2297046 12.0818565,14.1574684 12.0923207,14.0837131 C12.1024473,14.0129958 12.1164557,13.9405907 12.1350211,13.8664979 C12.1905485,13.6443882 12.2865823,13.4077637 12.4364557,13.1578059 C12.436962,13.1571308 12.4372996,13.1564557 12.4376371,13.1557806 C12.4865823,13.0742616 12.534346,12.9942616 12.5809283,12.9157806 C13.2364557,11.8096203 13.6489451,10.9686076 13.4761181,9.68084388 C13.4636287,9.58886076 13.4484388,9.49468354 13.4298734,9.39780591 C13.4200844,9.46481013 13.4101266,9.52236287 13.3998312,9.57063291 C13.3988186,9.57535865 13.3978059,9.57974684 13.3967932,9.5843038 C13.390211,9.61367089 13.3836287,9.64033755 13.3768776,9.66025316 C13.0921519,10.5027848 12.6187342,11.1578059 11.9738397,11.8577215 C11.8865823,11.9525738 11.7949367,12.0487764 11.7012658,12.1458228 C11.5436287,12.3093671 11.3783966,12.4761181 11.2033755,12.6502954 C11.1336709,12.7196624 11.0624473,12.790211 10.9900422,12.8619409 C10.9235443,12.9275949 10.8361181,13.017384 10.737384,13.1211814 C10.6764557,13.2916456 10.6072574,13.4840506 10.548692,13.6864135 C10.5223629,13.6764557 10.4972152,13.6675105 10.4703797,13.6570464 C9.21755274,13.1724895 8.37890295,12.5250633 8.37890295,12.5250633 C8.37890295,12.5250633 9.02413502,13.3654008 10.1113924,14.1540928 C10.2167089,14.2305485 10.3203376,14.2967089 10.4221097,14.3552743 C10.3772152,15.0651477 10.6904641,15.7468354 12.104135,15.9500422 C12.3431224,15.9843038 12.5878481,15.9827848 12.8342616,15.9549367 C12.8318987,15.9476793 12.8298734,15.9417722 12.8285232,15.9375527 C12.827173,15.9335021 12.8264979,15.9311392 12.8264979,15.9311392" id="Fill-69" fill="#1A1918"></path>
            </g>
        </g>
    </g>
</svg>