<?xml version="1.0" encoding="UTF-8"?>
<svg width="130px" height="60px" viewBox="0 0 130 60" version="1.1" xmlns="http://www.w3.org/2000/svg" xmlns:xlink="http://www.w3.org/1999/xlink">
    <!-- Generator: Sketch 40.2 (33826) - http://www.bohemiancoding.com/sketch -->
    <title>logo_CMS</title>
    <desc>Created with Sketch.</desc>
    <defs>
        <polygon id="path-1" points="10.1305842 17.4922612 10.1305842 0.0197525773 0.0687560137 0.0197525773 0.0687560137 17.4922612 10.1305842 17.4922612"></polygon>
        <polygon id="path-3" points="52.3573883 0.102268041 0 0.102268041 0 9.73109966 0 19.3599313 52.3573883 19.3599313 52.3573883 0.102268041"></polygon>
    </defs>
    <g id="Page-1" stroke="none" stroke-width="1" fill="none" fill-rule="evenodd">
        <g id="Artboard">
            <g id="webasyst" transform="translate(0.000000, 19.000000)">
                <g id="Group-3" transform="translate(109.828179, 2.234502)">
                    <mask id="mask-2" fill="white">
                        <use xlink:href="#path-1"></use>
                    </mask>
                    <g id="Clip-2"></g>
                    <path d="M0.0687560137,5.21562887 L2.19934021,5.51803436 L1.22339519,12.5145979 C1.01720962,14.0266254 1.18215808,15.1675189 1.71824055,15.9510241 C2.26806873,16.7207835 3.23026804,17.2156289 4.61858419,17.4080687 C5.30586942,17.5042887 6.0342543,17.5180344 6.8041512,17.4493058 C7.56016495,17.3805773 8.24745017,17.256866 8.85212371,17.0781718 L8.46738144,14.1640825 C8.12373883,14.2603024 7.80758763,14.3152852 7.51892784,14.3427766 C7.23026804,14.370268 6.87287973,14.3427766 6.46050859,14.2877938 C5.80071478,14.1915739 5.40208935,13.8891684 5.23714089,13.3668316 C5.08593814,12.8444948 5.08593814,12.0197526 5.23714089,10.9063505 L5.92442612,6.05411684 L9.69074914,6.57645361 L10.1306117,3.45617869 L6.36428866,2.93384192 L6.77665979,0.0197525773 L2.91411684,0.473360825 L2.63920275,2.39775945 L0.508618557,2.09535395 L0.0687560137,5.21562887 Z" id="Fill-1" fill="#00CDFF" mask="url(#mask-2)"></path>
                </g>
                <path d="M96.0274639,17.5532234 C96.5635464,17.9655945 97.278323,18.3229828 98.1717938,18.5978969 C99.0652646,18.8865567 100.04121,19.0789966 101.085883,19.1889622 C103.037773,19.3951478 104.536055,19.1339794 105.594474,18.4192027 C106.652893,17.7044261 107.257704,16.5910241 107.422653,15.0927423 C107.505127,14.3229828 107.422653,13.6769347 107.17523,13.1271065 C106.927808,12.5910241 106.611656,12.1374158 106.199285,11.7662818 C105.786914,11.3951478 105.31956,11.0927423 104.797223,10.8453196 C104.274887,10.5978969 103.766296,10.3779656 103.285196,10.1855258 C102.625402,9.92435739 102.075574,9.663189 101.621966,9.40202062 C101.168357,9.14085223 100.962172,8.81095533 101.003409,8.39858419 C101.058392,7.93123024 101.237086,7.62882474 101.566983,7.46387629 C101.89688,7.31267354 102.364234,7.25769072 102.98279,7.32641924 C103.738804,7.40889347 104.453581,7.57384192 105.168357,7.83501031 C105.869388,8.09617869 106.446708,8.34360137 106.88657,8.57727835 L107.958735,5.81439175 C107.408907,5.49824055 106.680385,5.20958076 105.759423,4.92092096 C104.83846,4.63226117 103.84877,4.43982131 102.776605,4.31610997 C101.12712,4.13741581 99.8350241,4.38483849 98.8865704,5.0308866 C97.9381168,5.67693471 97.3882887,6.70786254 97.2370859,8.1236701 C97.1546117,8.94841237 97.2233402,9.63569759 97.4707629,10.2130172 C97.7044399,10.7765911 98.0343368,11.2576907 98.4604536,11.6288247 C98.8865704,12.0137045 99.3539244,12.3298557 99.8762612,12.5772784 C100.398598,12.824701 100.907189,13.058378 101.388289,13.2508179 C102.048082,13.5119863 102.597911,13.7731546 103.037773,14.034323 C103.477636,14.2817457 103.683821,14.6253883 103.628838,15.0652509 C103.573856,15.6013333 103.353924,15.9449759 102.996536,16.1099244 C102.625402,16.2748729 102.130557,16.31611 101.512,16.2473814 C101.099629,16.2061443 100.701003,16.1236701 100.302378,16.0137045 C99.9037526,15.9037388 99.5188729,15.7662818 99.1477388,15.615079 C98.7766048,15.4638763 98.4329622,15.3126735 98.116811,15.1477251 C97.8006598,14.9827766 97.5257457,14.8315739 97.2920687,14.6803711 L96.0274639,17.5532234 Z" id="Fill-4" fill="#FFC800"></path>
                <g id="Group-8" transform="translate(80.962199, 4.296357)" fill="#FF5600">
                    <path d="M4.63228866,0.280934708 L0.0824604811,0.047257732 L5.80067354,14.5902131 C5.64947079,15.0438213 5.48452234,15.4149553 5.29208247,15.6898694 C5.11338832,15.9647835 4.90720275,16.1572234 4.70101718,16.3084261 C4.49483162,16.4458832 4.27490034,16.5421031 4.04122337,16.5833402 C3.80754639,16.6245773 3.56012371,16.638323 3.31270103,16.6245773 C3.02404124,16.6108316 2.74912715,16.5558488 2.48795876,16.4458832 L1.55325086,19.3049897 C1.85565636,19.4836838 2.21304467,19.6211409 2.62541581,19.7311065 C3.03778694,19.8273265 3.47764948,19.896055 3.94500344,19.9235464 C4.64603436,19.9647835 5.26459107,19.8410722 5.78692784,19.5524124 C6.3092646,19.2637526 6.80410997,18.8376357 7.24397251,18.2603162 C7.68383505,17.6967423 8.10995189,16.9957113 8.49483162,16.1709691 C8.89345704,15.3462268 9.30582818,14.4115189 9.75943643,13.3805911 L15.1065155,0.844508591 L11.2577182,0.638323024 L8.4535945,8.33591753 L7.8212921,10.5627216 L7.54637801,10.5489759 L7.07902405,8.2534433 L4.63228866,0.280934708 Z" id="Fill-6"></path>
                </g>
                <path d="M70.1580893,18.8590653 C70.776646,19.1339794 71.5464055,19.2989278 72.4811134,19.3676564 C73.4158213,19.4226392 74.405512,19.3814021 75.4501856,19.2301993 C77.3883299,18.9552852 78.7903918,18.3504742 79.6426254,17.3882749 C80.4948591,16.4398213 80.824756,15.2164536 80.6048247,13.7181718 C80.4948591,12.9484124 80.2611821,12.3436014 79.8900481,11.8762474 C79.5189141,11.4088935 79.0927973,11.0515052 78.6116976,10.7903368 C78.1168522,10.5291684 77.5945155,10.3504742 77.0171959,10.2405086 C76.453622,10.130543 75.9037938,10.034323 75.381457,9.9655945 C74.6804261,9.86937457 74.0756151,9.74566323 73.5807698,9.60820619 C73.0859244,9.47074914 72.7972646,9.19583505 72.7422818,8.78346392 C72.6735533,8.31610997 72.7835189,7.97246735 73.058433,7.75253608 C73.3333471,7.51885911 73.7869553,7.36765636 74.405512,7.27143643 C75.1477801,7.16147079 75.9037938,7.16147079 76.6460619,7.24394502 C77.3883299,7.32641924 78.0068866,7.42263918 78.501732,7.54635052 L78.872866,4.60476976 C78.268055,4.43982131 77.4845498,4.32985567 76.5223505,4.27487285 C75.5601512,4.21989003 74.5429691,4.26112715 73.4845498,4.4123299 C71.848811,4.64600687 70.639189,5.18208935 69.8831753,6.04806873 C69.1134158,6.91404811 68.824756,8.04119588 69.0309416,9.44325773 C69.1409072,10.268 69.3883299,10.9140481 69.7594639,11.4088935 C70.1305979,11.9037388 70.5567148,12.2748729 71.0653058,12.5497869 C71.5601512,12.8109553 72.0962337,13.0033952 72.6735533,13.1271065 C73.2371271,13.2508179 73.7869553,13.3470378 74.3092921,13.4157663 C75.010323,13.5119863 75.615134,13.6356976 76.0962337,13.7731546 C76.591079,13.9106117 76.8659931,14.1992715 76.9209759,14.6253883 C76.9897045,15.1614708 76.8797388,15.5463505 76.5498419,15.7937732 C76.2336907,16.0411959 75.7525911,16.2061443 75.1340344,16.2886186 C74.7216632,16.3436014 74.3092921,16.3710928 73.9106667,16.3573471 C73.4982955,16.3436014 73.0996701,16.3023643 72.7010447,16.2611271 C72.3024192,16.2061443 71.9312852,16.1374158 71.5876426,16.0686873 C71.244,15.9862131 70.9278488,15.9037388 70.6666804,15.8212646 L70.1580893,18.8590653 Z" id="Fill-9" fill="#00AC00"></path>
                <path d="M58.5016907,15.6700344 C58.116811,15.3676289 57.9106254,14.8865292 57.8693883,14.2404811 C57.8418969,13.7181443 58.0480825,13.2782818 58.5016907,12.8934021 C58.955299,12.522268 59.6563299,12.3023368 60.6322749,12.2610997 C60.8109691,12.247354 61.0171546,12.247354 61.2370859,12.2610997 C61.4570172,12.2610997 61.6906942,12.2885911 61.9106254,12.3023368 C62.1305567,12.3298282 62.350488,12.3573196 62.5291821,12.3710653 C62.721622,12.3985567 62.859079,12.4260481 62.955299,12.4535395 L63.0377732,14.0617869 C62.8315876,14.5016495 62.4741993,14.941512 61.9930997,15.3538832 C61.512,15.78 60.8522062,16.013677 59.9999725,16.0549141 C59.3951615,16.1098969 58.8865704,15.9861856 58.5016907,15.6700344 L58.5016907,15.6700344 Z M55.697567,8.78343643 C56.3161237,8.43979381 57.0171546,8.15113402 57.8281512,7.90371134 C58.6391478,7.65628866 59.46389,7.50508591 60.3298694,7.4638488 C61.2645773,7.40886598 61.9106254,7.54632302 62.2680137,7.84872852 C62.6254021,8.15113402 62.8178419,8.64597938 62.859079,9.3332646 C62.8728247,9.60817869 62.859079,9.9243299 62.8315876,10.3092096 C62.6254021,10.2817182 62.2817595,10.2404811 61.7731684,10.1854983 C61.2645773,10.1305155 60.7559863,10.1167698 60.2611409,10.1442612 C58.0893196,10.2542268 56.4948179,10.7490722 55.46389,11.6287973 C54.4329622,12.4947766 53.9656082,13.73189 54.0480825,15.3263918 C54.0755739,15.917457 54.2130309,16.4535395 54.4741993,16.9483849 C54.721622,17.4432302 55.0652646,17.8556014 55.4776357,18.199244 C55.9037526,18.5428866 56.3985979,18.804055 56.9759175,18.9690034 C57.5532371,19.1339519 58.1855395,19.2026804 58.859079,19.1614433 C59.9862268,19.1064605 60.907189,18.8315464 61.5944742,18.3504467 C62.2817595,17.8693471 62.8453333,17.2920275 63.2851959,16.6459794 L63.6013471,16.6322337 L64.3298694,18.6940893 L67.3951615,18.5291409 C67.1614845,17.9518213 66.9965361,17.3332646 66.8728247,16.7009622 C66.7491134,16.0549141 66.6666392,15.3951203 66.6391478,14.7215808 C66.5841649,13.7181443 66.5704192,12.7696907 66.5979107,11.8624742 C66.6254021,10.9552577 66.6116564,10.0480412 66.5566735,9.14082474 C66.5154364,8.384811 66.3917251,7.71127148 66.1992852,7.09271478 C65.9930997,6.48790378 65.6906942,5.96556701 65.2645773,5.55319588 C64.8522062,5.14082474 64.2886323,4.82467354 63.6150928,4.63223368 C62.9278076,4.43979381 62.0893196,4.35731959 61.1133746,4.41230241 C59.8625155,4.48103093 58.6528935,4.65972509 57.4845086,4.94838488 C56.3161237,5.23704467 55.3401787,5.59443299 54.5566735,5.99305842 L55.697567,8.78343643 Z" id="Fill-11" fill="#006ECB"></path>
                <g id="Group-15" transform="translate(0.000000, 0.035189)">
                    <mask id="mask-4" fill="white">
                        <use xlink:href="#path-3"></use>
                    </mask>
                    <g id="Clip-14"></g>
                    <path d="M47.7388316,8.62453608 C47.257732,7.95099656 46.5292096,7.62109966 45.580756,7.62109966 C44.7697595,7.62109966 44.1237113,7.81353952 43.628866,8.18467354 C43.1340206,8.55580756 42.7628866,9.11938144 42.5154639,9.86164948 L42.5154639,15.7585567 C42.8728522,15.9372509 43.257732,16.0472165 43.6563574,16.0884536 C44.0549828,16.1296907 44.4948454,16.1571821 44.9621993,16.1571821 C47.2989691,16.1571821 48.467354,14.6314089 48.467354,11.5798625 C48.467354,10.2877663 48.2199313,9.2980756 47.7388316,8.62453608 L47.7388316,8.62453608 Z M51.8213058,14.8101031 C51.4776632,15.7860481 50.9690722,16.5970447 50.3230241,17.2568385 C49.6769759,17.9166323 48.8797251,18.4252234 47.9450172,18.7826117 C47.0103093,19.1262543 45.9656357,19.3049485 44.7972509,19.3049485 C43.4501718,19.3049485 42.2405498,19.2087285 41.1821306,19.0162887 C40.1237113,18.8238488 39.2989691,18.6176632 38.7353952,18.3839863 L38.7353952,0.102199313 L42.5017182,0.102199313 L42.5017182,6.02659794 L42.8316151,6.02659794 C43.257732,5.54549828 43.8213058,5.16061856 44.4948454,4.88570447 C45.1683849,4.61079038 45.9106529,4.47333333 46.7216495,4.47333333 C48.5498282,4.47333333 49.95189,5.06439863 50.9140893,6.26027491 C51.8762887,7.4561512 52.3573883,9.20185567 52.3573883,11.4973883 C52.3436426,12.7345017 52.1649485,13.8341581 51.8213058,14.8101031 L51.8213058,14.8101031 Z M32.5085911,8.23965636 C32.0824742,7.66233677 31.3676976,7.37367698 30.3780069,7.37367698 C29.2646048,7.37367698 28.4398625,7.67608247 27.9037801,8.28089347 C27.3676976,8.88570447 27.0515464,9.65546392 26.9553265,10.5901718 L33.0446735,10.5901718 C33.1271478,9.5867354 32.9484536,8.81697595 32.5085911,8.23965636 L32.5085911,8.23965636 Z M36.4948454,11.4149141 C36.4536082,11.8685223 36.371134,12.3358763 36.2611684,12.8169759 L26.8316151,12.8169759 C26.9278351,14.0403436 27.2714777,14.9475601 27.8900344,15.5248797 C28.5085911,16.1021993 29.5257732,16.4046048 30.9140893,16.4046048 C31.7525773,16.4046048 32.5223368,16.2808935 33.1958763,16.0472165 C33.8694158,15.7997938 34.3917526,15.5523711 34.7491409,15.3049485 L36.0412371,17.6692096 C35.4364261,18.1365636 34.5979381,18.535189 33.5532646,18.8650859 C32.5085911,19.1949828 31.3814433,19.3599313 30.1718213,19.3599313 C27.7525773,19.3599313 25.9656357,18.7001375 24.838488,17.3668041 C23.7113402,16.0334708 23.1477663,14.2190378 23.1477663,11.8960137 C23.1477663,9.43553265 23.7800687,7.56611684 25.0584192,6.30151203 C26.3367698,5.03690722 28.1237113,4.40460481 30.4467354,4.40460481 C31.2027491,4.40460481 31.9450172,4.50082474 32.6872852,4.6932646 C33.4295533,4.88570447 34.0756014,5.20185567 34.652921,5.64171821 C35.2302405,6.08158076 35.6838488,6.67264605 36.0412371,7.41491409 C36.3848797,8.15718213 36.5635739,9.07814433 36.5635739,10.1778007 C36.5498282,10.5489347 36.5360825,10.9613058 36.4948454,11.4149141 L36.4948454,11.4149141 Z M12.9209622,4.81697595 L12.9209622,4.81697595 C12.9209622,4.80323024 12.9209622,4.80323024 12.9209622,4.81697595 L12.9209622,4.81697595 Z M22.652921,4.81697595 L17.8281787,19.0987629 L15.1065292,19.0987629 C13.6219931,15.3186942 11.3814433,9.47676976 11.3814433,9.47676976 L7.80756014,19.0987629 L4.94845361,19.0987629 L0,4.81697595 L4.09621993,4.81697595 L6.91408935,13.9578694 L10.2405498,4.81697595 L12.9347079,4.81697595 C12.9896907,4.9956701 16.3986254,13.9578694 16.3986254,13.9578694 C16.3986254,13.9578694 19.2852234,4.54206186 19.2164948,4.81697595 L22.652921,4.81697595 Z" id="Fill-13" fill="#000000" mask="url(#mask-4)"></path>
                </g>
            </g>
        </g>
    </g>
</svg>