<?xml version="1.0" encoding="UTF-8"?>
<svg width="130px" height="60px" viewBox="0 0 130 60" version="1.1" xmlns="http://www.w3.org/2000/svg" xmlns:xlink="http://www.w3.org/1999/xlink">
    <!-- Generator: Sketch 40.2 (33826) - http://www.bohemiancoding.com/sketch -->
    <title>logo_CMS</title>
    <desc>Created with Sketch.</desc>
    <defs>
        <polygon id="path-1" points="6.24971429 8.95174286 6.24971429 0.270028571 0.276942857 0.270028571 0.276942857 8.95174286 6.24971429 8.95174286"></polygon>
    </defs>
    <g id="Page-1" stroke="none" stroke-width="1" fill="none" fill-rule="evenodd">
        <g id="Artboard">
            <g id="wordpress" transform="translate(0.000000, 18.000000)">
                <path d="M63.8497429,17.4096 L63.6803143,17.4096 C62.8097429,17.4096 62.6891714,17.1918857 62.6891714,16.0796 L62.6891714,10.8321714 L63.8497429,10.8321714 C66.3646,10.8321714 66.8240286,12.6696 66.8240286,14.0964571 C66.8240286,15.5716 66.3646,17.4096 63.8497429,17.4096 L63.8497429,17.4096 Z M53.6448857,14.0478857 L53.6448857,10.8321714 L54.6363143,10.8321714 C55.7246,10.8321714 56.2083143,11.5816 56.2083143,12.4518857 C56.2083143,13.2984571 55.7246,14.0478857 54.6363143,14.0478857 L53.6448857,14.0478857 Z M63.7771714,10.1064571 L59.4486,10.1064571 L59.4486,10.5658857 C60.8026,10.5658857 61.0203143,10.8561714 61.0203143,12.5730286 L61.0203143,15.6684571 C61.0203143,17.3853143 60.8026,17.6998857 59.4486,17.6998857 C58.4088857,17.5547429 57.7074571,16.9984571 56.7400286,15.9344571 L55.6280286,14.7253143 C57.1271714,14.4593143 57.9251714,13.5161714 57.9251714,12.4518857 C57.9251714,11.1221714 56.7886,10.1064571 54.6606,10.1064571 L50.4043143,10.1064571 L50.4043143,10.5658857 C51.7586,10.5658857 51.9760286,10.8561714 51.9760286,12.5730286 L51.9760286,15.6684571 C51.9760286,17.3853143 51.7586,17.6998857 50.4043143,17.6998857 L50.4043143,18.1590286 L55.2166,18.1590286 L55.2166,17.6998857 C53.8626,17.6998857 53.6448857,17.3853143 53.6448857,15.6684571 L53.6448857,14.7978857 L54.0560286,14.7978857 L56.7400286,18.1590286 L63.7771714,18.1590286 C67.2354571,18.1590286 68.7346,16.3213143 68.7346,14.1204571 C68.7346,11.9201714 67.2354571,10.1064571 63.7771714,10.1064571 L63.7771714,10.1064571 Z" id="Fill-1" fill="#2E7A9A"></path>
                <path d="M36.9354,14.9430571 L38.6039714,10.0093429 C39.0876857,8.58277143 38.8699714,8.17191429 37.3222571,8.17191429 L37.3222571,7.68791429 L41.8688286,7.68791429 L41.8688286,8.17191429 C40.3454,8.17191429 39.9825429,8.53448571 39.3779714,10.2999143 L36.6208286,18.5702 L36.3068286,18.5702 L33.8399714,11.0010571 L31.3251143,18.5702 L31.0108286,18.5702 L28.3265429,10.2999143 C27.7462571,8.53448571 27.3591143,8.17191429 25.9565429,8.17191429 L25.9565429,7.68791429 L31.3251143,7.68791429 L31.3251143,8.17191429 C29.8982571,8.17191429 29.5114,8.5102 30.0194,10.0093429 L31.6394,14.9430571 L34.0819714,7.68791429 L34.5414,7.68791429 L36.9354,14.9430571 Z" id="Fill-3" fill="#2E7A9A"></path>
                <path d="M45.1569429,10.5418286 C42.9323714,10.5418286 42.1583714,12.5486857 42.1583714,14.1204 C42.1583714,15.7166857 42.9323714,17.6998286 45.1569429,17.6998286 C47.4060857,17.6998286 48.1798,15.7166857 48.1798,14.1204 C48.1798,12.5486857 47.4060857,10.5418286 45.1569429,10.5418286 M45.1569429,18.4735429 C42.4969429,18.4735429 40.3203714,16.5146857 40.3203714,14.1204 C40.3203714,11.7506857 42.4969429,9.79182857 45.1569429,9.79182857 C47.8172286,9.79182857 49.9935143,11.7506857 49.9935143,14.1204 C49.9935143,16.5146857 47.8172286,18.4735429 45.1569429,18.4735429" id="Fill-5" fill="#2E7A9A"></path>
                <path d="M74.1750857,8.55857143 L72.7968,8.55857143 L72.7968,12.7665714 L74.1750857,12.7665714 C75.5293714,12.7665714 76.1579429,11.8234286 76.1579429,10.6868571 C76.1579429,9.52628571 75.5293714,8.55857143 74.1750857,8.55857143 M74.7070857,17.6754286 L74.7070857,18.1591429 L69.1693714,18.1591429 L69.1693714,17.6754286 C70.7896571,17.6754286 71.0799429,17.2645714 71.0799429,14.846 L71.0799429,10.9771429 C71.0799429,8.55857143 70.7896571,8.17171429 69.1693714,8.17171429 L69.1693714,7.688 L74.1750857,7.688 C76.6659429,7.688 78.0445143,8.96971429 78.0445143,10.6868571 C78.0445143,12.3554286 76.6659429,13.6611429 74.1750857,13.6611429 L72.7968,13.6611429 L72.7968,14.846 C72.7968,17.2645714 73.0868,17.6754286 74.7070857,17.6754286" id="Fill-7" fill="#3A3B3B"></path>
                <path d="M81.8410857,14.0479714 L81.8410857,10.8319714 L82.8325143,10.8319714 C83.9205143,10.8319714 84.4045143,11.5814 84.4045143,12.4519714 C84.4045143,13.2985429 83.9205143,14.0479714 82.8325143,14.0479714 L81.8410857,14.0479714 Z M94.6570857,15.8862571 L94.5365143,16.3214 C94.3188,17.1194 94.0525143,17.4096857 92.3356571,17.4096857 L91.9970857,17.4096857 C90.7399429,17.4096857 90.5222286,17.1194 90.5222286,15.4022571 L90.5222286,14.2902571 C92.4082286,14.2902571 92.5533714,14.4591143 92.5533714,15.7168286 L93.0130857,15.7168286 L93.0130857,12.1134 L92.5533714,12.1134 C92.5533714,13.3711143 92.4082286,13.5402571 90.5222286,13.5402571 L90.5222286,10.8319714 L91.8519429,10.8319714 C93.5690857,10.8319714 93.8350857,11.1222571 94.0525143,11.9202571 L94.1736571,12.3794 L94.5605143,12.3794 L94.3913714,10.1065429 L87.2816571,10.1065429 L87.2816571,10.5656857 C88.6356571,10.5656857 88.8533714,10.8559714 88.8533714,12.5731143 L88.8533714,15.6685429 C88.8533714,17.2391143 88.6685143,17.6348286 87.6008,17.6911143 C86.5859429,17.5362571 85.8893714,16.9825429 84.9362286,15.9345429 L83.8236571,14.7254 C85.3233714,14.4591143 86.1210857,13.5162571 86.1210857,12.4519714 C86.1210857,11.1222571 84.9848,10.1065429 82.8568,10.1065429 L78.6005143,10.1065429 L78.6005143,10.5656857 C79.9545143,10.5656857 80.1722286,10.8559714 80.1722286,12.5731143 L80.1722286,15.6685429 C80.1722286,17.3854 79.9545143,17.6996857 78.6005143,17.6996857 L78.6005143,18.1591143 L83.4128,18.1591143 L83.4128,17.6996857 C82.0588,17.6996857 81.8410857,17.3854 81.8410857,15.6685429 L81.8410857,14.7979714 L82.2519429,14.7979714 L84.9362286,18.1591143 L94.8748,18.1591143 L95.0199429,15.8862571 L94.6570857,15.8862571 Z" id="Fill-9" fill="#3A3B3B"></path>
                <path d="M99.5662571,18.4734857 C98.5988286,18.4734857 97.7522571,17.9657714 97.3896857,17.6512 C97.2688286,17.7723429 97.0511143,18.1349143 97.0028286,18.4734857 L96.5434,18.4734857 L96.5434,15.1363429 L97.0268286,15.1363429 C97.2205429,16.7323429 98.3328286,17.6754857 99.7596857,17.6754857 C100.5334,17.6754857 101.162257,17.2403429 101.162257,16.5149143 C101.162257,15.8860571 100.605971,15.4023429 99.6145429,14.9432 L98.2362571,14.2900571 C97.2688286,13.8303429 96.5434,13.0323429 96.5434,11.9683429 C96.5434,10.8077714 97.6316857,9.81634286 99.1311143,9.81634286 C99.9291143,9.81634286 100.605971,10.1066286 101.017114,10.4449143 C101.137971,10.3483429 101.258829,10.0820571 101.331686,9.79177143 L101.790829,9.79177143 L101.790829,12.6457714 L101.283114,12.6457714 C101.113686,11.5089143 100.485114,10.5657714 99.2034,10.5657714 C98.5262571,10.5657714 97.8974,10.9529143 97.8974,11.5574857 C97.8974,12.1860571 98.4054,12.5246286 99.5662571,13.0566286 L100.895971,13.7094857 C102.057114,14.2654857 102.516257,15.1606286 102.516257,15.8860571 C102.516257,17.4094857 101.186257,18.4734857 99.5662571,18.4734857" id="Fill-11" fill="#3A3B3B"></path>
                <g id="Group-15" transform="translate(103.714286, 9.521743)">
                    <mask id="mask-2" fill="white">
                        <use xlink:href="#path-1"></use>
                    </mask>
                    <g id="Clip-14"></g>
                    <path d="M3.2998,8.95174286 C2.33237143,8.95174286 1.4858,8.44402857 1.12322857,8.12945714 C1.00237143,8.2506 0.784657143,8.61317143 0.736371429,8.95174286 L0.276942857,8.95174286 L0.276942857,5.6146 L0.760371429,5.6146 C0.954085714,7.2106 2.06637143,8.15374286 3.49322857,8.15374286 C4.26694286,8.15374286 4.8958,7.7186 4.8958,6.99317143 C4.8958,6.36431429 4.33951429,5.8806 3.34808571,5.42145714 L1.9698,4.76831429 C1.00237143,4.3086 0.276942857,3.5106 0.276942857,2.4466 C0.276942857,1.28602857 1.36522857,0.2946 2.86465714,0.2946 C3.66265714,0.2946 4.33951429,0.584885714 4.75065714,0.923171429 C4.87151429,0.8266 4.99237143,0.560314286 5.06494286,0.270028571 L5.52437143,0.270028571 L5.52437143,3.12402857 L5.01665714,3.12402857 C4.84722857,1.98717143 4.21865714,1.04402857 2.93694286,1.04402857 C2.2598,1.04402857 1.63094286,1.43117143 1.63094286,2.03574286 C1.63094286,2.66431429 2.13894286,3.00288571 3.2998,3.53488571 L4.62951429,4.18774286 C5.79065714,4.74374286 6.2498,5.63888571 6.2498,6.36431429 C6.2498,7.88774286 4.9198,8.95174286 3.2998,8.95174286" id="Fill-13" fill="#3A3B3B" mask="url(#mask-2)"></path>
                </g>
                <path d="M1.77317143,12.7606 C1.77317143,16.9966 4.23488571,20.6574571 7.8046,22.3923143 L2.69974286,8.40517143 C2.10602857,9.73602857 1.77317143,11.2088857 1.77317143,12.7606" id="Fill-16" fill="#3A3B3B"></path>
                <path d="M19.6997714,12.2204 C19.6997714,10.8978286 19.2246286,9.98182857 18.8172,9.26897143 C18.2749143,8.38754286 17.7660571,7.64097143 17.7660571,6.75954286 C17.7660571,5.77554286 18.5123429,4.85982857 19.5632,4.85982857 C19.6106286,4.85982857 19.6557714,4.86582857 19.7020571,4.8684 C17.7980571,3.12382857 15.2614857,2.05897143 12.4752,2.05897143 C8.73634286,2.05897143 5.44691429,3.97697143 3.53348571,6.8824 C3.78462857,6.89011429 4.0212,6.89525714 4.22205714,6.89525714 C5.34148571,6.89525714 7.07434286,6.75954286 7.07434286,6.75954286 C7.6512,6.72554286 7.7192,7.57268571 7.14291429,7.64097143 C7.14291429,7.64097143 6.56291429,7.70925714 5.91805714,7.74297143 L9.8152,19.3352571 L12.1574857,12.3112571 L10.4900571,7.74297143 C9.91377143,7.70925714 9.36777143,7.64097143 9.36777143,7.64097143 C8.79091429,7.60725714 8.85862857,6.72554286 9.4352,6.75954286 C9.4352,6.75954286 11.2026286,6.89525714 12.2540571,6.89525714 C13.3732,6.89525714 15.1063429,6.75954286 15.1063429,6.75954286 C15.6834857,6.72554286 15.7514857,7.57268571 15.1749143,7.64097143 C15.1749143,7.64097143 14.5940571,7.70925714 13.9500571,7.74297143 L17.8174857,19.2472571 L18.8849143,15.6801143 C19.3477714,14.1998286 19.6997714,13.1366857 19.6997714,12.2204" id="Fill-18" fill="#3A3B3B"></path>
                <path d="M12.6629429,13.6966857 L9.45208571,23.0272571 C10.4106571,23.3092571 11.4246571,23.4632571 12.4752286,23.4632571 C13.7212286,23.4632571 14.9166571,23.2478286 16.0289429,22.8566857 C16.0003714,22.8106857 15.9743714,22.7621143 15.9529429,22.7092571 L12.6629429,13.6966857 Z" id="Fill-20" fill="#3A3B3B"></path>
                <path d="M21.8658,7.62611429 C21.9118,7.96697143 21.9378,8.33297143 21.9378,8.72668571 C21.9378,9.8124 21.7349429,11.0332571 21.1240857,12.5598286 L17.8552286,22.0112571 C21.0369429,20.1558286 23.1769429,16.7086857 23.1769429,12.7606857 C23.1769429,10.9001143 22.7018,9.1504 21.8658,7.62611429" id="Fill-22" fill="#3A3B3B"></path>
                <g id="Group-26" transform="translate(0.000000, 0.093171)" fill="#3A3B3B">
                    <path d="M12.4751714,24.5708857 C5.91174286,24.5708857 0.572028571,19.2311714 0.572028571,12.6674571 C0.572028571,6.10402857 5.91174286,0.7646 12.4751714,0.7646 C19.0383143,0.7646 24.3777429,6.10402857 24.3777429,12.6674571 C24.3777429,19.2311714 19.0383143,24.5708857 12.4751714,24.5708857 M12.4751714,0.1926 C5.5966,0.1926 2.85714286e-05,5.78888571 2.85714286e-05,12.6674571 C2.85714286e-05,19.5468857 5.5966,25.1428857 12.4751714,25.1428857 C19.3534571,25.1428857 24.9508857,19.5468857 24.9508857,12.6674571 C24.9508857,5.78888571 19.3534571,0.1926 12.4751714,0.1926" id="Fill-24"></path>
                </g>
            </g>
        </g>
    </g>
</svg>