<?xml version="1.0" standalone="no"?>
<!DOCTYPE svg PUBLIC "-//W3C//DTD SVG 20010904//EN"
 "http://www.w3.org/TR/2001/REC-SVG-20010904/DTD/svg10.dtd">
<svg version="1.0" xmlns="http://www.w3.org/2000/svg"
 width="800.000000pt" height="800.000000pt" viewBox="0 0 800.000000 800.000000"
 preserveAspectRatio="xMidYMid meet">
<metadata>
Created by potrace 1.11, written by Peter Selinger 2001-2013
</metadata>
<g transform="translate(0.000000,800.000000) scale(0.100000,-0.100000)"
fill="#000000" stroke="none">
<path d="M5939 5796 c-2 -2 -29 -6 -59 -10 -281 -31 -590 -168 -813 -359 -217
-187 -376 -415 -466 -670 -72 -205 -91 -332 -86 -577 3 -162 12 -227 49 -375
71 -282 267 -586 511 -792 180 -152 455 -288 666 -328 12 -2 28 -6 37 -9 9 -3
44 -8 77 -12 33 -3 74 -8 90 -10 39 -6 263 -5 295 0 14 3 48 7 75 11 151 18
296 65 471 150 279 137 497 342 671 630 32 53 88 180 119 269 56 161 76 278
80 471 5 234 -19 385 -93 585 -116 316 -326 579 -618 775 -130 87 -391 198
-510 218 -46 7 -97 16 -130 23 -34 6 -360 15 -366 10z m346 -775 c88 -23 241
-95 295 -141 19 -16 50 -41 68 -57 56 -47 139 -164 181 -253 146 -312 84 -674
-159 -920 -168 -171 -373 -252 -615 -245 -432 12 -778 360 -790 792 -6 233 68
428 226 594 204 214 508 302 794 230z"/>
<path d="M1507 5314 c-1 -1 -34 -4 -74 -8 -40 -3 -94 -11 -120 -17 -26 -6 -59
-13 -72 -15 -92 -18 -286 -108 -391 -182 -87 -61 -244 -221 -302 -307 -148
-221 -210 -437 -204 -710 5 -220 50 -386 158 -574 61 -108 90 -144 202 -256
226 -225 520 -346 836 -345 98 0 126 2 207 15 332 52 641 259 823 550 79 127
147 303 165 426 3 24 9 58 12 74 7 42 6 241 -2 295 -21 144 -62 274 -126 397
-53 102 -73 132 -139 213 -225 273 -539 427 -903 443 -37 1 -69 2 -70 1z m176
-654 c208 -53 365 -211 420 -421 20 -78 15 -221 -12 -302 -58 -180 -189 -313
-368 -373 -205 -69 -424 -16 -579 141 -231 233 -224 596 15 817 142 130 345
183 524 138z"/>
<path d="M4067 3208 c-74 -16 -148 -59 -206 -120 -156 -167 -214 -209 -348
-254 -207 -69 -415 -43 -627 78 -124 71 -187 74 -274 11 -65 -48 -92 -156 -60
-234 19 -44 130 -159 218 -226 222 -169 464 -252 755 -258 135 -3 180 0 280
19 17 3 42 8 57 11 171 33 461 180 576 293 154 151 158 404 9 561 -79 82 -164
121 -272 125 -38 1 -87 -1 -108 -6z"/>
</g>
</svg>
