<?xml version="1.0" encoding="UTF-8"?>
<svg xmlns="http://www.w3.org/2000/svg" xmlns:xlink="http://www.w3.org/1999/xlink" width="130px" height="89px" viewBox="0 0 129 89" version="1.1">
<defs>
<clipPath id="clip1">
  <path d="M 17 1 L 50 1 L 50 42 L 17 42 Z M 17 1 "/>
</clipPath>
<clipPath id="clip2">
  <path d="M 17.949219 12.214844 C 17.949219 12.214844 24.203125 5.308594 28.535156 2.445312 C 29.914062 1.535156 40.175781 -3.855469 46.765625 14.691406 C 50.371094 24.847656 50.429688 32.410156 42.234375 35.636719 C 37.328125 37.570312 39.082031 41.1875 39.082031 41.1875 "/>
</clipPath>
<linearGradient id="linear0" gradientUnits="userSpaceOnUse" x1="0" y1="0" x2="1" y2="0" gradientTransform="matrix(42.631764,31.706084,-31.77116,42.544443,52.005789,31.616843)">
<stop offset="0" style="stop-color:rgb(54.901961%,60.784314%,83.921569%);stop-opacity:1;"/>
<stop offset="1" style="stop-color:rgb(31.372549%,36.862745%,60.784314%);stop-opacity:1;"/>
</linearGradient>
<clipPath id="clip3">
  <path d="M 102 16 L 118 16 L 118 20 L 102 20 Z M 102 16 "/>
</clipPath>
<clipPath id="clip4">
  <path d="M 102.03125 16.214844 L 115.164062 16.214844 C 116.265625 16.214844 117.15625 16.945312 117.15625 17.839844 C 117.15625 18.738281 116.265625 19.464844 115.164062 19.464844 L 104.855469 19.464844 Z M 102.03125 16.214844 "/>
</clipPath>
<linearGradient id="linear1" gradientUnits="userSpaceOnUse" x1="0" y1="0" x2="1" y2="0" gradientTransform="matrix(42.986201,31.969706,-32.035323,42.898154,79.887836,-4.849585)">
<stop offset="0" style="stop-color:rgb(50.196078%,56.078431%,81.568627%);stop-opacity:1;"/>
<stop offset="1" style="stop-color:rgb(31.372549%,36.862745%,60.784314%);stop-opacity:1;"/>
</linearGradient>
<clipPath id="clip5">
  <path d="M 27 48 L 57 48 L 57 84 L 27 84 Z M 27 48 "/>
</clipPath>
<clipPath id="clip6">
  <path d="M 56.304688 48.558594 L 56.304688 74.734375 C 56.304688 81.1875 49.886719 83.503906 41.972656 83.503906 C 34.054688 83.503906 27.640625 81.1875 27.640625 74.734375 L 27.640625 48.25 "/>
</clipPath>
<linearGradient id="linear2" gradientUnits="userSpaceOnUse" x1="0" y1="0" x2="1" y2="0" gradientTransform="matrix(42.444803,31.567042,-31.631833,42.357865,32.715705,56.672672)">
<stop offset="0" style="stop-color:rgb(54.901961%,60.784314%,83.921569%);stop-opacity:1;"/>
<stop offset="1" style="stop-color:rgb(31.372549%,36.862745%,60.784314%);stop-opacity:1;"/>
</linearGradient>
<clipPath id="clip7">
  <path d="M 71 48 L 101 48 L 101 84 L 71 84 Z M 71 48 "/>
</clipPath>
<clipPath id="clip8">
  <path d="M 100.152344 48.875 L 100.152344 75.054688 C 100.152344 81.507812 93.734375 83.820312 85.820312 83.820312 C 77.902344 83.820312 71.488281 81.507812 71.488281 75.054688 L 71.488281 48.566406 "/>
</clipPath>
<linearGradient id="linear3" gradientUnits="userSpaceOnUse" x1="0" y1="0" x2="1" y2="0" gradientTransform="matrix(42.444363,31.566749,-31.631539,42.357425,48.686223,36.259543)">
<stop offset="0" style="stop-color:rgb(54.901961%,60.784314%,83.921569%);stop-opacity:1;"/>
<stop offset="1" style="stop-color:rgb(31.372549%,36.862745%,60.784314%);stop-opacity:1;"/>
</linearGradient>
<clipPath id="clip9">
  <path d="M 39 12 L 48 12 L 48 40 L 39 40 Z M 39 12 "/>
</clipPath>
<clipPath id="clip10">
  <path d="M 44.246094 12.804688 C 49.828125 21.863281 49.234375 29.515625 41.796875 33.523438 C 37.34375 35.929688 39.792969 39.097656 39.792969 39.097656 "/>
</clipPath>
<linearGradient id="linear4" gradientUnits="userSpaceOnUse" x1="0" y1="0" x2="1" y2="0" gradientTransform="matrix(41.200798,30.641873,-30.704765,41.116408,50.883732,32.543136)">
<stop offset="0" style="stop-color:rgb(50.196078%,56.078431%,81.568627%);stop-opacity:1;"/>
<stop offset="1" style="stop-color:rgb(31.372549%,36.862745%,60.784314%);stop-opacity:1;"/>
</linearGradient>
<clipPath id="clip11">
  <path d="M 1 6 L 112 6 L 112 85 L 1 85 Z M 1 6 "/>
</clipPath>
<clipPath id="clip12">
  <path d="M 76.855469 6.382812 C 76.855469 6.382812 67.585938 6.273438 33.722656 7.394531 C -0.136719 8.511719 1.113281 20.628906 1.058594 38.03125 L 1.058594 79.890625 C 1.058594 83.429688 4.132812 84.859375 7.925781 84.859375 C 11.71875 84.859375 14.796875 83.429688 14.796875 79.890625 C 14.796875 79.890625 15.671875 67.929688 16.425781 60.65625 C 18.117188 34.222656 50.085938 65 73.328125 63.5625 C 94.449219 62.257812 111.082031 54.984375 111.082031 37.695312 C 111.082031 20.398438 100.179688 6.382812 76.855469 6.382812 Z M 76.855469 6.382812 "/>
</clipPath>
<linearGradient id="linear5" gradientUnits="userSpaceOnUse" x1="0" y1="0" x2="1" y2="0" gradientTransform="matrix(42.847266,31.866378,-31.931783,42.759503,43.796902,42.686433)">
<stop offset="0" style="stop-color:rgb(54.901961%,60.784314%,83.921569%);stop-opacity:1;"/>
<stop offset="1" style="stop-color:rgb(31.372549%,36.862745%,60.784314%);stop-opacity:1;"/>
</linearGradient>
<clipPath id="clip13">
  <path d="M 1 38 L 5 38 L 5 80 L 1 80 Z M 1 38 "/>
</clipPath>
<clipPath id="clip14">
  <path d="M 1.984375 39.179688 C 2.019531 43.113281 1.464844 77.445312 3.636719 79.507812 C 2.957031 77.988281 4.449219 44.722656 4.429688 42.632812 L 4.410156 41.410156 C 4.410156 40.828125 4.410156 40.253906 4.410156 39.683594 C 3.570312 39.375 2.757812 38.992188 1.972656 38.558594 Z M 1.984375 39.179688 "/>
</clipPath>
<linearGradient id="linear6" gradientUnits="userSpaceOnUse" x1="0" y1="0" x2="1" y2="0" gradientTransform="matrix(28.369495,41.262387,-41.347077,28.311387,-14.890513,32.097088)">
<stop offset="0" style="stop-color:rgb(98.039216%,98.039216%,99.215686%);stop-opacity:1;"/>
<stop offset="1" style="stop-color:rgb(53.333333%,57.254902%,82.352941%);stop-opacity:1;"/>
</linearGradient>
<clipPath id="clip15">
  <path d="M 2 7 L 107 7 L 107 40 L 2 40 Z M 2 7 "/>
</clipPath>
<clipPath id="clip16">
  <path d="M 76.84375 7.535156 C 76.84375 7.535156 67.777344 7.429688 34.644531 8.523438 C 1.511719 9.617188 2.019531 21.800781 2.019531 38.179688 L 2.027344 38.785156 C 2.792969 39.21875 3.589844 39.597656 4.402344 39.910156 C 4.410156 24.410156 5.074219 13.035156 37.027344 11.980469 C 70.160156 10.882812 79.230469 10.988281 79.230469 10.988281 C 91.902344 10.988281 100.625 15.257812 106.054688 21.917969 C 101.054688 13.300781 91.585938 7.535156 76.84375 7.535156 Z M 76.84375 7.535156 "/>
</clipPath>
<linearGradient id="linear7" gradientUnits="userSpaceOnUse" x1="0" y1="0" x2="1" y2="0" gradientTransform="matrix(33.056924,48.080117,-48.1788,32.989215,31.819332,-2.039439)">
<stop offset="0" style="stop-color:rgb(98.039216%,98.039216%,99.215686%);stop-opacity:1;"/>
<stop offset="1" style="stop-color:rgb(53.333333%,57.254902%,82.352941%);stop-opacity:1;"/>
</linearGradient>
<clipPath id="clip17">
  <path d="M 36 50 L 66 50 L 66 88 L 36 88 Z M 36 50 "/>
</clipPath>
<clipPath id="clip18">
  <path d="M 65.304688 60.566406 L 65.304688 79.207031 C 65.304688 85.664062 58.882812 87.980469 50.96875 87.980469 C 43.050781 87.980469 36.636719 85.664062 36.636719 79.207031 L 36.636719 50.835938 "/>
</clipPath>
<linearGradient id="linear8" gradientUnits="userSpaceOnUse" x1="0" y1="0" x2="1" y2="0" gradientTransform="matrix(42.422725,31.550627,-31.615384,42.335831,32.042569,57.723545)">
<stop offset="0" style="stop-color:rgb(54.901961%,60.784314%,83.921569%);stop-opacity:1;"/>
<stop offset="1" style="stop-color:rgb(31.372549%,36.862745%,60.784314%);stop-opacity:1;"/>
</linearGradient>
<clipPath id="clip19">
  <path d="M 80 47 L 110 47 L 110 88 L 80 88 Z M 80 47 "/>
</clipPath>
<clipPath id="clip20">
  <path d="M 109.167969 47.753906 L 109.167969 78.480469 C 109.167969 84.933594 102.746094 87.25 94.832031 87.25 C 86.914062 87.25 80.5 84.933594 80.5 78.480469 L 80.5 60.828125 "/>
</clipPath>
<linearGradient id="linear9" gradientUnits="userSpaceOnUse" x1="0" y1="0" x2="1" y2="0" gradientTransform="matrix(42.570178,31.660307,-31.725289,42.482983,51.236211,32.60567)">
<stop offset="0" style="stop-color:rgb(54.901961%,60.784314%,83.921569%);stop-opacity:1;"/>
<stop offset="1" style="stop-color:rgb(31.372549%,36.862745%,60.784314%);stop-opacity:1;"/>
</linearGradient>
<clipPath id="clip21">
  <path d="M 27 1 L 58 1 L 58 45 L 27 45 Z M 27 1 "/>
</clipPath>
<clipPath id="clip22">
  <path d="M 27.996094 9.546875 C 27.996094 9.546875 36.394531 3.785156 41.699219 1.8125 C 43.386719 1.179688 55.585938 -2.035156 57.5625 18.984375 C 58.644531 30.492188 56.695312 38.441406 47.242188 39.878906 C 41.582031 40.742188 42.457031 44.949219 42.457031 44.949219 "/>
</clipPath>
<linearGradient id="linear10" gradientUnits="userSpaceOnUse" x1="0" y1="0" x2="1" y2="0" gradientTransform="matrix(42.504823,31.611696,-31.676578,42.417761,53.777485,29.310882)">
<stop offset="0" style="stop-color:rgb(54.901961%,60.784314%,83.921569%);stop-opacity:1;"/>
<stop offset="1" style="stop-color:rgb(31.372549%,36.862745%,60.784314%);stop-opacity:1;"/>
</linearGradient>
<clipPath id="clip23">
  <path d="M 25 2 L 52 2 L 52 15 L 25 15 Z M 25 2 "/>
</clipPath>
<clipPath id="clip24">
  <path d="M 36.585938 8.023438 C 46.09375 2.089844 51.371094 5.125 51.371094 5.125 C 47.238281 1.351562 42.589844 2.601562 41.558594 2.988281 C 36.273438 4.960938 26.066406 12.257812 26.066406 12.257812 C 26.066406 12.257812 24.6875 14.703125 27.4375 14.171875 C 27.4375 14.171875 33.417969 10 36.585938 8.023438 Z M 36.585938 8.023438 "/>
</clipPath>
<linearGradient id="linear11" gradientUnits="userSpaceOnUse" x1="0" y1="0" x2="1" y2="0" gradientTransform="matrix(33.784401,49.138465,-49.239321,33.715201,31.018324,-1.531346)">
<stop offset="0" style="stop-color:rgb(98.039216%,98.039216%,99.215686%);stop-opacity:1;"/>
<stop offset="1" style="stop-color:rgb(53.333333%,57.254902%,82.352941%);stop-opacity:1;"/>
</linearGradient>
</defs>
<g id="surface1">
<g clip-path="url(#clip1)" clip-rule="nonzero">
<g clip-path="url(#clip2)" clip-rule="nonzero">
<path style=" stroke:none;fill-rule:nonzero;fill:url(#linear0);" d="M 17.949219 12.214844 C 17.949219 12.214844 24.203125 5.308594 28.535156 2.445312 C 29.914062 1.535156 40.175781 -3.855469 46.765625 14.691406 C 50.371094 24.847656 50.429688 32.410156 42.234375 35.636719 C 37.328125 37.570312 39.082031 41.1875 39.082031 41.1875 "/>
</g>
</g>
<path style=" stroke:none;fill-rule:nonzero;fill:rgb(21.176471%,19.607843%,32.941176%);fill-opacity:1;" d="M 27.933594 1.605469 C 23.542969 4.507812 17.410156 11.257812 17.152344 11.542969 C 16.765625 11.96875 16.8125 12.613281 17.253906 12.984375 C 17.695312 13.351562 18.363281 13.308594 18.746094 12.886719 C 18.808594 12.816406 24.964844 6.042969 29.132812 3.285156 C 29.257812 3.203125 32.300781 1.238281 36.003906 2.421875 C 39.902344 3.664062 43.277344 8.023438 45.761719 15.023438 C 49.71875 26.167969 48.546875 32.054688 41.835938 34.691406 C 39.898438 35.457031 38.625 36.5625 38.046875 37.980469 C 37.289062 39.855469 38.089844 41.546875 38.125 41.617188 C 38.367188 42.125 38.988281 42.339844 39.519531 42.109375 C 40.046875 41.878906 40.28125 41.277344 40.046875 40.765625 C 40.042969 40.753906 39.589844 39.75 40.03125 38.699219 C 40.394531 37.832031 41.269531 37.117188 42.636719 36.582031 C 52.761719 32.59375 50.695312 22.613281 47.765625 14.359375 C 45.015625 6.625 41.285156 1.957031 36.671875 0.484375 C 32.0625 -0.988281 28.34375 1.335938 27.933594 1.605469 "/>
<g clip-path="url(#clip3)" clip-rule="nonzero">
<g clip-path="url(#clip4)" clip-rule="nonzero">
<path style=" stroke:none;fill-rule:nonzero;fill:url(#linear1);" d="M 102.03125 16.214844 L 115.164062 16.214844 C 116.265625 16.214844 117.15625 16.945312 117.15625 17.839844 C 117.15625 18.738281 116.265625 19.464844 115.164062 19.464844 L 104.855469 19.464844 L 102.03125 16.214844 "/>
</g>
</g>
<path style=" stroke:none;fill-rule:nonzero;fill:rgb(21.176471%,19.607843%,32.941176%);fill-opacity:1;" d="M 115.164062 17.234375 C 115.714844 17.234375 116.097656 17.554688 116.097656 17.839844 C 116.097656 18.128906 115.714844 18.449219 115.164062 18.449219 C 115.164062 18.449219 106.25 18.449219 105.351562 18.449219 C 105.140625 18.207031 104.824219 17.839844 104.296875 17.234375 C 107.402344 17.234375 115.164062 17.234375 115.164062 17.234375 Z M 99.765625 15.195312 L 104.363281 20.484375 L 115.164062 20.484375 C 116.847656 20.484375 118.21875 19.300781 118.21875 17.839844 C 118.21875 16.382812 116.847656 15.195312 115.164062 15.195312 L 99.765625 15.195312 "/>
<path style=" stroke:none;fill-rule:nonzero;fill:rgb(54.509804%,61.568627%,84.313725%);fill-opacity:1;" d="M 119.226562 12.433594 C 121.03125 11.574219 123.144531 11.785156 123.945312 12.902344 C 124.742188 14.023438 123.929688 15.621094 122.125 16.484375 C 120.320312 17.339844 115.597656 18.378906 114.796875 17.257812 C 113.996094 16.140625 117.425781 13.292969 119.226562 12.433594 "/>
<path style=" stroke:none;fill-rule:nonzero;fill:rgb(21.176471%,19.607843%,32.941176%);fill-opacity:1;" d="M 119.695312 13.347656 C 121.097656 12.683594 122.632812 12.871094 123.074219 13.480469 C 123.195312 13.652344 123.222656 13.851562 123.160156 14.085938 C 123.046875 14.511719 122.589844 15.125 121.652344 15.570312 C 119.910156 16.398438 116.820312 16.882812 115.863281 16.648438 C 116.21875 15.859375 118.152344 14.082031 119.695312 13.347656 Z M 118.757812 11.519531 C 117.25 12.238281 114.179688 14.523438 113.691406 16.328125 L 113.925781 17.835938 C 115.375 19.867188 121.226562 18.046875 122.59375 17.394531 C 123.953125 16.75 124.90625 15.730469 125.210938 14.597656 C 125.425781 13.789062 125.289062 12.984375 124.816406 12.324219 C 123.710938 10.78125 121.050781 10.429688 118.757812 11.519531 "/>
<path style=" stroke:none;fill-rule:nonzero;fill:rgb(54.509804%,61.568627%,84.313725%);fill-opacity:1;" d="M 122.433594 19.03125 C 124.371094 19.675781 125.449219 21.171875 124.851562 22.371094 C 124.25 23.570312 122.195312 24.015625 120.261719 23.367188 C 118.328125 22.726562 114.445312 20.300781 115.042969 19.101562 C 115.648438 17.898438 120.503906 18.386719 122.433594 19.03125 "/>
<path style=" stroke:none;fill-rule:nonzero;fill:rgb(21.176471%,19.607843%,32.941176%);fill-opacity:1;" d="M 122.78125 18.070312 Z M 122.085938 19.996094 L 122.089844 19.996094 C 123.128906 20.34375 123.699219 20.921875 123.882812 21.347656 C 124.023438 21.675781 123.929688 21.867188 123.894531 21.929688 C 123.578125 22.566406 122.101562 22.90625 120.609375 22.40625 C 118.902344 21.835938 116.605469 20.238281 116.171875 19.5 C 116.972656 19.230469 120.21875 19.371094 122.089844 19.996094 Z M 114.089844 18.660156 L 114.09375 20.136719 C 114.835938 21.867188 118.277344 23.789062 119.914062 24.332031 C 122.375 25.15625 124.964844 24.488281 125.804688 22.816406 C 125.984375 22.453125 126.074219 22.066406 126.074219 21.675781 C 126.074219 21.304688 125.992188 20.929688 125.835938 20.5625 C 125.363281 19.464844 124.25 18.558594 122.78125 18.070312 C 121.316406 17.582031 115.199219 16.449219 114.089844 18.660156 "/>
<path style=" stroke:none;fill-rule:nonzero;fill:rgb(54.509804%,61.568627%,84.313725%);fill-opacity:1;" d="M 122.71875 15.335938 C 125.589844 15.320312 127.929688 16.351562 127.941406 17.648438 C 127.953125 18.941406 125.640625 20.003906 122.765625 20.023438 C 119.898438 20.042969 113.398438 19.039062 113.386719 17.746094 C 113.371094 16.449219 119.851562 15.359375 122.71875 15.335938 "/>
<path style=" stroke:none;fill-rule:nonzero;fill:rgb(21.176471%,19.607843%,32.941176%);fill-opacity:1;" d="M 126.882812 17.65625 C 126.882812 17.707031 126.835938 17.800781 126.707031 17.929688 C 126.1875 18.4375 124.730469 18.992188 122.757812 19.003906 C 120.296875 19.019531 116.402344 18.355469 114.902344 17.734375 C 116.390625 17.09375 120.265625 16.375 122.726562 16.355469 C 125.445312 16.339844 126.878906 17.3125 126.882812 17.65625 Z M 122.710938 14.316406 C 120.625 14.332031 114.425781 15.066406 112.835938 16.621094 L 112.328125 17.757812 C 112.355469 20.753906 122.667969 21.042969 122.773438 21.042969 C 125.085938 21.027344 127.171875 20.382812 128.21875 19.359375 C 128.738281 18.851562 129.007812 18.257812 129 17.636719 C 128.984375 15.691406 126.339844 14.292969 122.710938 14.316406 "/>
<g clip-path="url(#clip5)" clip-rule="nonzero">
<g clip-path="url(#clip6)" clip-rule="nonzero">
<path style=" stroke:none;fill-rule:nonzero;fill:url(#linear2);" d="M 56.304688 48.558594 L 56.304688 74.734375 C 56.304688 81.1875 49.886719 83.503906 41.972656 83.503906 C 34.054688 83.503906 27.640625 81.1875 27.640625 74.734375 L 27.640625 48.25 "/>
</g>
</g>
<path style=" stroke:none;fill-rule:nonzero;fill:rgb(21.176471%,19.607843%,32.941176%);fill-opacity:1;" d="M 26.582031 48.25 L 26.582031 74.734375 C 26.582031 81.046875 32.046875 84.523438 41.972656 84.523438 C 51.898438 84.523438 57.363281 81.046875 57.363281 74.734375 L 57.363281 48.558594 C 57.363281 47.992188 56.890625 47.535156 56.304688 47.535156 C 55.71875 47.535156 55.246094 47.992188 55.246094 48.558594 L 55.246094 74.734375 C 55.246094 81.140625 48.027344 82.484375 41.972656 82.484375 C 35.917969 82.484375 28.699219 81.140625 28.699219 74.734375 L 28.699219 48.25 C 28.699219 47.6875 28.222656 47.230469 27.640625 47.230469 C 27.054688 47.230469 26.582031 47.6875 26.582031 48.25 "/>
<path style=" stroke:none;fill-rule:nonzero;fill:rgb(54.509804%,61.568627%,84.313725%);fill-opacity:1;" d="M 33.921875 74.703125 C 33.921875 77.3125 32.402344 79.4375 30.53125 79.4375 C 28.660156 79.4375 27.144531 77.3125 27.144531 74.703125 C 27.144531 72.085938 28.660156 66.179688 30.53125 66.179688 C 32.402344 66.179688 33.921875 72.085938 33.921875 74.703125 "/>
<path style=" stroke:none;fill-rule:nonzero;fill:rgb(21.176471%,19.607843%,32.941176%);fill-opacity:1;" d="M 27.496094 74.703125 C 27.496094 71.859375 29.105469 66.519531 30.53125 66.519531 C 31.960938 66.519531 33.566406 71.859375 33.566406 74.703125 C 33.566406 77.128906 32.207031 79.097656 30.53125 79.097656 C 28.859375 79.097656 27.496094 77.128906 27.496094 74.703125 Z M 26.789062 74.703125 C 26.789062 77.5 28.46875 79.777344 30.53125 79.777344 C 32.597656 79.777344 34.273438 77.5 34.273438 74.703125 C 34.273438 72.148438 32.78125 65.839844 30.53125 65.839844 C 28.28125 65.839844 26.789062 72.148438 26.789062 74.703125 "/>
<path style=" stroke:none;fill-rule:nonzero;fill:rgb(65.098039%,74.117647%,90.196078%);fill-opacity:1;" d="M 28.054688 75.175781 C 28.054688 72.660156 29.890625 68.128906 31.230469 68.128906 C 31.359375 68.128906 31.484375 68.195312 31.605469 68.292969 C 31.269531 67.496094 30.886719 66.96875 30.480469 66.96875 C 29.140625 66.96875 28.054688 72.660156 28.054688 75.175781 "/>
<path style=" stroke:none;fill-rule:nonzero;fill:rgb(54.509804%,61.568627%,84.313725%);fill-opacity:1;" d="M 35.519531 77.21875 C 35.519531 79.234375 34.3125 80.871094 32.824219 80.871094 C 31.335938 80.871094 30.128906 79.234375 30.128906 77.21875 C 30.128906 75.195312 31.335938 70.636719 32.824219 70.636719 C 34.3125 70.636719 35.519531 75.195312 35.519531 77.21875 "/>
<path style=" stroke:none;fill-rule:nonzero;fill:rgb(21.176471%,19.607843%,32.941176%);fill-opacity:1;" d="M 30.480469 77.21875 C 30.480469 75.101562 31.746094 70.976562 32.824219 70.976562 C 33.902344 70.976562 35.167969 75.101562 35.167969 77.21875 C 35.167969 79.042969 34.113281 80.53125 32.824219 80.53125 C 31.53125 80.53125 30.480469 79.042969 30.480469 77.21875 Z M 29.773438 77.21875 C 29.773438 79.417969 31.144531 81.210938 32.824219 81.210938 C 34.503906 81.210938 35.871094 79.417969 35.871094 77.21875 C 35.871094 75.496094 34.792969 70.296875 32.824219 70.296875 C 30.855469 70.296875 29.773438 75.496094 29.773438 77.21875 "/>
<path style=" stroke:none;fill-rule:nonzero;fill:rgb(65.098039%,74.117647%,90.196078%);fill-opacity:1;" d="M 31.261719 76.015625 C 31.125 74.578125 32.390625 72.191406 33.375 72.015625 C 33.464844 72.003906 33.5625 72.027344 33.65625 72.066406 C 33.367188 71.652344 33.039062 71.324219 32.761719 71.453125 C 31.785156 71.917969 31.125 74.582031 31.261719 76.015625 "/>
<g clip-path="url(#clip7)" clip-rule="nonzero">
<g clip-path="url(#clip8)" clip-rule="nonzero">
<path style=" stroke:none;fill-rule:nonzero;fill:url(#linear3);" d="M 100.152344 48.875 L 100.152344 75.054688 C 100.152344 81.507812 93.734375 83.820312 85.820312 83.820312 C 77.902344 83.820312 71.488281 81.507812 71.488281 75.054688 L 71.488281 48.566406 "/>
</g>
</g>
<path style=" stroke:none;fill-rule:nonzero;fill:rgb(21.176471%,19.607843%,32.941176%);fill-opacity:1;" d="M 70.425781 48.566406 L 70.425781 75.054688 C 70.425781 81.363281 75.894531 84.839844 85.820312 84.839844 C 90.289062 84.839844 93.871094 84.136719 96.46875 82.75 C 99.570312 81.09375 101.210938 78.433594 101.210938 75.054688 L 101.210938 48.875 C 101.210938 48.3125 100.738281 47.855469 100.152344 47.855469 C 99.570312 47.855469 99.09375 48.3125 99.09375 48.875 L 99.09375 75.054688 C 99.09375 77.71875 97.898438 79.652344 95.441406 80.96875 C 93.191406 82.167969 89.867188 82.800781 85.820312 82.800781 C 79.765625 82.800781 72.546875 81.457031 72.546875 75.054688 L 72.546875 48.566406 C 72.546875 48.003906 72.070312 47.546875 71.488281 47.546875 C 70.902344 47.546875 70.425781 48.003906 70.425781 48.566406 "/>
<path style=" stroke:none;fill-rule:nonzero;fill:rgb(45.490196%,51.372549%,79.215686%);fill-opacity:1;" d="M 77.769531 75.023438 C 77.769531 77.632812 76.253906 79.757812 74.382812 79.757812 C 72.507812 79.757812 70.992188 77.632812 70.992188 75.023438 C 70.992188 72.40625 72.507812 66.5 74.382812 66.5 C 76.253906 66.5 77.769531 72.40625 77.769531 75.023438 "/>
<path style=" stroke:none;fill-rule:nonzero;fill:rgb(21.176471%,19.607843%,32.941176%);fill-opacity:1;" d="M 71.34375 75.023438 C 71.34375 73.6875 71.746094 71.574219 72.320312 69.886719 C 72.957031 68.007812 73.75 66.839844 74.382812 66.839844 C 75.808594 66.839844 77.417969 72.175781 77.417969 75.023438 C 77.417969 77.445312 76.054688 79.417969 74.382812 79.417969 C 72.707031 79.417969 71.34375 77.445312 71.34375 75.023438 Z M 71.648438 69.675781 C 71.054688 71.421875 70.636719 73.621094 70.636719 75.023438 C 70.636719 77.820312 72.316406 80.097656 74.382812 80.097656 C 76.445312 80.097656 78.121094 77.820312 78.121094 75.023438 C 78.121094 72.464844 76.632812 66.160156 74.382812 66.160156 C 73.109375 66.160156 72.195312 68.070312 71.648438 69.675781 "/>
<path style=" stroke:none;fill-rule:nonzero;fill:rgb(51.372549%,60.392157%,83.921569%);fill-opacity:1;" d="M 71.90625 75.496094 C 71.90625 72.980469 73.738281 68.449219 75.078125 68.449219 C 75.207031 68.449219 75.332031 68.515625 75.453125 68.609375 C 75.117188 67.816406 74.734375 67.285156 74.328125 67.285156 C 72.988281 67.285156 71.90625 72.980469 71.90625 75.496094 "/>
<path style=" stroke:none;fill-rule:nonzero;fill:rgb(45.490196%,51.372549%,79.215686%);fill-opacity:1;" d="M 79.367188 77.535156 C 79.367188 79.558594 78.164062 81.1875 76.671875 81.1875 C 75.183594 81.1875 73.976562 79.558594 73.976562 77.535156 C 73.976562 75.511719 75.183594 70.957031 76.671875 70.957031 C 78.164062 70.957031 79.367188 75.511719 79.367188 77.535156 "/>
<path style=" stroke:none;fill-rule:nonzero;fill:rgb(21.176471%,19.607843%,32.941176%);fill-opacity:1;" d="M 74.332031 77.535156 C 74.332031 75.421875 75.59375 71.296875 76.671875 71.296875 C 77.75 71.296875 79.015625 75.421875 79.015625 77.535156 C 79.015625 79.363281 77.964844 80.851562 76.671875 80.851562 C 75.382812 80.851562 74.332031 79.363281 74.332031 77.535156 Z M 73.625 77.535156 C 73.625 79.738281 74.992188 81.53125 76.671875 81.53125 C 78.355469 81.53125 79.722656 79.738281 79.722656 77.535156 C 79.722656 75.8125 78.640625 70.617188 76.671875 70.617188 C 74.707031 70.617188 73.625 75.8125 73.625 77.535156 "/>
<path style=" stroke:none;fill-rule:nonzero;fill:rgb(51.372549%,60.392157%,83.921569%);fill-opacity:1;" d="M 75.109375 76.335938 C 74.972656 74.898438 76.238281 72.511719 77.222656 72.335938 C 77.316406 72.324219 77.410156 72.347656 77.503906 72.386719 C 77.214844 71.972656 76.890625 71.644531 76.609375 71.773438 C 75.632812 72.238281 74.972656 74.902344 75.109375 76.335938 "/>
<g clip-path="url(#clip9)" clip-rule="nonzero">
<g clip-path="url(#clip10)" clip-rule="nonzero">
<path style=" stroke:none;fill-rule:nonzero;fill:url(#linear4);" d="M 44.246094 12.804688 C 49.828125 21.863281 49.234375 29.515625 41.796875 33.523438 C 37.34375 35.929688 39.792969 39.097656 39.792969 39.097656 "/>
</g>
</g>
<path style=" stroke:none;fill-rule:nonzero;fill:rgb(3.137255%,2.352941%,1.568627%);fill-opacity:1;" d="M 43.707031 11.925781 C 43.203125 12.214844 43.035156 12.839844 43.335938 13.324219 C 46.441406 18.363281 47.554688 22.929688 46.550781 26.519531 C 45.839844 29.074219 44.0625 31.132812 41.277344 32.636719 C 39.519531 33.585938 38.46875 34.78125 38.15625 36.191406 C 37.730469 38.109375 38.894531 39.640625 38.945312 39.707031 C 39.292969 40.152344 39.949219 40.246094 40.417969 39.914062 C 40.886719 39.585938 40.988281 38.949219 40.648438 38.496094 C 40.644531 38.484375 40 37.605469 40.230469 36.597656 C 40.417969 35.792969 41.117188 35.058594 42.3125 34.414062 C 45.617188 32.632812 47.734375 30.15625 48.597656 27.050781 C 49.75 22.914062 48.5625 17.808594 45.15625 12.285156 C 44.859375 11.800781 44.207031 11.640625 43.707031 11.925781 "/>
<g clip-path="url(#clip11)" clip-rule="nonzero">
<g clip-path="url(#clip12)" clip-rule="nonzero">
<path style=" stroke:none;fill-rule:nonzero;fill:url(#linear5);" d="M 76.855469 6.382812 C 76.855469 6.382812 67.585938 6.273438 33.722656 7.394531 C -0.136719 8.511719 1.113281 20.628906 1.058594 38.03125 L 1.058594 79.890625 C 1.058594 83.429688 4.132812 84.859375 7.925781 84.859375 C 11.71875 84.859375 14.796875 83.429688 14.796875 79.890625 C 14.796875 79.890625 15.671875 67.929688 16.425781 60.65625 C 18.117188 34.222656 50.085938 65 73.328125 63.5625 C 94.449219 62.257812 111.082031 54.984375 111.082031 37.695312 C 111.082031 20.398438 100.179688 6.382812 76.855469 6.382812 "/>
</g>
</g>
<path style=" stroke:none;fill-rule:nonzero;fill:rgb(21.176471%,19.607843%,32.941176%);fill-opacity:1;" d="M 2.117188 79.890625 L 2.117188 38.03125 C 2.117188 38.035156 2.121094 36.1875 2.121094 36.1875 C 2.125 20.09375 2.132812 9.457031 33.757812 8.414062 C 67.183594 7.308594 76.75 7.402344 76.84375 7.402344 L 76.855469 7.402344 C 87.503906 7.402344 96.183594 10.464844 101.949219 16.257812 C 107.230469 21.5625 110.023438 28.972656 110.023438 37.695312 C 110.023438 56.355469 90.03125 61.507812 73.261719 62.546875 C 64.4375 63.089844 54.023438 58.734375 44.839844 54.894531 C 34.542969 50.585938 25.652344 46.867188 20.175781 50.09375 C 17.285156 51.800781 15.714844 55.234375 15.371094 60.59375 C 14.625 67.757812 13.75 79.695312 13.742188 79.820312 C 13.738281 83.324219 10.097656 83.839844 7.925781 83.839844 C 5.757812 83.839844 2.117188 83.324219 2.117188 79.890625 Z M 33.6875 6.375 C 0.0117188 7.488281 0.0078125 19.527344 0.00390625 36.1875 L 0 38.03125 L 0 79.890625 C 0 83.640625 2.964844 85.878906 7.925781 85.878906 C 12.894531 85.878906 15.855469 83.640625 15.855469 79.890625 C 15.863281 79.839844 16.734375 67.929688 17.480469 60.753906 C 17.78125 56.070312 19.023438 53.167969 21.28125 51.832031 C 25.820312 49.160156 34.644531 52.851562 43.996094 56.761719 C 53.402344 60.699219 64.058594 65.160156 73.398438 64.582031 C 98.382812 63.035156 112.140625 53.488281 112.140625 37.695312 C 112.140625 28.4375 109.144531 20.539062 103.480469 14.847656 C 97.304688 8.644531 88.097656 5.363281 76.855469 5.363281 L 76.867188 5.363281 C 76.777344 5.363281 67.1875 5.265625 33.6875 6.375 "/>
<g clip-path="url(#clip13)" clip-rule="nonzero">
<g clip-path="url(#clip14)" clip-rule="nonzero">
<path style=" stroke:none;fill-rule:nonzero;fill:url(#linear6);" d="M 1.984375 39.179688 C 2.019531 43.113281 1.464844 77.445312 3.636719 79.507812 C 2.957031 77.988281 4.449219 44.722656 4.429688 42.632812 L 4.410156 41.410156 C 4.410156 40.828125 4.410156 40.253906 4.410156 39.683594 C 3.570312 39.375 2.757812 38.992188 1.972656 38.558594 L 1.984375 39.179688 "/>
</g>
</g>
<g clip-path="url(#clip15)" clip-rule="nonzero">
<g clip-path="url(#clip16)" clip-rule="nonzero">
<path style=" stroke:none;fill-rule:nonzero;fill:url(#linear7);" d="M 76.84375 7.535156 C 76.84375 7.535156 67.777344 7.429688 34.644531 8.523438 C 1.511719 9.617188 2.019531 21.800781 2.019531 38.179688 L 2.027344 38.785156 C 2.792969 39.21875 3.589844 39.597656 4.402344 39.910156 C 4.410156 24.410156 5.074219 13.035156 37.027344 11.980469 C 70.160156 10.882812 79.230469 10.988281 79.230469 10.988281 C 91.902344 10.988281 100.625 15.257812 106.054688 21.917969 C 101.054688 13.300781 91.585938 7.535156 76.84375 7.535156 "/>
</g>
</g>
<g clip-path="url(#clip17)" clip-rule="nonzero">
<g clip-path="url(#clip18)" clip-rule="nonzero">
<path style=" stroke:none;fill-rule:nonzero;fill:url(#linear8);" d="M 65.304688 60.566406 L 65.304688 79.207031 C 65.304688 85.664062 58.882812 87.980469 50.96875 87.980469 C 43.050781 87.980469 36.636719 85.664062 36.636719 79.207031 L 36.636719 50.835938 "/>
</g>
</g>
<path style=" stroke:none;fill-rule:nonzero;fill:rgb(21.176471%,19.607843%,32.941176%);fill-opacity:1;" d="M 35.578125 50.835938 L 35.578125 79.207031 C 35.578125 85.523438 41.042969 89 50.96875 89 C 60.894531 89 66.363281 85.523438 66.363281 79.207031 L 66.363281 60.566406 C 66.363281 60.003906 65.886719 59.546875 65.304688 59.546875 C 64.71875 59.546875 64.246094 60.003906 64.246094 60.566406 L 64.246094 79.207031 C 64.246094 85.617188 57.023438 86.960938 50.96875 86.960938 C 44.914062 86.960938 37.695312 85.617188 37.695312 79.207031 L 37.695312 50.835938 C 37.695312 50.269531 37.21875 49.816406 36.636719 49.816406 C 36.050781 49.816406 35.578125 50.269531 35.578125 50.835938 "/>
<path style=" stroke:none;fill-rule:nonzero;fill:rgb(54.509804%,61.568627%,84.313725%);fill-opacity:1;" d="M 45.652344 81.015625 C 45.652344 83.445312 43.628906 85.414062 41.128906 85.414062 C 38.628906 85.414062 36.605469 83.445312 36.605469 81.015625 C 36.605469 78.585938 38.628906 73.097656 41.128906 73.097656 C 43.628906 73.097656 45.652344 78.585938 45.652344 81.015625 "/>
<path style=" stroke:none;fill-rule:nonzero;fill:rgb(21.176471%,19.607843%,32.941176%);fill-opacity:1;" d="M 36.960938 81.015625 C 36.960938 78.648438 38.976562 73.4375 41.128906 73.4375 C 43.285156 73.4375 45.300781 78.648438 45.300781 81.015625 C 45.300781 83.253906 43.429688 85.074219 41.128906 85.074219 C 38.832031 85.074219 36.960938 83.253906 36.960938 81.015625 Z M 36.253906 81.015625 C 36.253906 83.628906 38.441406 85.753906 41.128906 85.753906 C 43.820312 85.753906 46.007812 83.628906 46.007812 81.015625 C 46.007812 78.554688 43.949219 72.757812 41.128906 72.757812 C 38.3125 72.757812 36.253906 78.554688 36.253906 81.015625 "/>
<path style=" stroke:none;fill-rule:nonzero;fill:rgb(65.098039%,74.117647%,90.196078%);fill-opacity:1;" d="M 37.378906 81.308594 C 37.378906 79.132812 39.910156 75.226562 41.765625 75.226562 C 41.941406 75.226562 42.113281 75.28125 42.28125 75.367188 C 41.816406 74.679688 41.289062 74.222656 40.730469 74.222656 C 38.875 74.222656 37.378906 79.136719 37.378906 81.308594 "/>
<path style=" stroke:none;fill-rule:nonzero;fill:rgb(54.509804%,61.568627%,84.313725%);fill-opacity:1;" d="M 49.335938 81.359375 C 49.335938 84.5625 47.242188 87.167969 44.65625 87.167969 C 42.066406 87.167969 39.96875 84.5625 39.96875 81.359375 C 39.96875 78.152344 42.066406 70.910156 44.65625 70.910156 C 47.242188 70.910156 49.335938 78.152344 49.335938 81.359375 "/>
<path style=" stroke:none;fill-rule:nonzero;fill:rgb(21.176471%,19.607843%,32.941176%);fill-opacity:1;" d="M 40.320312 81.359375 C 40.320312 78.203125 42.417969 71.25 44.65625 71.25 C 46.890625 71.25 48.984375 78.203125 48.984375 81.359375 C 48.984375 84.375 47.042969 86.828125 44.65625 86.828125 C 42.265625 86.828125 40.320312 84.375 40.320312 81.359375 Z M 39.613281 81.359375 C 39.613281 84.75 41.875 87.507812 44.65625 87.507812 C 47.433594 87.507812 49.691406 84.75 49.691406 81.359375 C 49.691406 78.140625 47.5625 70.574219 44.65625 70.574219 C 41.746094 70.574219 39.613281 78.140625 39.613281 81.359375 "/>
<path style=" stroke:none;fill-rule:nonzero;fill:rgb(65.098039%,74.117647%,90.196078%);fill-opacity:1;" d="M 41.230469 81.941406 C 41.230469 78.851562 43.765625 73.304688 45.617188 73.304688 C 45.792969 73.304688 45.96875 73.382812 46.136719 73.5 C 45.671875 72.523438 45.140625 71.875 44.582031 71.875 C 42.730469 71.875 41.230469 78.859375 41.230469 81.941406 "/>
<path style=" stroke:none;fill-rule:nonzero;fill:rgb(54.509804%,61.568627%,84.313725%);fill-opacity:1;" d="M 51.796875 83.085938 C 51.796875 85.351562 50.285156 87.191406 48.425781 87.191406 C 46.5625 87.191406 45.054688 85.351562 45.054688 83.085938 C 45.054688 80.808594 46.5625 75.683594 48.425781 75.683594 C 50.285156 75.683594 51.796875 80.808594 51.796875 83.085938 "/>
<path style=" stroke:none;fill-rule:nonzero;fill:rgb(21.176471%,19.607843%,32.941176%);fill-opacity:1;" d="M 45.40625 83.085938 C 45.40625 80.628906 47.007812 76.023438 48.425781 76.023438 C 49.84375 76.023438 51.441406 80.628906 51.441406 83.085938 C 51.441406 85.164062 50.089844 86.847656 48.425781 86.847656 C 46.761719 86.847656 45.40625 85.164062 45.40625 83.085938 Z M 44.699219 83.085938 C 44.699219 85.535156 46.371094 87.53125 48.425781 87.53125 C 50.480469 87.53125 52.148438 85.535156 52.148438 83.085938 C 52.148438 80.851562 50.664062 75.34375 48.425781 75.34375 C 46.1875 75.34375 44.699219 80.851562 44.699219 83.085938 "/>
<path style=" stroke:none;fill-rule:nonzero;fill:rgb(65.098039%,74.117647%,90.196078%);fill-opacity:1;" d="M 46.472656 81.730469 C 46.300781 80.113281 47.878906 77.429688 49.113281 77.234375 C 49.226562 77.214844 49.34375 77.242188 49.464844 77.289062 C 49.101562 76.820312 48.695312 76.449219 48.34375 76.597656 C 47.125 77.121094 46.300781 80.117188 46.472656 81.730469 "/>
<g clip-path="url(#clip19)" clip-rule="nonzero">
<g clip-path="url(#clip20)" clip-rule="nonzero">
<path style=" stroke:none;fill-rule:nonzero;fill:url(#linear9);" d="M 109.167969 47.753906 L 109.167969 78.480469 C 109.167969 84.933594 102.746094 87.25 94.832031 87.25 C 86.914062 87.25 80.5 84.933594 80.5 78.480469 L 80.5 60.828125 "/>
</g>
</g>
<path style=" stroke:none;fill-rule:nonzero;fill:rgb(21.176471%,19.607843%,32.941176%);fill-opacity:1;" d="M 108.105469 47.753906 L 108.105469 78.480469 C 108.105469 84.886719 100.886719 86.230469 94.832031 86.230469 C 88.777344 86.230469 81.558594 84.886719 81.558594 78.480469 L 81.558594 60.828125 C 81.558594 60.265625 81.085938 59.808594 80.5 59.808594 C 79.914062 59.808594 79.441406 60.265625 79.441406 60.828125 L 79.441406 78.480469 C 79.441406 84.792969 84.90625 88.269531 94.832031 88.269531 C 104.757812 88.269531 110.222656 84.792969 110.222656 78.480469 L 110.222656 47.753906 C 110.222656 47.191406 109.75 46.738281 109.167969 46.738281 C 108.582031 46.738281 108.105469 47.191406 108.105469 47.753906 "/>
<path style=" stroke:none;fill-rule:nonzero;fill:rgb(54.509804%,61.568627%,84.313725%);fill-opacity:1;" d="M 89.515625 80.289062 C 89.515625 82.714844 87.492188 84.683594 84.992188 84.683594 C 82.496094 84.683594 80.46875 82.714844 80.46875 80.289062 C 80.46875 77.855469 82.496094 72.367188 84.992188 72.367188 C 87.492188 72.367188 89.515625 77.855469 89.515625 80.289062 "/>
<path style=" stroke:none;fill-rule:nonzero;fill:rgb(21.176471%,19.607843%,32.941176%);fill-opacity:1;" d="M 80.824219 80.289062 C 80.824219 77.917969 82.839844 72.707031 84.992188 72.707031 C 87.148438 72.707031 89.164062 77.917969 89.164062 80.289062 C 89.164062 82.523438 87.292969 84.34375 84.992188 84.34375 C 82.695312 84.34375 80.824219 82.523438 80.824219 80.289062 Z M 80.117188 80.289062 C 80.117188 82.898438 82.304688 85.023438 84.992188 85.023438 C 87.683594 85.023438 89.871094 82.898438 89.871094 80.289062 C 89.871094 77.824219 87.8125 72.027344 84.992188 72.027344 C 82.175781 72.027344 80.117188 77.824219 80.117188 80.289062 "/>
<path style=" stroke:none;fill-rule:nonzero;fill:rgb(65.098039%,74.117647%,90.196078%);fill-opacity:1;" d="M 81.242188 80.578125 C 81.242188 78.402344 83.773438 74.496094 85.628906 74.496094 C 85.804688 74.496094 85.976562 74.550781 86.148438 74.636719 C 85.679688 73.949219 85.152344 73.492188 84.59375 73.492188 C 82.742188 73.492188 81.242188 78.40625 81.242188 80.578125 "/>
<path style=" stroke:none;fill-rule:nonzero;fill:rgb(54.509804%,61.568627%,84.313725%);fill-opacity:1;" d="M 93.203125 80.628906 C 93.203125 83.835938 91.105469 86.441406 88.519531 86.441406 C 85.929688 86.441406 83.832031 83.835938 83.832031 80.628906 C 83.832031 77.421875 85.929688 70.183594 88.519531 70.183594 C 91.105469 70.183594 93.203125 77.421875 93.203125 80.628906 "/>
<path style=" stroke:none;fill-rule:nonzero;fill:rgb(21.176471%,19.607843%,32.941176%);fill-opacity:1;" d="M 84.183594 80.628906 C 84.183594 77.472656 86.28125 70.523438 88.519531 70.523438 C 90.757812 70.523438 92.847656 77.472656 92.847656 80.628906 C 92.847656 83.644531 90.90625 86.101562 88.519531 86.101562 C 86.128906 86.101562 84.183594 83.644531 84.183594 80.628906 Z M 83.480469 80.628906 C 83.480469 84.019531 85.738281 86.777344 88.519531 86.777344 C 91.296875 86.777344 93.554688 84.019531 93.554688 80.628906 C 93.554688 77.414062 91.429688 69.839844 88.519531 69.839844 C 85.605469 69.839844 83.480469 77.414062 83.480469 80.628906 "/>
<path style=" stroke:none;fill-rule:nonzero;fill:rgb(65.098039%,74.117647%,90.196078%);fill-opacity:1;" d="M 85.097656 81.210938 C 85.097656 78.125 87.628906 72.574219 89.480469 72.574219 C 89.65625 72.574219 89.832031 72.652344 90 72.773438 C 89.535156 71.792969 89.007812 71.148438 88.445312 71.148438 C 86.59375 71.148438 85.097656 78.125 85.097656 81.210938 "/>
<path style=" stroke:none;fill-rule:nonzero;fill:rgb(54.509804%,61.568627%,84.313725%);fill-opacity:1;" d="M 95.660156 82.355469 C 95.660156 84.625 94.152344 86.460938 92.289062 86.460938 C 90.429688 86.460938 88.917969 84.625 88.917969 82.355469 C 88.917969 80.078125 90.429688 74.953125 92.289062 74.953125 C 94.152344 74.953125 95.660156 80.078125 95.660156 82.355469 "/>
<path style=" stroke:none;fill-rule:nonzero;fill:rgb(21.176471%,19.607843%,32.941176%);fill-opacity:1;" d="M 89.269531 82.355469 C 89.269531 79.898438 90.871094 75.292969 92.289062 75.292969 C 93.707031 75.292969 95.308594 79.898438 95.308594 82.355469 C 95.308594 84.433594 93.953125 86.121094 92.289062 86.121094 C 90.625 86.121094 89.269531 84.433594 89.269531 82.355469 Z M 88.566406 82.355469 C 88.566406 84.808594 90.234375 86.800781 92.289062 86.800781 C 94.34375 86.800781 96.011719 84.808594 96.011719 82.355469 C 96.011719 80.125 94.527344 74.613281 92.289062 74.613281 C 90.050781 74.613281 88.566406 80.125 88.566406 82.355469 "/>
<path style=" stroke:none;fill-rule:nonzero;fill:rgb(65.098039%,74.117647%,90.196078%);fill-opacity:1;" d="M 90.335938 81.003906 C 90.167969 79.382812 91.746094 76.699219 92.976562 76.503906 C 93.089844 76.488281 93.210938 76.511719 93.328125 76.558594 C 92.964844 76.089844 92.558594 75.722656 92.210938 75.867188 C 90.988281 76.390625 90.167969 79.386719 90.335938 81.003906 "/>
<path style=" stroke:none;fill-rule:nonzero;fill:rgb(21.176471%,19.607843%,32.941176%);fill-opacity:1;" d="M 10.039062 20.964844 C 9.664062 21.46875 9.796875 22.167969 10.335938 22.523438 C 10.875 22.875 11.613281 22.75 11.988281 22.242188 C 14.117188 19.355469 18.90625 18.558594 21.183594 19.378906 C 21.636719 19.542969 22.210938 19.472656 22.460938 19.21875 C 22.710938 18.964844 22.550781 18.625 22.09375 18.464844 C 18.976562 17.339844 12.859375 17.132812 10.039062 20.964844 "/>
<path style=" stroke:none;fill-rule:nonzero;fill:rgb(21.176471%,19.607843%,32.941176%);fill-opacity:1;" d="M 19.269531 33.65625 C 17.304688 34.070312 15.570312 32.972656 15.398438 31.203125 C 15.226562 29.433594 16.6875 27.664062 18.652344 27.246094 C 20.621094 26.832031 22.355469 27.929688 22.527344 29.699219 C 22.695312 31.46875 21.238281 33.238281 19.269531 33.65625 Z M 23.335938 29.464844 C 23.140625 27.402344 21.089844 26.132812 18.757812 26.621094 C 16.425781 27.113281 14.695312 29.179688 14.890625 31.238281 C 15.085938 33.296875 17.136719 34.570312 19.46875 34.082031 C 21.800781 33.589844 23.53125 31.523438 23.335938 29.464844 "/>
<path style=" stroke:none;fill-rule:nonzero;fill:rgb(98.823529%,98.823529%,98.823529%);fill-opacity:1;" d="M 22.402344 29.84375 C 22.554688 31.398438 21.277344 32.957031 19.554688 33.320312 C 17.824219 33.6875 16.308594 32.71875 16.15625 31.164062 C 16.007812 29.605469 17.28125 28.050781 19.003906 27.6875 C 20.734375 27.320312 22.253906 28.285156 22.402344 29.84375 "/>
<path style=" stroke:none;fill-rule:nonzero;fill:rgb(21.176471%,19.607843%,32.941176%);fill-opacity:1;" d="M 22.152344 29.859375 C 21.683594 28.671875 20.445312 27.984375 19.394531 28.316406 C 18.832031 28.488281 18.445312 28.921875 18.265625 29.464844 L 19.734375 30.191406 L 18.386719 31.164062 C 18.886719 32.28125 20.070312 32.921875 21.089844 32.605469 C 22.144531 32.269531 22.617188 31.042969 22.152344 29.859375 "/>
<path style=" stroke:none;fill-rule:nonzero;fill:rgb(100%,100%,100%);fill-opacity:1;" d="M 21.070312 29.347656 C 21.332031 29.3125 21.640625 29.628906 21.75 30.066406 C 21.863281 30.5 21.742188 30.882812 21.476562 30.925781 C 21.210938 30.964844 20.902344 30.644531 20.789062 30.210938 C 20.679688 29.777344 20.804688 29.394531 21.070312 29.347656 "/>
<path style=" stroke:none;fill-rule:nonzero;fill:rgb(21.176471%,19.607843%,32.941176%);fill-opacity:1;" d="M 16.796875 27.5625 C 14.957031 28.980469 14.375 31.039062 15.621094 32.207031 C 15.511719 32.160156 15.746094 32.460938 15.648438 32.40625 C 13.6875 31.320312 13.363281 28.105469 15.164062 26.210938 C 16.710938 24.582031 21.355469 23.378906 21.320312 24.003906 C 21.128906 24.722656 19.769531 25.636719 18.082031 26.628906 C 17.539062 26.9375 17.148438 27.292969 16.796875 27.5625 "/>
<path style=" stroke:none;fill-rule:nonzero;fill:rgb(21.176471%,19.607843%,32.941176%);fill-opacity:1;" d="M 47.046875 47.546875 C 46.953125 48.027344 47.28125 48.425781 47.773438 48.425781 L 50.609375 48.425781 C 51.105469 48.425781 51.585938 48.027344 51.679688 47.546875 L 52.4375 43.660156 C 52.53125 43.175781 53.011719 42.78125 53.503906 42.78125 L 56.574219 42.78125 C 58.324219 42.78125 59.765625 42.597656 60.894531 42.230469 C 62.027344 41.863281 63.050781 41.25 63.980469 40.382812 C 64.753906 39.671875 65.382812 38.886719 65.863281 38.027344 C 66.34375 37.167969 66.6875 36.222656 66.886719 35.183594 C 67.375 32.671875 66.894531 30.800781 65.777344 29.304688 C 64.378906 27.433594 60.804688 27.335938 60.804688 27.335938 C 60.316406 27.261719 59.511719 27.199219 59.019531 27.199219 L 51.90625 27.199219 C 51.414062 27.199219 50.933594 27.59375 50.835938 28.078125 Z M 58.160156 30.546875 C 59.921875 30.546875 61.09375 30.875 61.679688 31.523438 C 62.265625 32.167969 62.40625 33.285156 62.101562 34.859375 C 61.777344 36.503906 61.160156 37.675781 60.25 38.378906 C 59.335938 39.082031 56.96875 39.335938 56.96875 39.335938 C 56.476562 39.390625 55.671875 39.433594 55.179688 39.433594 L 54.15625 39.433594 C 53.664062 39.433594 53.335938 39.035156 53.429688 38.554688 L 54.816406 31.429688 C 54.910156 30.945312 55.394531 30.546875 55.886719 30.546875 L 58.160156 30.546875 "/>
<path style="fill:none;stroke-width:5.333333;stroke-linecap:butt;stroke-linejoin:miter;stroke:rgb(100%,100%,100%);stroke-opacity:1;stroke-miterlimit:4;" d="M 128.135387 232.846261 C 127.880052 234.157536 128.773723 235.244935 130.11423 235.244935 L 137.8381 235.244935 C 139.189245 235.244935 140.497835 234.157536 140.753169 232.846261 L 142.817123 222.238789 C 143.072458 220.916853 144.381047 219.840115 145.721554 219.840115 L 154.08376 219.840115 C 158.850005 219.840115 162.775774 219.339058 165.850427 218.336945 C 168.93572 217.334832 171.723122 215.661091 174.25519 213.294398 C 176.3617 211.354137 178.074569 209.211321 179.383158 206.865951 C 180.691748 204.52058 181.627975 201.940672 182.170561 199.104906 C 183.500428 192.250027 182.191839 187.143516 179.149102 183.060439 C 175.340361 177.953927 165.605732 177.687408 165.605732 177.687408 C 164.275864 177.484853 162.084243 177.31428 160.743736 177.31428 L 141.370228 177.31428 C 140.029721 177.31428 138.721132 178.391019 138.455158 179.712955 Z M 158.40317 186.450565 C 163.201331 186.450565 166.393013 187.34607 167.988854 189.115759 C 169.584695 190.874787 169.967697 193.923769 169.13786 198.220062 C 168.254828 202.708248 166.573875 205.906481 164.095002 207.82542 C 161.605491 209.74436 155.158293 210.43731 155.158293 210.43731 C 153.817787 210.586561 151.626165 210.70383 150.285659 210.70383 L 147.498257 210.70383 C 146.15775 210.70383 145.264079 209.616431 145.519414 208.305155 L 149.296238 188.859901 C 149.551572 187.537964 150.870801 186.450565 152.211307 186.450565 Z M 158.40317 186.450565 " transform="matrix(0.367165,0,0,0.366413,0.000000299787,-37.771092)"/>
<path style=" stroke:none;fill-rule:nonzero;fill:rgb(21.176471%,19.607843%,32.941176%);fill-opacity:1;" d="M 71.355469 22.433594 C 71.449219 21.953125 71.929688 21.558594 72.421875 21.558594 L 75.222656 21.558594 C 75.71875 21.558594 76.042969 21.953125 75.949219 22.433594 L 75.191406 26.320312 C 75.097656 26.804688 75.425781 27.199219 75.921875 27.199219 L 78.21875 27.199219 C 78.710938 27.199219 79.515625 27.242188 80.007812 27.292969 C 80.007812 27.292969 83.359375 27.332031 84.445312 28.542969 C 85.332031 29.535156 85.714844 30.894531 85.324219 32.902344 L 83.574219 41.902344 C 83.480469 42.386719 83 42.78125 82.503906 42.78125 L 79.632812 42.78125 C 79.136719 42.78125 78.8125 42.386719 78.90625 41.902344 L 80.390625 34.269531 C 80.488281 33.785156 80.59375 32.988281 80.628906 32.496094 C 80.628906 32.496094 80.695312 31.59375 80.332031 31.203125 C 79.972656 30.816406 79.203125 30.621094 78.027344 30.621094 L 75.253906 30.621094 C 74.757812 30.621094 74.277344 31.015625 74.183594 31.5 L 72.160156 41.902344 C 72.066406 42.386719 71.585938 42.78125 71.089844 42.78125 L 68.289062 42.78125 C 67.796875 42.78125 67.46875 42.386719 67.5625 41.902344 L 71.355469 22.433594 "/>
<path style="fill:none;stroke-width:5.333333;stroke-linecap:butt;stroke-linejoin:miter;stroke:rgb(100%,100%,100%);stroke-opacity:1;stroke-miterlimit:4;" d="M 194.341507 164.308134 C 194.596842 162.996859 195.905432 161.92012 197.245938 161.92012 L 204.874058 161.92012 C 206.225203 161.92012 207.108235 162.996859 206.8529 164.308134 L 204.788946 174.915606 C 204.533612 176.237542 205.427282 177.31428 206.778428 177.31428 L 213.034124 177.31428 C 214.374631 177.31428 216.566252 177.431549 217.906758 177.570139 C 217.906758 177.570139 227.034969 177.676747 229.992594 180.981587 C 232.407633 183.689424 233.450249 187.399374 232.386355 192.879013 L 227.62011 217.44144 C 227.364776 218.763376 226.056186 219.840115 224.705041 219.840115 L 216.88542 219.840115 C 215.534275 219.840115 214.651243 218.763376 214.906578 217.44144 L 218.949375 196.610284 C 219.215348 195.288348 219.502599 193.11355 219.59835 191.770292 C 219.59835 191.770292 219.779212 189.307653 218.78979 188.241576 C 217.811008 187.186159 215.715137 186.65312 212.512816 186.65312 L 204.959169 186.65312 C 203.608024 186.65312 202.299434 187.729858 202.0441 189.051794 L 196.533129 217.44144 C 196.277794 218.763376 194.969205 219.840115 193.61806 219.840115 L 185.98994 219.840115 C 184.649434 219.840115 183.755763 218.763376 184.011097 217.44144 Z M 194.341507 164.308134 " transform="matrix(0.367165,0,0,0.366413,0.000000299787,-37.771092)"/>
<path style=" stroke:none;fill-rule:nonzero;fill:rgb(21.176471%,19.607843%,32.941176%);fill-opacity:1;" d="M 85.5625 47.546875 C 85.464844 48.027344 85.792969 48.425781 86.289062 48.425781 L 89.125 48.425781 C 89.617188 48.425781 90.097656 48.027344 90.191406 47.546875 L 90.949219 43.660156 C 91.042969 43.175781 91.523438 42.78125 92.015625 42.78125 L 95.085938 42.78125 C 96.835938 42.78125 98.277344 42.597656 99.410156 42.230469 C 100.539062 41.863281 101.566406 41.25 102.492188 40.382812 C 103.269531 39.671875 103.894531 38.886719 104.375 38.027344 C 104.855469 37.167969 105.199219 36.222656 105.398438 35.183594 C 105.890625 32.671875 105.445312 30.769531 104.292969 29.304688 C 102.859375 27.484375 99.316406 27.335938 99.316406 27.335938 C 98.828125 27.261719 98.023438 27.199219 97.53125 27.199219 L 90.417969 27.199219 C 89.925781 27.199219 89.445312 27.59375 89.351562 28.078125 Z M 96.675781 30.546875 C 98.433594 30.546875 99.605469 30.875 100.195312 31.523438 C 100.777344 32.167969 100.917969 33.285156 100.613281 34.859375 C 100.289062 36.503906 99.675781 37.675781 98.761719 38.378906 C 97.847656 39.082031 95.480469 39.335938 95.480469 39.335938 C 94.992188 39.390625 94.1875 39.433594 93.691406 39.433594 L 92.667969 39.433594 C 92.175781 39.433594 91.847656 39.035156 91.941406 38.554688 L 93.328125 31.429688 C 93.425781 30.945312 93.90625 30.546875 94.398438 30.546875 L 96.675781 30.546875 "/>
<path style="fill:none;stroke-width:5.333333;stroke-linecap:butt;stroke-linejoin:miter;stroke:rgb(100%,100%,100%);stroke-opacity:1;stroke-miterlimit:4;" d="M 233.03533 232.846261 C 232.769357 234.157536 233.663028 235.244935 235.014173 235.244935 L 242.738043 235.244935 C 244.07855 235.244935 245.387139 234.157536 245.642474 232.846261 L 247.706428 222.238789 C 247.961763 220.916853 249.270352 219.840115 250.610859 219.840115 L 258.973065 219.840115 C 263.73931 219.840115 267.665079 219.339058 270.750371 218.336945 C 273.825025 217.334832 276.623066 215.661091 279.144494 213.294398 C 281.261643 211.354137 282.963874 209.211321 284.272463 206.865951 C 285.581053 204.52058 286.517279 201.940672 287.059865 199.104906 C 288.400372 192.250027 287.187533 187.058229 284.049046 183.060439 C 280.144555 178.092517 270.495037 177.687408 270.495037 177.687408 C 269.165169 177.484853 266.973548 177.31428 265.633041 177.31428 L 246.259532 177.31428 C 244.919026 177.31428 243.610436 178.391019 243.355102 179.712955 Z M 263.303113 186.450565 C 268.090636 186.450565 271.282318 187.34607 272.888798 189.115759 C 274.474 190.874787 274.857002 193.923769 274.027164 198.220062 C 273.144132 202.708248 271.473819 205.906481 268.984307 207.82542 C 266.494795 209.74436 260.047598 210.43731 260.047598 210.43731 C 258.71773 210.586561 256.526109 210.70383 255.174964 210.70383 L 252.387561 210.70383 C 251.047055 210.70383 250.153384 209.616431 250.408719 208.305155 L 254.185542 188.859901 C 254.451516 187.537964 255.760105 186.450565 257.100612 186.450565 Z M 263.303113 186.450565 " transform="matrix(0.367165,0,0,0.366413,0.000000299787,-37.771092)"/>
<path style=" stroke:none;fill-rule:nonzero;fill:rgb(21.176471%,19.607843%,32.941176%);fill-opacity:1;" d="M 47.046875 47.546875 C 46.953125 48.027344 47.28125 48.425781 47.773438 48.425781 L 50.609375 48.425781 C 51.105469 48.425781 51.585938 48.027344 51.679688 47.546875 L 52.4375 43.660156 C 52.53125 43.175781 53.011719 42.78125 53.503906 42.78125 L 56.574219 42.78125 C 58.324219 42.78125 59.765625 42.597656 60.894531 42.230469 C 62.027344 41.863281 63.050781 41.25 63.980469 40.382812 C 64.753906 39.671875 65.382812 38.886719 65.863281 38.027344 C 66.34375 37.167969 66.6875 36.222656 66.886719 35.183594 C 67.375 32.671875 66.894531 30.800781 65.777344 29.304688 C 64.378906 27.433594 60.804688 27.335938 60.804688 27.335938 C 60.316406 27.261719 59.511719 27.199219 59.019531 27.199219 L 51.90625 27.199219 C 51.414062 27.199219 50.933594 27.59375 50.835938 28.078125 Z M 58.160156 30.546875 C 59.921875 30.546875 61.09375 30.875 61.679688 31.523438 C 62.265625 32.167969 62.40625 33.285156 62.101562 34.859375 C 61.777344 36.503906 61.160156 37.675781 60.25 38.378906 C 59.335938 39.082031 56.96875 39.335938 56.96875 39.335938 C 56.476562 39.390625 55.671875 39.433594 55.179688 39.433594 L 54.15625 39.433594 C 53.664062 39.433594 53.335938 39.035156 53.429688 38.554688 L 54.816406 31.429688 C 54.910156 30.945312 55.394531 30.546875 55.886719 30.546875 L 58.160156 30.546875 "/>
<path style=" stroke:none;fill-rule:nonzero;fill:rgb(21.176471%,19.607843%,32.941176%);fill-opacity:1;" d="M 71.355469 22.433594 C 71.449219 21.953125 71.929688 21.558594 72.421875 21.558594 L 75.222656 21.558594 C 75.71875 21.558594 76.042969 21.953125 75.949219 22.433594 L 75.191406 26.320312 C 75.097656 26.804688 75.425781 27.199219 75.921875 27.199219 L 78.21875 27.199219 C 78.710938 27.199219 79.515625 27.242188 80.007812 27.292969 C 80.007812 27.292969 83.359375 27.332031 84.445312 28.542969 C 85.332031 29.535156 85.714844 30.894531 85.324219 32.902344 L 83.574219 41.902344 C 83.480469 42.386719 83 42.78125 82.503906 42.78125 L 79.632812 42.78125 C 79.136719 42.78125 78.8125 42.386719 78.90625 41.902344 L 80.390625 34.269531 C 80.488281 33.785156 80.59375 32.988281 80.628906 32.496094 C 80.628906 32.496094 80.695312 31.59375 80.332031 31.203125 C 79.972656 30.816406 79.203125 30.621094 78.027344 30.621094 L 75.253906 30.621094 C 74.757812 30.621094 74.277344 31.015625 74.183594 31.5 L 72.160156 41.902344 C 72.066406 42.386719 71.585938 42.78125 71.089844 42.78125 L 68.289062 42.78125 C 67.796875 42.78125 67.46875 42.386719 67.5625 41.902344 L 71.355469 22.433594 "/>
<path style=" stroke:none;fill-rule:nonzero;fill:rgb(21.176471%,19.607843%,32.941176%);fill-opacity:1;" d="M 85.5625 47.546875 C 85.464844 48.027344 85.792969 48.425781 86.289062 48.425781 L 89.125 48.425781 C 89.617188 48.425781 90.097656 48.027344 90.191406 47.546875 L 90.949219 43.660156 C 91.042969 43.175781 91.523438 42.78125 92.015625 42.78125 L 95.085938 42.78125 C 96.835938 42.78125 98.277344 42.597656 99.410156 42.230469 C 100.539062 41.863281 101.566406 41.25 102.492188 40.382812 C 103.269531 39.671875 103.894531 38.886719 104.375 38.027344 C 104.855469 37.167969 105.199219 36.222656 105.398438 35.183594 C 105.890625 32.671875 105.445312 30.769531 104.292969 29.304688 C 102.859375 27.484375 99.316406 27.335938 99.316406 27.335938 C 98.828125 27.261719 98.023438 27.199219 97.53125 27.199219 L 90.417969 27.199219 C 89.925781 27.199219 89.445312 27.59375 89.351562 28.078125 Z M 96.675781 30.546875 C 98.433594 30.546875 99.605469 30.875 100.195312 31.523438 C 100.777344 32.167969 100.917969 33.285156 100.613281 34.859375 C 100.289062 36.503906 99.675781 37.675781 98.761719 38.378906 C 97.847656 39.082031 95.480469 39.335938 95.480469 39.335938 C 94.992188 39.390625 94.1875 39.433594 93.691406 39.433594 L 92.667969 39.433594 C 92.175781 39.433594 91.847656 39.035156 91.941406 38.554688 L 93.328125 31.429688 C 93.425781 30.945312 93.90625 30.546875 94.398438 30.546875 L 96.675781 30.546875 "/>
<g clip-path="url(#clip21)" clip-rule="nonzero">
<g clip-path="url(#clip22)" clip-rule="nonzero">
<path style=" stroke:none;fill-rule:nonzero;fill:url(#linear10);" d="M 27.996094 9.546875 C 27.996094 9.546875 36.394531 3.785156 41.699219 1.8125 C 43.386719 1.179688 55.585938 -2.035156 57.5625 18.984375 C 58.644531 30.492188 56.695312 38.441406 47.242188 39.878906 C 41.582031 40.742188 42.457031 44.949219 42.457031 44.949219 "/>
</g>
</g>
<path style=" stroke:none;fill-rule:nonzero;fill:rgb(21.176471%,19.607843%,32.941176%);fill-opacity:1;" d="M 41.3125 0.859375 C 35.949219 2.859375 27.730469 8.480469 27.382812 8.71875 C 26.90625 9.042969 26.792969 9.679688 27.132812 10.136719 C 27.472656 10.597656 28.136719 10.703125 28.613281 10.375 C 28.695312 10.320312 36.960938 4.667969 42.078125 2.761719 C 42.238281 2.703125 46.003906 1.34375 49.617188 3.503906 C 53.378906 5.753906 55.761719 11.136719 56.507812 19.074219 C 57.699219 31.765625 54.878906 37.683594 47.074219 38.875 C 44.863281 39.210938 43.253906 40.054688 42.289062 41.394531 C 41.019531 43.144531 41.402344 45.070312 41.421875 45.152344 C 41.535156 45.699219 42.085938 46.054688 42.65625 45.949219 C 43.230469 45.84375 43.605469 45.308594 43.5 44.757812 C 43.496094 44.75 43.285156 43.5625 44.042969 42.535156 C 44.667969 41.6875 45.800781 41.132812 47.40625 40.886719 C 59.007812 39.117188 59.492188 28.203125 58.621094 18.890625 C 57.796875 10.167969 55.144531 4.40625 50.734375 1.769531 C 46.308594 -0.875 41.8125 0.675781 41.3125 0.859375 "/>
<g clip-path="url(#clip23)" clip-rule="nonzero">
<g clip-path="url(#clip24)" clip-rule="nonzero">
<path style=" stroke:none;fill-rule:nonzero;fill:url(#linear11);" d="M 36.585938 8.023438 C 46.09375 2.089844 51.371094 5.125 51.371094 5.125 C 47.238281 1.351562 42.589844 2.601562 41.558594 2.988281 C 36.273438 4.960938 26.066406 12.257812 26.066406 12.257812 C 26.066406 12.257812 24.6875 14.703125 27.4375 14.171875 C 27.4375 14.171875 33.417969 10 36.585938 8.023438 "/>
</g>
</g>
<path style=" stroke:none;fill-rule:nonzero;fill:rgb(21.176471%,19.607843%,32.941176%);fill-opacity:1;" d="M 33.15625 36.023438 C 33.074219 40.839844 31.476562 45.226562 28.980469 47.464844 C 27.851562 48.480469 26.589844 48.984375 25.332031 48.921875 C 24.941406 48.902344 24.609375 49.1875 24.589844 49.5625 C 24.570312 49.941406 24.867188 50.257812 25.257812 50.277344 C 26.910156 50.359375 28.527344 49.730469 29.945312 48.457031 C 32.707031 45.976562 34.480469 41.21875 34.566406 36.042969 C 34.574219 35.667969 34.265625 35.359375 33.875 35.351562 C 33.484375 35.347656 33.164062 35.648438 33.15625 36.023438 "/>
<path style=" stroke:none;fill-rule:nonzero;fill:rgb(21.176471%,19.607843%,32.941176%);fill-opacity:1;" d="M 36.214844 32.582031 C 35.683594 33.800781 34.753906 34.574219 33.660156 34.703125 C 32.597656 34.828125 31.519531 34.332031 30.769531 33.375 C 30.539062 33.074219 30.09375 33.015625 29.78125 33.238281 C 29.472656 33.464844 29.40625 33.890625 29.640625 34.191406 C 30.695312 35.542969 32.265625 36.238281 33.835938 36.054688 C 35.441406 35.859375 36.78125 34.789062 37.515625 33.109375 C 37.667969 32.761719 37.496094 32.367188 37.136719 32.21875 C 36.777344 32.074219 36.367188 32.238281 36.214844 32.582031 "/>
</g>
</svg>
