<?xml version="1.0" encoding="UTF-8"?>
<svg xmlns="http://www.w3.org/2000/svg" xmlns:xlink="http://www.w3.org/1999/xlink" width="325px" height="53px" viewBox="0 0 324 53" version="1.1">
<g id="surface1">
<path style=" stroke:none;fill-rule:nonzero;fill:rgb(13.333333%,13.333333%,13.333333%);fill-opacity:1;" d="M 22.613281 25.898438 L 34.476562 43.0625 L 27.835938 43.0625 L 17.621094 28.421875 L 12.71875 28.421875 L 12.71875 43.0625 L 6.902344 43.0625 L 6.902344 15.9375 L 2.503906 15.9375 L 5.433594 10.476562 L 12.71875 10.476562 L 12.71875 23.375 L 17.621094 23.375 L 27.332031 10.476562 L 33.925781 10.476562 Z M 32.691406 31.3125 C 32.691406 28.773438 33.269531 26.554688 34.429688 24.660156 C 35.558594 22.882812 37.101562 21.523438 39.058594 20.574219 C 41.011719 19.625 43.117188 19.152344 45.378906 19.152344 C 47.699219 19.152344 49.789062 19.609375 51.652344 20.527344 C 53.609375 21.476562 55.148438 22.882812 56.28125 24.75 C 57.410156 26.585938 57.976562 28.773438 57.976562 31.3125 C 57.976562 33.882812 57.410156 36.101562 56.28125 37.96875 C 55.148438 39.804688 53.609375 41.226562 51.652344 42.238281 C 49.730469 43.214844 47.636719 43.703125 45.378906 43.703125 C 43.148438 43.703125 41.058594 43.214844 39.101562 42.238281 C 37.117188 41.257812 35.546875 39.835938 34.382812 37.96875 C 33.253906 36.070312 32.691406 33.851562 32.691406 31.3125 Z M 131.492188 19.886719 L 136.671875 19.886719 L 136.671875 23.050781 C 137.464844 21.828125 138.519531 20.894531 139.832031 20.253906 C 141.175781 19.578125 142.898438 19.242188 145.007812 19.242188 C 147.175781 19.242188 149.097656 19.734375 150.777344 20.710938 C 152.398438 21.722656 153.648438 23.160156 154.535156 25.027344 C 155.449219 26.863281 155.910156 28.972656 155.910156 31.359375 C 155.910156 33.777344 155.449219 35.917969 154.535156 37.785156 C 153.648438 39.621094 152.398438 41.042969 150.777344 42.054688 C 150.015625 42.574219 149.113281 42.957031 148.074219 43.199219 C 147.066406 43.476562 146.046875 43.613281 145.007812 43.613281 C 143.207031 43.613281 141.863281 43.476562 140.976562 43.199219 C 139.144531 42.648438 137.847656 41.730469 137.082031 40.445312 L 137.082031 51.277344 L 131.492188 51.277344 Z M 60.953125 19.886719 L 66.496094 19.886719 L 66.496094 28.699219 L 75.976562 28.699219 L 75.976562 19.886719 L 81.472656 19.886719 L 81.472656 43.0625 L 75.976562 43.0625 L 75.976562 33.285156 L 66.496094 33.285156 L 66.496094 43.0625 L 60.953125 43.0625 Z M 83.902344 19.886719 L 105.203125 19.886719 L 105.203125 24.292969 L 97.324219 24.292969 L 97.324219 43.0625 L 91.6875 43.0625 L 91.6875 24.292969 L 83.902344 24.292969 Z M 112.851562 19.886719 C 114.925781 25.578125 116.820312 31.207031 118.53125 36.773438 C 120.148438 31.265625 121.980469 25.636719 124.027344 19.886719 L 129.617188 19.886719 L 121.097656 43.519531 C 120.394531 45.449219 119.722656 46.933594 119.082031 47.972656 C 118.378906 49.011719 117.507812 49.792969 116.46875 50.3125 C 115.460938 50.863281 114.117188 51.140625 112.4375 51.140625 C 111.492188 51.140625 110.972656 51.125 110.882812 51.09375 L 109.003906 46.6875 C 109.582031 46.8125 110.300781 46.871094 111.15625 46.871094 C 112.195312 46.871094 113.035156 46.71875 113.675781 46.414062 C 114.253906 46.167969 114.699219 45.832031 115.003906 45.402344 C 115.308594 45.003906 115.570312 44.5 115.78125 43.886719 L 106.988281 19.886719 Z M 38.324219 31.265625 C 38.324219 33.808594 38.933594 35.75 40.15625 37.097656 C 41.378906 38.410156 43.074219 39.070312 45.242188 39.070312 C 47.4375 39.070312 49.148438 38.410156 50.371094 37.097656 C 51.625 35.75 52.25 33.808594 52.25 31.265625 C 52.25 28.789062 51.636719 26.921875 50.417969 25.667969 C 49.195312 24.382812 47.46875 23.742188 45.242188 23.742188 C 43.042969 23.742188 41.332031 24.382812 40.109375 25.667969 C 38.917969 26.921875 38.324219 28.789062 38.324219 31.265625 Z M 136.945312 31.3125 C 137.007812 33.609375 137.617188 35.445312 138.777344 36.820312 C 139.9375 38.199219 141.570312 38.886719 143.679688 38.886719 C 145.785156 38.886719 147.402344 38.199219 148.535156 36.820312 C 149.695312 35.445312 150.289062 33.609375 150.320312 31.3125 C 150.289062 29.050781 149.695312 27.246094 148.535156 25.898438 C 147.402344 24.519531 145.785156 23.832031 143.679688 23.832031 C 141.570312 23.832031 139.9375 24.503906 138.777344 25.851562 C 137.617188 27.199219 137.007812 29.019531 136.945312 31.3125 Z M 136.945312 31.3125 "/>
<path style=" stroke:none;fill-rule:nonzero;fill:rgb(0%,74.509804%,63.529412%);fill-opacity:1;" d="M 191.589844 10.476562 L 191.589844 39.527344 L 195.484375 39.527344 L 195.484375 49.855469 L 191.40625 49.855469 L 191.40625 43.0625 L 166.949219 43.0625 L 166.949219 49.855469 L 162.824219 49.855469 L 162.824219 39.527344 L 165.527344 39.527344 C 167.421875 36.988281 168.597656 33.457031 169.054688 28.925781 C 169.238281 26.816406 169.34375 24.703125 169.375 22.59375 L 169.46875 10.476562 Z M 187.375 14.011719 L 173.359375 14.011719 L 173.269531 22.960938 C 173.238281 27.089844 172.933594 30.488281 172.351562 33.148438 C 171.769531 35.78125 170.949219 37.90625 169.878906 39.527344 L 187.375 39.527344 Z M 220.070312 19.886719 L 220.070312 43.0625 L 216.3125 43.0625 L 216.3125 33.835938 C 216.3125 29.460938 216.375 26.1875 216.496094 24.015625 C 215.914062 25.085938 214.847656 26.769531 213.289062 29.066406 L 210.769531 32.78125 L 204.035156 43.0625 L 199.820312 43.0625 L 199.820312 19.886719 L 203.53125 19.886719 L 203.53125 30.488281 C 203.53125 32.414062 203.515625 33.667969 203.488281 34.25 L 203.394531 38.839844 C 204.617188 36.730469 206.339844 34.007812 208.570312 30.671875 L 215.808594 19.886719 Z M 240.972656 43.0625 L 240.972656 39.941406 C 240.148438 41.164062 239.050781 42.113281 237.675781 42.785156 C 236.300781 43.429688 234.714844 43.75 232.910156 43.75 C 230.347656 43.75 228.332031 43.167969 226.863281 42.007812 C 225.429688 40.84375 224.710938 39.207031 224.710938 37.097656 L 224.710938 36.867188 C 224.710938 34.542969 225.519531 32.78125 227.140625 31.589844 C 228.789062 30.363281 231.324219 29.660156 234.742188 29.476562 L 240.789062 29.066406 L 240.789062 27.503906 C 240.789062 25.851562 240.316406 24.613281 239.371094 23.785156 C 238.421875 22.929688 237.050781 22.5 235.246094 22.5 C 233.75 22.5 232.390625 22.808594 231.171875 23.417969 C 229.980469 24 228.757812 24.980469 227.503906 26.355469 L 224.988281 24.0625 C 227.644531 20.847656 231.03125 19.242188 235.15625 19.242188 C 238.117188 19.242188 240.421875 19.945312 242.074219 21.355469 C 243.722656 22.761719 244.546875 24.71875 244.546875 27.230469 L 244.546875 43.0625 Z M 235.015625 32.277344 C 232.636719 32.398438 230.957031 32.796875 229.980469 33.46875 C 229 34.144531 228.511719 35.214844 228.511719 36.683594 L 228.511719 36.914062 C 228.511719 38.105469 228.957031 39.023438 229.839844 39.667969 C 230.757812 40.308594 232.039062 40.628906 233.691406 40.628906 C 235.003906 40.628906 236.210938 40.371094 237.308594 39.851562 C 238.40625 39.328125 239.261719 38.609375 239.875 37.691406 C 240.484375 36.746094 240.789062 35.671875 240.789062 34.480469 L 240.789062 32 Z M 247.550781 39.851562 L 249.703125 39.851562 C 250.558594 38.933594 251.199219 37.585938 251.628906 35.8125 C 252.085938 34.007812 252.34375 31.558594 252.40625 28.46875 L 252.496094 19.886719 L 269.902344 19.886719 L 269.902344 39.851562 L 273.292969 39.851562 L 273.292969 48.800781 L 269.492188 48.800781 L 269.492188 43.0625 L 251.304688 43.0625 L 251.304688 48.800781 L 247.550781 48.800781 Z M 265.964844 23.097656 L 256.023438 23.097656 L 255.933594 28.699219 C 255.902344 31.605469 255.703125 33.960938 255.335938 35.765625 C 254.972656 37.570312 254.421875 38.933594 253.6875 39.851562 L 265.964844 39.851562 Z M 298.898438 31.496094 C 298.898438 33.882812 298.394531 35.996094 297.386719 37.832031 C 296.347656 39.695312 294.914062 41.148438 293.082031 42.191406 C 291.25 43.199219 289.15625 43.703125 286.804688 43.703125 C 284.425781 43.703125 282.332031 43.183594 280.53125 42.144531 C 278.667969 41.136719 277.214844 39.710938 276.179688 37.875 C 275.171875 36.039062 274.667969 33.914062 274.667969 31.496094 L 274.667969 31.3125 C 274.667969 28.957031 275.1875 26.878906 276.226562 25.070312 C 277.230469 23.234375 278.652344 21.8125 280.484375 20.804688 C 282.316406 19.761719 284.425781 19.242188 286.804688 19.242188 C 289.15625 19.242188 291.25 19.746094 293.082031 20.757812 C 294.914062 21.765625 296.332031 23.191406 297.339844 25.027344 C 298.378906 26.863281 298.898438 28.957031 298.898438 31.3125 Z M 278.699219 31.496094 C 278.699219 33.273438 279.035156 34.816406 279.707031 36.132812 C 280.378906 37.507812 281.324219 38.566406 282.546875 39.300781 C 283.769531 40.035156 285.1875 40.402344 286.804688 40.402344 C 288.425781 40.402344 289.84375 40.019531 291.066406 39.253906 C 292.289062 38.519531 293.21875 37.480469 293.859375 36.132812 C 294.53125 34.785156 294.867188 33.242188 294.867188 31.496094 L 294.867188 31.3125 C 294.867188 29.570312 294.53125 28.039062 293.859375 26.722656 C 293.1875 25.410156 292.226562 24.382812 290.972656 23.648438 C 289.75 22.914062 288.363281 22.546875 286.804688 22.546875 C 285.25 22.546875 283.859375 22.898438 282.636719 23.601562 C 281.414062 24.335938 280.453125 25.378906 279.75 26.722656 C 279.050781 28.070312 278.699219 29.601562 278.699219 31.3125 Z M 310.992188 32.828125 L 307.003906 32.828125 L 307.003906 43.0625 L 303.066406 43.0625 L 303.066406 19.886719 L 307.003906 19.886719 L 307.003906 29.617188 L 311.035156 29.617188 L 318.640625 19.886719 L 322.851562 19.886719 L 314.195312 31.039062 L 323.585938 43.0625 L 319.097656 43.0625 Z M 310.992188 32.828125 "/>
</g>
</svg>
