<?xml version="1.0" encoding="UTF-8"?>
<svg xmlns="http://www.w3.org/2000/svg" xmlns:xlink="http://www.w3.org/1999/xlink" width="130px" height="53px" viewBox="0 0 129 53" version="1.1">
<g id="surface1">
<path style=" stroke:none;fill-rule:nonzero;fill:rgb(0%,40.784314%,100%);fill-opacity:1;" d="M 11.171875 20.265625 C 11.644531 20.265625 12.273438 20.265625 13.015625 20.265625 C 14.097656 20.265625 15.417969 20.285156 16.855469 20.285156 C 22.585938 20.285156 27.082031 15.882812 27.082031 10.269531 C 27.082031 4.65625 22.585938 0.277344 16.851562 0.277344 L 11.171875 0.277344 C 10.28125 0.277344 9.558594 1.003906 9.558594 1.898438 L 9.558594 18.640625 C 9.558594 19.535156 10.277344 20.261719 11.171875 20.265625 Z M 12.785156 3.519531 L 16.851562 3.519531 C 20.773438 3.519531 23.84375 6.492188 23.84375 10.28125 C 23.84375 14.070312 20.773438 17.054688 16.851562 17.054688 C 15.417969 17.054688 14.113281 17.054688 13.039062 17.03125 L 12.78125 17.03125 Z M 12.785156 3.519531 "/>
<path style=" stroke:none;fill-rule:nonzero;fill:rgb(0%,40.784314%,100%);fill-opacity:1;" d="M 11.171875 44.339844 C 12.0625 44.339844 12.785156 43.617188 12.785156 42.722656 L 12.785156 26.65625 C 12.75 25.789062 12.039062 25.101562 11.171875 25.101562 C 10.304688 25.101562 9.59375 25.789062 9.558594 26.65625 L 9.558594 42.722656 C 9.558594 43.617188 10.28125 44.339844 11.171875 44.339844 Z M 11.171875 44.339844 "/>
<path style=" stroke:none;fill-rule:nonzero;fill:rgb(0%,40.784314%,100%);fill-opacity:1;" d="M 41.601562 20.554688 C 47.25 20.554688 51.828125 15.953125 51.832031 10.28125 C 51.832031 4.605469 47.253906 0.00390625 41.605469 0.00390625 C 35.957031 0.00390625 31.378906 4.605469 31.378906 10.28125 C 31.386719 15.949219 35.960938 20.542969 41.601562 20.554688 Z M 41.601562 3.25 C 45.46875 3.25 48.601562 6.394531 48.601562 10.28125 C 48.601562 14.164062 45.472656 17.3125 41.605469 17.3125 C 37.742188 17.3125 34.609375 14.164062 34.609375 10.28125 C 34.609375 6.402344 37.742188 3.253906 41.601562 3.25 Z M 41.601562 3.25 "/>
<path style=" stroke:none;fill-rule:nonzero;fill:rgb(0%,40.784314%,100%);fill-opacity:1;" d="M 68.601562 34.613281 C 68.601562 40.285156 73.179688 44.886719 78.828125 44.886719 C 84.472656 44.886719 89.050781 40.285156 89.050781 34.609375 C 89.050781 28.933594 84.46875 24.335938 78.824219 24.335938 C 73.179688 24.34375 68.605469 28.941406 68.601562 34.613281 Z M 78.824219 27.582031 C 82.6875 27.578125 85.820312 30.726562 85.824219 34.609375 C 85.824219 38.492188 82.691406 41.640625 78.828125 41.640625 C 74.960938 41.644531 71.828125 38.496094 71.828125 34.613281 C 71.832031 30.730469 74.960938 27.585938 78.824219 27.582031 Z M 78.824219 27.582031 "/>
<path style=" stroke:none;fill-rule:nonzero;fill:rgb(0%,40.784314%,100%);fill-opacity:1;" d="M 66.355469 20.554688 C 69.351562 20.554688 72.203125 19.230469 74.140625 16.933594 C 74.539062 16.46875 74.890625 15.964844 75.199219 15.4375 C 75.601562 14.667969 75.332031 13.714844 74.582031 13.277344 C 73.835938 12.839844 72.875 13.070312 72.410156 13.804688 C 70.832031 16.53125 67.636719 17.863281 64.597656 17.0625 C 61.5625 16.257812 59.433594 13.515625 59.394531 10.363281 C 59.359375 7.207031 61.421875 4.417969 64.4375 3.539062 C 67.453125 2.664062 70.679688 3.921875 72.324219 6.609375 C 72.789062 7.371094 73.785156 7.609375 74.542969 7.140625 C 75.300781 6.671875 75.539062 5.675781 75.074219 4.910156 C 72.5 0.6875 67.292969 -1.089844 62.691406 0.6875 C 58.089844 2.460938 55.402344 7.28125 56.300781 12.152344 C 57.199219 17.019531 61.425781 20.554688 66.355469 20.554688 Z M 66.355469 20.554688 "/>
<path style=" stroke:none;fill-rule:nonzero;fill:rgb(0%,40.784314%,100%);fill-opacity:1;" d="M 90.03125 20.554688 C 92.765625 20.554688 95.929688 18.898438 98.503906 16.125 C 99.796875 14.738281 101.371094 12.347656 102.914062 10.035156 C 103.59375 9.011719 104.296875 7.953125 104.945312 7.03125 C 106.5 4.804688 108.953125 3.25 110.933594 3.25 C 113.734375 3.25 116.265625 4.925781 117.367188 7.511719 C 118.472656 10.097656 117.933594 13.09375 116.003906 15.132812 C 114.070312 17.167969 111.117188 17.851562 108.492188 16.867188 C 107.664062 16.582031 106.757812 17.011719 106.449219 17.835938 C 106.144531 18.664062 106.550781 19.585938 107.367188 19.910156 C 111.199219 21.34375 115.515625 20.34375 118.335938 17.367188 C 121.15625 14.390625 121.941406 10.011719 120.332031 6.234375 C 118.71875 2.457031 115.023438 0.0078125 110.933594 0.0078125 C 107.882812 0.0078125 104.492188 2.023438 102.304688 5.164062 C 101.632812 6.121094 100.917969 7.195312 100.230469 8.238281 C 98.769531 10.441406 97.257812 12.714844 96.144531 13.914062 C 94.621094 15.546875 92.226562 17.308594 90.03125 17.308594 C 87.277344 17.308594 84.777344 15.683594 83.648438 13.15625 C 82.519531 10.632812 82.972656 7.675781 84.804688 5.605469 C 86.636719 3.535156 89.507812 2.742188 92.136719 3.574219 C 92.691406 3.773438 93.3125 3.652344 93.753906 3.253906 C 94.195312 2.859375 94.386719 2.253906 94.25 1.671875 C 94.117188 1.09375 93.675781 0.636719 93.105469 0.480469 C 89.265625 -0.738281 85.070312 0.425781 82.394531 3.449219 C 79.71875 6.472656 79.054688 10.792969 80.703125 14.484375 C 82.351562 18.175781 86.003906 20.550781 90.03125 20.554688 Z M 90.03125 20.554688 "/>
<path style=" stroke:none;fill-rule:nonzero;fill:rgb(0%,40.784314%,100%);fill-opacity:1;" d="M 127.382812 0.277344 C 126.957031 0.277344 126.546875 0.445312 126.242188 0.75 C 125.941406 1.054688 125.769531 1.46875 125.769531 1.898438 L 125.769531 44.613281 C 125.769531 48.4375 124.335938 49.753906 120.261719 49.753906 L 8.734375 49.753906 C 4.386719 49.753906 3.226562 48.703125 3.226562 44.613281 L 3.226562 1.898438 C 3.191406 1.027344 2.480469 0.34375 1.613281 0.34375 C 0.75 0.34375 0.0351562 1.027344 0 1.898438 L 0 44.613281 C 0 51.988281 4.503906 52.996094 8.734375 52.996094 L 120.261719 52.996094 C 126.15625 52.996094 129 50.285156 129 44.613281 L 129 1.898438 C 129 1.003906 128.277344 0.277344 127.382812 0.277344 Z M 127.382812 0.277344 "/>
<path style=" stroke:none;fill-rule:nonzero;fill:rgb(0%,40.784314%,100%);fill-opacity:1;" d="M 119.746094 41.703125 L 109.558594 34.859375 L 119.746094 28.015625 C 120.273438 27.714844 120.589844 27.144531 120.5625 26.535156 C 120.535156 25.929688 120.175781 25.386719 119.625 25.132812 C 119.074219 24.878906 118.429688 24.957031 117.953125 25.332031 L 106.652344 32.921875 L 95.378906 25.332031 C 94.636719 24.835938 93.632812 25.035156 93.140625 25.78125 C 92.644531 26.523438 92.84375 27.53125 93.585938 28.03125 L 103.753906 34.863281 L 93.585938 41.695312 C 92.996094 42.09375 92.734375 42.832031 92.941406 43.511719 C 93.148438 44.195312 93.773438 44.664062 94.484375 44.664062 C 94.800781 44.664062 95.113281 44.570312 95.378906 44.390625 L 106.660156 36.8125 L 117.957031 44.402344 C 118.222656 44.585938 118.535156 44.6875 118.855469 44.691406 C 119.566406 44.691406 120.195312 44.222656 120.398438 43.539062 C 120.605469 42.851562 120.34375 42.113281 119.75 41.71875 Z M 119.746094 41.703125 "/>
<path style=" stroke:none;fill-rule:nonzero;fill:rgb(0%,40.784314%,100%);fill-opacity:1;" d="M 29.789062 44.339844 C 28.894531 44.339844 28.171875 43.613281 28.171875 42.71875 L 28.171875 36.371094 C 28.117188 34.527344 26.617188 33.0625 24.78125 33.0625 C 22.949219 33.0625 21.445312 34.527344 21.394531 36.371094 L 21.394531 42.71875 C 21.417969 43.3125 21.117188 43.875 20.605469 44.179688 C 20.097656 44.488281 19.460938 44.488281 18.953125 44.179688 C 18.441406 43.875 18.140625 43.3125 18.164062 42.71875 L 18.164062 36.371094 C 18.238281 32.75 21.179688 29.855469 24.78125 29.855469 C 28.382812 29.855469 31.324219 32.75 31.398438 36.371094 L 31.398438 42.71875 C 31.398438 43.613281 30.679688 44.339844 29.789062 44.339844 Z M 29.789062 44.339844 "/>
<path style=" stroke:none;fill-rule:nonzero;fill:rgb(0%,40.784314%,100%);fill-opacity:1;" d="M 53.976562 24.347656 C 48.984375 24.347656 44.710938 28.042969 44.03125 32.742188 C 43.921875 33.324219 43.90625 33.921875 43.980469 34.511719 C 43.980469 34.582031 43.980469 34.621094 43.921875 34.546875 C 43.40625 33.972656 42.53125 33.054688 42.1875 32.710938 L 31.367188 21.839844 C 30.734375 21.203125 29.710938 21.203125 29.078125 21.839844 C 28.445312 22.476562 28.445312 23.503906 29.078125 24.140625 L 41.414062 36.535156 C 43.175781 38.308594 44.0625 39.199219 45.738281 40.820312 C 48.808594 43.773438 51.242188 44.902344 53.976562 44.902344 C 57.671875 44.964844 61.113281 43.019531 62.976562 39.816406 C 64.839844 36.613281 64.839844 32.648438 62.976562 29.445312 C 61.113281 26.238281 57.671875 24.296875 53.976562 24.355469 Z M 53.976562 41.648438 C 50.113281 41.648438 46.980469 38.5 46.980469 34.617188 C 46.980469 30.734375 50.117188 27.585938 53.980469 27.585938 C 57.84375 27.585938 60.976562 30.738281 60.976562 34.621094 C 60.972656 38.5 57.839844 41.644531 53.976562 41.648438 Z M 53.976562 41.648438 "/>
</g>
</svg>
