<?xml version="1.0" encoding="UTF-8"?> <svg xmlns="http://www.w3.org/2000/svg" id="Layer_1" data-name="Layer 1" viewBox="0 0 450.39 184.11"> <defs> <style>.cls-1{fill:#0068ff;}</style> </defs> <path class="cls-1" d="M39,70.39c1.66,0,3.85,0,6.44,0,3.78,0,8.39.07,13.41.07,20,0,35.7-15.29,35.7-34.8S78.85.94,58.83.94H39a5.63,5.63,0,0,0-5.63,5.63V64.75A5.64,5.64,0,0,0,39,70.39Zm5.64-58.18H58.83c13.7,0,24.42,10.32,24.42,23.49S72.53,59.23,58.83,59.23c-5,0-9.56,0-13.31-.07h-.9Z"></path> <path class="cls-1" d="M39,154.05a5.64,5.64,0,0,0,5.64-5.63V92.6a5.64,5.64,0,0,0-11.27,0v55.82A5.63,5.63,0,0,0,39,154.05Z"></path> <path class="cls-1" d="M145.25,71.39A35.7,35.7,0,1,0,109.56,35.7,35.74,35.74,0,0,0,145.25,71.39Zm0-60.12A24.43,24.43,0,1,1,120.83,35.7,24.45,24.45,0,0,1,145.25,11.27Z"></path> <path class="cls-1" d="M239.51,120.24a35.7,35.7,0,1,0,35.69-35.7A35.73,35.73,0,0,0,239.51,120.24ZM275.2,95.81a24.43,24.43,0,1,1-24.42,24.43A24.46,24.46,0,0,1,275.2,95.81Z"></path> <path class="cls-1" d="M231.67,71.39a35.64,35.64,0,0,0,27.19-12.57,36.27,36.27,0,0,0,3.69-5.21,5.64,5.64,0,0,0-9.74-5.67,24.37,24.37,0,1,1-.3-25,5.63,5.63,0,1,0,9.6-5.9,35.7,35.7,0,1,0-30.44,54.35Z"></path> <path class="cls-1" d="M314.34,71.39c9.54,0,20.59-5.75,29.58-15.38,4.51-4.83,10-13.13,15.4-21.16,2.37-3.56,4.82-7.24,7.08-10.44,5.44-7.74,14-13.14,20.91-13.14a24.43,24.43,0,1,1-8.52,47.32,5.64,5.64,0,0,0-3.93,10.57A35.7,35.7,0,1,0,387.31,0c-10.65,0-22.48,7-30.13,17.92-2.34,3.32-4.83,7.06-7.24,10.68-5.1,7.65-10.38,15.56-14.26,19.72C330.36,54,322,60.12,314.34,60.12a24.43,24.43,0,1,1,7.34-47.73,5.64,5.64,0,1,0,3.39-10.75,35.7,35.7,0,1,0-10.73,69.75Z"></path> <path class="cls-1" d="M444.75.94a5.63,5.63,0,0,0-5.64,5.63V155c0,13.28-5,17.85-19.23,17.85H30.5c-15.19,0-19.23-3.65-19.23-17.85V6.57A5.64,5.64,0,0,0,0,6.57V155c0,25.62,15.73,29.12,30.5,29.12H419.88c20.58,0,30.51-9.42,30.51-29.12V6.57A5.64,5.64,0,0,0,444.75.94Z"></path> <path class="cls-1" d="M418.08,144.88,382.51,121.1l35.57-23.78A5.63,5.63,0,1,0,411.82,88l-39.45,26.37L333,88a5.63,5.63,0,0,0-6.26,9.37l35.51,23.74-35.51,23.74a5.64,5.64,0,0,0,3.14,10.32,5.52,5.52,0,0,0,3.12-.95l39.39-26.33,39.45,26.37a5.56,5.56,0,0,0,3.13,1,5.64,5.64,0,0,0,3.13-10.33Z"></path> <path class="cls-1" d="M104,154.05a5.64,5.64,0,0,1-5.64-5.64V126.35a11.84,11.84,0,0,0-23.67,0v22.06a5.64,5.64,0,1,1-11.27,0V126.35a23.11,23.11,0,0,1,46.21,0v22.06A5.64,5.64,0,0,1,104,154.05Z"></path> <path class="cls-1" d="M188.46,84.57c-17.44,0-32.36,12.84-34.73,29.17a19.51,19.51,0,0,0-.17,6.16c0,.24,0,.37-.21.12-1.8-2-4.86-5.19-6.06-6.39L109.52,75.86a5.64,5.64,0,0,0-8,8l43.07,43.07c6.15,6.15,9.25,9.25,15.1,14.88C170.41,152.07,178.9,156,188.46,156a35.7,35.7,0,1,0,0-71.39Zm0,60.12a24.43,24.43,0,1,1,24.43-24.42A24.44,24.44,0,0,1,188.46,144.69Z"></path> </svg> 