<?xml version="1.0" encoding="UTF-8"?>
<svg xmlns="http://www.w3.org/2000/svg" xmlns:xlink="http://www.w3.org/1999/xlink" width="130px" height="130px" viewBox="0 0 130 130" version="1.1">
<g id="surface1">
<rect x="0" y="0" width="130" height="130" style="fill:rgb(100%,100%,100%);fill-opacity:1;stroke:none;"/>
<path style=" stroke:none;fill-rule:nonzero;fill:rgb(47.843137%,54.901961%,65.490196%);fill-opacity:1;" d="M 37.472656 66.617188 C 37.726562 66.617188 37.851562 66.9375 37.851562 67.582031 C 37.824219 68.042969 37.675781 68.484375 37.425781 68.867188 C 37.117188 69.382812 36.730469 69.84375 36.28125 70.234375 C 35.8125 70.648438 35.285156 70.992188 34.71875 71.253906 C 34.195312 71.507812 33.621094 71.644531 33.039062 71.652344 C 32.296875 71.652344 31.800781 71 31.550781 69.699219 C 31.1875 70.292969 30.695312 70.796875 30.109375 71.167969 C 29.394531 71.589844 28.574219 71.789062 27.746094 71.746094 C 27.308594 71.765625 26.871094 71.695312 26.460938 71.535156 C 26.050781 71.375 25.675781 71.132812 25.367188 70.820312 C 25.074219 70.527344 24.847656 70.179688 24.695312 69.792969 C 24.542969 69.410156 24.472656 68.996094 24.484375 68.585938 C 24.484375 66.203125 25.273438 64.324219 26.855469 62.953125 C 27.402344 62.453125 28.039062 62.066406 28.734375 61.816406 C 29.328125 61.632812 29.949219 61.542969 30.570312 61.542969 C 31.117188 61.527344 31.65625 61.648438 32.144531 61.894531 C 32.339844 61.488281 32.5625 61.285156 32.816406 61.285156 C 33.078125 61.292969 33.339844 61.355469 33.578125 61.464844 C 33.820312 61.574219 34.035156 61.730469 34.214844 61.925781 C 34.582031 62.21875 34.816406 62.644531 34.871094 63.113281 C 34.621094 63.683594 34.332031 64.238281 34.011719 64.773438 C 33.882812 65.671875 33.828125 66.578125 33.84375 67.484375 C 33.84375 68.652344 33.992188 69.234375 34.285156 69.234375 C 34.648438 69.234375 35.53125 68.507812 36.929688 67.050781 C 37.179688 66.761719 37.363281 66.617188 37.472656 66.617188 Z M 27.570312 67.890625 C 27.570312 68.96875 27.96875 69.507812 28.765625 69.507812 C 29.617188 69.496094 30.324219 69.039062 30.886719 68.144531 C 31.101562 67.789062 31.261719 67.40625 31.367188 67.007812 C 31.34375 65.652344 31.484375 64.296875 31.789062 62.972656 C 30.65625 63.195312 29.621094 63.769531 28.828125 64.613281 C 28.410156 65.046875 28.085938 65.5625 27.867188 66.125 C 27.652344 66.6875 27.550781 67.289062 27.570312 67.890625 Z M 27.570312 67.890625 "/>
<path style=" stroke:none;fill-rule:nonzero;fill:rgb(47.843137%,54.901961%,65.490196%);fill-opacity:1;" d="M 46.726562 65.214844 C 46.726562 64.75 46.460938 64.515625 45.929688 64.515625 C 45.566406 64.515625 45.160156 64.863281 44.714844 65.566406 C 44.269531 66.265625 43.941406 67.039062 43.75 67.847656 L 43.75 67.886719 C 43.75 68.386719 43.824219 68.882812 43.96875 69.359375 C 44.082031 69.699219 44.15625 70.050781 44.1875 70.410156 C 44.1875 70.878906 43.59375 71.34375 42.40625 71.8125 C 42.25 71.875 42.089844 71.910156 41.921875 71.917969 C 41.757812 71.921875 41.597656 71.867188 41.464844 71.769531 C 41.332031 71.671875 41.238281 71.53125 41.199219 71.371094 C 41.046875 70.890625 40.980469 70.390625 41 69.886719 C 41 69.265625 41.015625 68.679688 41.050781 68.136719 C 41.085938 67.59375 41.121094 67.082031 41.15625 66.601562 C 41.191406 66.136719 41.226562 65.722656 41.261719 65.363281 C 41.296875 65.003906 41.3125 64.710938 41.3125 64.492188 C 41.3125 64.023438 41.097656 63.789062 40.664062 63.789062 C 40.230469 63.789062 39.726562 64.296875 39.152344 65.3125 C 38.578125 66.328125 38.292969 67.136719 38.292969 67.730469 C 38.289062 68.289062 38.359375 68.84375 38.511719 69.378906 C 38.628906 69.71875 38.703125 70.074219 38.734375 70.429688 C 38.734375 70.898438 38.136719 71.363281 36.949219 71.832031 C 36.796875 71.894531 36.632812 71.933594 36.464844 71.9375 C 36.300781 71.941406 36.140625 71.890625 36.011719 71.789062 C 35.878906 71.691406 35.785156 71.550781 35.742188 71.390625 C 35.585938 70.84375 35.519531 70.277344 35.542969 69.710938 C 35.511719 68.269531 35.585938 66.828125 35.773438 65.402344 C 35.988281 64.082031 36.476562 62.824219 37.199219 61.703125 C 37.277344 61.542969 37.390625 61.40625 37.535156 61.304688 C 37.679688 61.199219 37.84375 61.136719 38.019531 61.113281 C 38.484375 61.113281 38.914062 61.492188 39.300781 62.25 C 39.402344 62.421875 39.484375 62.605469 39.550781 62.792969 C 39.820312 62.414062 40.175781 62.101562 40.585938 61.882812 C 41 61.660156 41.457031 61.542969 41.921875 61.535156 C 42.515625 61.53125 43.089844 61.742188 43.539062 62.132812 C 43.761719 62.3125 43.941406 62.542969 44.0625 62.804688 C 44.183594 63.0625 44.242188 63.347656 44.238281 63.636719 L 44.238281 63.867188 C 44.597656 63.375 45.066406 62.972656 45.609375 62.695312 C 46.152344 62.417969 46.753906 62.269531 47.363281 62.269531 C 47.675781 62.246094 47.988281 62.289062 48.285156 62.390625 C 48.578125 62.492188 48.851562 62.648438 49.085938 62.859375 C 49.277344 63.046875 49.425781 63.273438 49.527344 63.523438 C 49.628906 63.773438 49.679688 64.039062 49.671875 64.308594 C 49.675781 64.828125 49.636719 65.351562 49.546875 65.863281 C 49.460938 66.332031 49.367188 66.765625 49.261719 67.167969 C 49.160156 67.566406 49.0625 67.929688 48.980469 68.25 C 48.910156 68.488281 48.867188 68.734375 48.855469 68.984375 C 48.855469 69.160156 48.910156 69.246094 49.023438 69.246094 C 49.320312 69.207031 49.59375 69.066406 49.796875 68.847656 C 50.105469 68.582031 50.414062 68.289062 50.722656 67.976562 L 51.570312 67.101562 C 51.839844 66.828125 52.019531 66.695312 52.113281 66.695312 C 52.308594 66.695312 52.40625 66.925781 52.40625 67.394531 C 52.40625 68.375 51.914062 69.328125 50.929688 70.253906 C 50.101562 71.113281 48.972656 71.617188 47.78125 71.652344 C 46.773438 71.652344 46.269531 70.734375 46.269531 68.902344 C 46.289062 68.257812 46.367188 67.617188 46.5 66.988281 C 46.625 66.40625 46.703125 65.8125 46.726562 65.214844 Z M 46.726562 65.214844 "/>
<path style=" stroke:none;fill-rule:nonzero;fill:rgb(47.843137%,54.901961%,65.490196%);fill-opacity:1;" d="M 58.269531 69.804688 C 57.796875 70.410156 57.195312 70.902344 56.507812 71.242188 C 55.816406 71.578125 55.058594 71.757812 54.292969 71.757812 C 52.746094 71.757812 51.589844 71.363281 50.820312 70.570312 C 50.441406 70.183594 50.144531 69.71875 49.949219 69.210938 C 49.753906 68.703125 49.664062 68.160156 49.6875 67.617188 C 49.640625 66.03125 50.207031 64.492188 51.261719 63.308594 C 51.777344 62.71875 52.421875 62.246094 53.144531 61.933594 C 53.867188 61.621094 54.648438 61.476562 55.4375 61.503906 C 56.078125 61.480469 56.71875 61.578125 57.324219 61.796875 C 58.152344 62.132812 58.5625 62.449219 58.5625 62.742188 C 58.5625 62.976562 57.984375 63.09375 56.832031 63.09375 C 56.292969 63.082031 55.757812 63.183594 55.257812 63.390625 C 54.761719 63.597656 54.3125 63.902344 53.9375 64.289062 C 53.550781 64.683594 53.25 65.152344 53.046875 65.667969 C 52.847656 66.183594 52.753906 66.734375 52.769531 67.285156 C 52.753906 67.863281 52.953125 68.429688 53.328125 68.871094 C 53.527344 69.089844 53.773438 69.261719 54.046875 69.371094 C 54.320312 69.480469 54.617188 69.527344 54.910156 69.507812 C 55.503906 69.53125 56.089844 69.386719 56.601562 69.089844 C 56.121094 68.773438 55.730469 68.339844 55.46875 67.828125 C 55.207031 67.3125 55.085938 66.742188 55.109375 66.167969 C 55.101562 65.484375 55.363281 64.824219 55.835938 64.328125 C 56.074219 64.058594 56.367188 63.84375 56.699219 63.699219 C 57.027344 63.554688 57.382812 63.480469 57.746094 63.488281 C 58.519531 63.488281 59.078125 63.703125 59.414062 64.128906 C 59.765625 64.613281 59.941406 65.203125 59.917969 65.800781 C 59.902344 66.542969 59.738281 67.277344 59.433594 67.953125 L 59.558594 67.953125 C 60.148438 67.949219 60.714844 67.722656 61.144531 67.316406 C 61.3125 67.148438 61.457031 67 61.574219 66.875 C 61.617188 66.820312 61.667969 66.777344 61.730469 66.746094 C 61.789062 66.714844 61.855469 66.691406 61.925781 66.6875 C 62.121094 66.6875 62.21875 66.917969 62.21875 67.386719 C 62.246094 67.742188 62.191406 68.101562 62.058594 68.433594 C 61.929688 68.769531 61.722656 69.066406 61.460938 69.308594 C 61.003906 69.710938 60.414062 69.929688 59.808594 69.929688 C 59.292969 69.9375 58.777344 69.894531 58.269531 69.804688 Z M 58.082031 67.351562 C 58.304688 66.894531 58.425781 66.390625 58.429688 65.878906 C 58.429688 65.414062 58.277344 65.179688 57.96875 65.179688 C 57.84375 65.179688 57.738281 65.269531 57.652344 65.453125 C 57.574219 65.617188 57.53125 65.796875 57.527344 65.980469 C 57.519531 66.234375 57.566406 66.492188 57.660156 66.730469 C 57.753906 66.96875 57.898438 67.183594 58.082031 67.367188 Z M 58.082031 67.351562 "/>
<path style=" stroke:none;fill-rule:nonzero;fill:rgb(0%,47.45098%,96.470588%);fill-opacity:1;" d="M 105.800781 71.753906 C 106.960938 71.753906 107.898438 70.8125 107.898438 69.652344 C 107.898438 68.492188 106.960938 67.550781 105.800781 67.550781 C 104.640625 67.550781 103.703125 68.492188 103.703125 69.652344 C 103.703125 70.8125 104.640625 71.753906 105.800781 71.753906 Z M 105.800781 71.753906 "/>
<path style=" stroke:none;fill-rule:nonzero;fill:rgb(0%,47.45098%,96.470588%);fill-opacity:1;" d="M 84.15625 67 C 84.390625 67 84.507812 67.324219 84.507812 67.96875 C 84.472656 68.421875 84.320312 68.859375 84.066406 69.238281 C 83.757812 69.753906 83.371094 70.214844 82.921875 70.605469 C 82.453125 71.019531 81.925781 71.363281 81.359375 71.625 C 80.855469 71.875 80.304688 72.007812 79.742188 72.023438 C 79.316406 72.046875 78.894531 71.945312 78.527344 71.730469 C 78.226562 71.53125 77.984375 71.253906 77.824219 70.929688 C 77.59375 70.464844 77.398438 69.558594 77.238281 68.210938 C 77.152344 67.265625 76.996094 66.328125 76.777344 65.40625 C 76.429688 65.34375 76.101562 65.195312 75.820312 64.976562 C 75.691406 64.886719 75.585938 64.761719 75.515625 64.621094 C 75.441406 64.480469 75.40625 64.324219 75.40625 64.164062 C 75.394531 64.015625 75.429688 63.871094 75.507812 63.742188 C 75.585938 63.617188 75.699219 63.519531 75.835938 63.464844 C 76.144531 63.320312 76.480469 63.246094 76.824219 63.253906 C 77.171875 63.25 77.519531 63.34375 77.820312 63.527344 C 78.203125 63.21875 78.527344 62.839844 78.773438 62.414062 C 79.039062 61.855469 79.15625 61.242188 79.125 60.625 C 79.136719 60.289062 79.078125 59.953125 78.945312 59.644531 C 78.816406 59.332031 78.617188 59.054688 78.367188 58.828125 C 77.886719 58.378906 77.152344 58.152344 76.171875 58.152344 C 75.417969 58.128906 74.667969 58.207031 73.9375 58.382812 C 73.480469 58.515625 73.035156 58.683594 72.605469 58.890625 C 72.234375 59.070312 71.90625 59.238281 71.617188 59.394531 C 71.371094 59.535156 71.09375 59.617188 70.8125 59.625 C 70.558594 59.625 70.433594 59.542969 70.433594 59.382812 C 70.496094 59.089844 70.632812 58.816406 70.832031 58.59375 C 71.164062 58.171875 71.558594 57.804688 72.007812 57.507812 C 73.292969 56.597656 74.835938 56.121094 76.414062 56.144531 C 77.820312 56.097656 79.21875 56.421875 80.464844 57.082031 C 81.050781 57.398438 81.535156 57.871094 81.867188 58.453125 C 82.195312 59.03125 82.359375 59.691406 82.332031 60.359375 C 82.382812 61.441406 82.046875 62.507812 81.386719 63.367188 C 80.761719 64.148438 79.933594 64.746094 78.996094 65.089844 C 79.210938 65.570312 79.382812 66.070312 79.507812 66.582031 C 79.640625 67.113281 79.769531 67.605469 79.898438 68.050781 C 79.996094 68.4375 80.140625 68.8125 80.328125 69.164062 C 80.375 69.285156 80.453125 69.390625 80.558594 69.46875 C 80.660156 69.546875 80.785156 69.59375 80.914062 69.605469 C 81.230469 69.570312 81.527344 69.425781 81.753906 69.199219 C 82.082031 68.925781 82.40625 68.625 82.730469 68.304688 C 83.050781 67.980469 83.339844 67.683594 83.589844 67.410156 C 83.855469 67.136719 84.042969 67 84.15625 67 Z M 75.027344 59.433594 C 75.210938 59.433594 75.300781 59.667969 75.300781 60.136719 C 75.300781 60.585938 75.273438 61.035156 75.21875 61.480469 C 75.101562 62.246094 74.941406 63.003906 74.734375 63.75 C 74.230469 65.65625 73.980469 66.769531 73.980469 67.09375 L 73.980469 70.183594 C 74.007812 70.496094 73.941406 70.816406 73.789062 71.09375 C 73.636719 71.371094 73.402344 71.59375 73.117188 71.738281 L 72.351562 72.085938 C 72.09375 72.203125 71.808594 72.261719 71.523438 72.253906 C 70.9375 72.253906 70.644531 71.578125 70.644531 70.226562 C 70.710938 68.484375 71.027344 66.761719 71.585938 65.109375 C 72.039062 63.460938 72.703125 61.878906 73.558594 60.402344 C 73.730469 60.15625 73.9375 59.9375 74.167969 59.75 C 74.40625 59.546875 74.714844 59.433594 75.027344 59.433594 Z M 75.027344 59.433594 "/>
<path style=" stroke:none;fill-rule:nonzero;fill:rgb(0%,47.45098%,96.470588%);fill-opacity:1;" d="M 102.222656 67 C 102.457031 67 102.574219 67.324219 102.574219 67.96875 C 102.535156 68.425781 102.382812 68.863281 102.125 69.238281 C 101.820312 69.753906 101.433594 70.214844 100.980469 70.605469 C 100.511719 71.019531 99.988281 71.363281 99.417969 71.625 C 98.851562 71.890625 98.230469 72.027344 97.605469 72.023438 C 97.324219 72.039062 97.046875 71.992188 96.789062 71.882812 C 96.53125 71.777344 96.300781 71.613281 96.113281 71.40625 C 95.765625 71.019531 95.574219 70.519531 95.578125 70.003906 C 95.589844 69.417969 95.671875 68.835938 95.832031 68.269531 C 96.007812 67.632812 96.195312 66.964844 96.390625 66.265625 C 96.921875 64.398438 97.195312 63.089844 97.207031 62.335938 C 97.222656 62.082031 97.179688 61.828125 97.082031 61.589844 C 97.039062 61.503906 96.96875 61.429688 96.882812 61.382812 C 96.796875 61.335938 96.699219 61.316406 96.601562 61.328125 C 96.179688 61.328125 95.734375 61.578125 95.257812 62.082031 C 94.726562 62.667969 94.273438 63.316406 93.914062 64.015625 C 93 65.625 92.476562 67.425781 92.382812 69.273438 L 92.464844 69.859375 C 92.496094 70.070312 92.507812 70.28125 92.507812 70.492188 C 92.496094 70.730469 92.433594 70.96875 92.320312 71.179688 C 92.203125 71.394531 92.042969 71.578125 91.847656 71.71875 C 91.4375 72.078125 90.914062 72.277344 90.367188 72.277344 C 90.21875 72.277344 90.070312 72.230469 89.945312 72.148438 C 89.820312 72.0625 89.726562 71.945312 89.667969 71.804688 C 89.503906 71.4375 89.425781 71.039062 89.4375 70.636719 C 89.464844 69.996094 89.570312 69.363281 89.753906 68.746094 C 89.960938 67.949219 90.195312 67.101562 90.453125 66.203125 C 91.125 63.835938 91.464844 62.070312 91.480469 60.90625 C 91.5 60.429688 91.425781 59.953125 91.257812 59.503906 C 91.1875 59.34375 91.070312 59.207031 90.917969 59.113281 C 90.765625 59.023438 90.585938 58.984375 90.410156 59 C 89.652344 59 88.90625 59.539062 88.164062 60.621094 C 87.421875 61.699219 86.757812 63.371094 86.171875 65.644531 C 86.015625 66.230469 85.902344 66.742188 85.820312 67.175781 L 85.800781 67.574219 C 86 68.40625 86.132812 69.25 86.199219 70.097656 C 86.199219 70.910156 85.914062 71.457031 85.339844 71.738281 L 84.574219 72.085938 C 84.324219 72.199219 84.058594 72.257812 83.785156 72.253906 C 83.085938 72.253906 82.738281 71.585938 82.738281 70.25 C 82.738281 68.910156 83.097656 66.296875 83.820312 62.414062 C 84.085938 61.011719 84.21875 60.226562 84.21875 60.058594 C 84.21875 58.925781 83.933594 58.355469 83.359375 58.355469 C 83.167969 58.355469 82.980469 58.414062 82.824219 58.523438 C 82.664062 58.636719 82.503906 58.753906 82.339844 58.875 C 82.179688 58.996094 82.015625 59.125 81.839844 59.261719 C 81.671875 59.375 81.46875 59.433594 81.265625 59.429688 C 81.046875 59.429688 80.9375 59.238281 80.9375 58.863281 C 80.941406 58.480469 81.039062 58.105469 81.226562 57.773438 C 81.414062 57.441406 81.683594 57.167969 82.007812 56.96875 C 82.734375 56.445312 83.613281 56.175781 84.507812 56.199219 C 85.769531 56.199219 86.511719 56.78125 86.734375 57.949219 C 86.789062 58.300781 86.832031 58.671875 86.859375 59.0625 C 87.894531 57.125 89.203125 56.15625 90.785156 56.15625 C 92.515625 56.15625 93.5 56.984375 93.730469 58.636719 C 93.820312 59.144531 93.855469 59.65625 93.835938 60.171875 L 93.835938 60.339844 C 94.746094 59.078125 95.824219 58.449219 97.070312 58.449219 C 98.832031 58.449219 99.710938 59.511719 99.710938 61.640625 C 99.691406 62.738281 99.546875 63.828125 99.28125 64.890625 C 98.996094 66.128906 98.785156 67.019531 98.652344 67.558594 C 98.539062 67.964844 98.472656 68.386719 98.453125 68.808594 C 98.453125 69.339844 98.640625 69.609375 99.007812 69.609375 C 99.378906 69.609375 100.265625 68.878906 101.664062 67.421875 C 101.925781 67.140625 102.113281 67 102.222656 67 Z M 102.222656 67 "/>
<path style=" stroke:none;fill-rule:nonzero;fill:rgb(0%,47.45098%,96.470588%);fill-opacity:1;" d="M 72.335938 64.210938 C 72.683594 64.210938 72.867188 64.558594 72.867188 65.222656 C 72.847656 65.972656 72.691406 66.710938 72.398438 67.402344 C 72.0625 68.222656 71.589844 68.980469 71 69.644531 C 70.332031 70.402344 69.527344 71.027344 68.628906 71.484375 C 67.574219 72.015625 66.40625 72.277344 65.226562 72.25 C 63.957031 72.265625 62.730469 71.796875 61.792969 70.9375 C 60.8125 70.0625 60.320312 68.800781 60.320312 67.152344 C 60.304688 65.628906 60.539062 64.113281 61.023438 62.667969 C 61.433594 61.417969 62.050781 60.246094 62.847656 59.199219 C 63.546875 58.273438 64.421875 57.5 65.425781 56.921875 C 66.257812 56.414062 67.210938 56.132812 68.183594 56.109375 C 69.695312 56.109375 70.453125 56.78125 70.453125 58.132812 C 70.484375 58.78125 70.335938 59.421875 70.027344 59.992188 C 69.742188 60.460938 69.453125 60.691406 69.160156 60.691406 C 68.964844 60.691406 68.773438 60.652344 68.59375 60.570312 C 68.417969 60.492188 68.257812 60.375 68.128906 60.226562 C 68.007812 60.085938 67.855469 59.96875 67.6875 59.886719 C 67.519531 59.804688 67.339844 59.753906 67.152344 59.742188 C 66.800781 59.742188 65.835938 59.707031 65.023438 61.019531 C 64.703125 61.453125 64.464844 61.945312 64.324219 62.464844 C 63.84375 63.691406 63.609375 65 63.625 66.320312 C 63.75 67.269531 64.242188 68.128906 64.996094 68.71875 C 65.445312 69.027344 65.988281 69.175781 66.53125 69.132812 C 67.492188 69.023438 68.382812 68.554688 69.015625 67.820312 C 69.492188 67.308594 69.910156 66.828125 70.363281 66.304688 C 70.8125 65.78125 71.210938 65.304688 71.554688 64.863281 C 71.898438 64.421875 72.15625 64.210938 72.335938 64.210938 Z M 72.335938 64.210938 "/>
</g>
</svg>
