<?xml version="1.0" encoding="UTF-8"?> <svg xmlns="http://www.w3.org/2000/svg" width="99" height="45" viewBox="0 0 99 45" fill="none"> <path d="M80.9185 0.00914218C80.5546 -0.0114277 0 0.00914218 0 0.00914218L0.0657574 26.3976C0.192251 31.3684 2.27126 36.093 5.85877 39.5624C9.44627 43.0318 14.2579 44.9711 19.266 44.966L99 45V17.8263C98.7045 13.1739 96.7012 8.7907 93.3683 5.50667C90.0361 2.2229 85.6063 0.266834 80.9185 0.00914218V0.00914218Z" fill="#0A2463"></path> <path d="M32.5953 21.8972C32.5948 20.3971 32.9302 18.9155 33.5774 17.5592C34.2245 16.203 35.1673 15.0059 36.3377 14.0542C37.5081 13.1025 38.8771 12.4199 40.3458 12.0557C41.8146 11.6914 43.3467 11.6545 44.8316 11.9477C46.3166 12.2398 47.7177 12.8548 48.934 13.7482C50.1502 14.6416 51.1513 15.7912 51.8651 17.1141C52.5788 18.437 52.9875 19.9004 53.0616 21.3987C53.1358 22.897 52.8735 24.3929 52.2938 25.7787C51.5193 27.6326 50.2068 29.2169 48.5225 30.3309C46.8382 31.4453 44.8596 32.04 42.834 32.04C41.489 32.0415 40.1569 31.7802 38.914 31.2709C37.6711 30.7616 36.5418 30.0144 35.5907 29.0721C34.6396 28.1298 33.8855 27.0109 33.3715 25.7794C32.8575 24.5479 32.5938 23.2281 32.5953 21.8954V21.8972ZM48.9991 21.8972C48.9991 18.4701 46.2939 15.6225 42.834 15.6225C39.3742 15.6225 36.6699 18.4701 36.6699 21.8972C36.6699 25.3244 39.3751 28.1711 42.834 28.1711C46.293 28.1711 48.9991 25.3235 48.9991 21.8972ZM56.6157 12.0827H64.206C67.8888 12.0827 70.2854 14.6253 70.2854 17.8879C70.2854 20.5378 68.8628 22.1995 66.2126 23.0018L73.3255 31.7073H68.4449L61.6362 23.4436H60.6631V31.7073H56.6157V12.0827V12.0827ZM63.7294 20.0164C65.2639 20.0164 66.2686 19.2142 66.2686 17.8879C66.2686 16.5339 65.2639 15.7594 63.7303 15.7594H60.6613V20.0164H63.7303H63.7294ZM73.4564 25.6311H77.5011C77.8089 27.3992 79.2875 28.3392 81.072 28.3392C82.7184 28.3392 83.8901 27.5933 83.8901 26.3493C83.8901 25.2707 83.1363 24.498 81.2399 23.9721L79.1475 23.364C75.9946 22.4795 73.9862 20.545 73.9582 17.5588C73.9582 13.9394 76.6328 11.7554 80.5981 11.7554C84.8667 11.7554 87.4068 14.7961 87.544 17.7251H83.5317C83.0858 16.0661 81.8031 15.4589 80.6026 15.4589C79.18 15.4589 78.0644 16.0938 78.0364 17.2824C78.0084 18.4987 78.874 19.1614 80.5187 19.6319L82.8285 20.2677C86.0636 21.1522 87.9619 23.1422 87.9619 26.2107C87.9619 29.5555 85.2278 32.0436 81.0702 32.0436C76.3295 32.04 73.5954 28.8329 73.4555 25.6311H73.4564Z" fill="white"></path> <path opacity="0.7" d="M10.5001 3.17251L10.547 17.4096L14.0511 21.5942L10.7907 21.5629C10.4387 22.9295 10.4062 24.3568 10.696 25.7377C10.9855 27.1185 11.5897 28.4155 12.4624 29.5297C13.3353 30.6441 14.4528 31.5456 15.7309 32.1671C17.0091 32.7887 18.4127 33.1116 19.8362 33.1133L20.1512 33.1071H28.7751L10.5001 3.17251Z" fill="white"></path> <path d="M34.9375 33.1133L23.6878 33.1053L10.5001 3.17251L34.9375 33.1133Z" fill="white"></path> </svg> 